<ttFont>
<head>
    <!-- Most of this table will be recalculated by the compiler -->
    <tableVersion value="1.0"/>
    <fontRevision value="1.00899"/>
    <checkSumAdjustment value="0xefa168c"/>
    <magicNumber value="0x5f0f3cf5"/>
    <flags value="00000000 00001011"/>
    <unitsPerEm value="1000"/>
    <created value="Sun Aug 18 22:17:34 2019"/>
    <modified value="Sun Aug 18 22:17:34 2019"/>
    <xMin value="-27"/>
    <yMin value="-591"/>
    <xMax value="569"/>
    <yMax value="1074"/>
    <macStyle value="00000000 00000000"/>
    <lowestRecPPEM value="8"/>
    <fontDirectionHint value="2"/>
    <indexToLocFormat value="0"/>
    <glyphDataFormat value="0"/>
  </head>
    <TTGlyph name="A" xMin="37" yMin="-1" xMax="505" yMax="634">
      <contour>
        <pt x="257" y="634" on="1"/>
        <pt x="265" y="634" on="1"/>
        <pt x="505" y="0" on="1"/>
        <pt x="433" y="0" on="1"/>
        <pt x="364" y="182" on="1"/>
        <pt x="166" y="182" on="1"/>
        <pt x="106" y="-1" on="1"/>
        <pt x="37" y="-1" on="1"/>
      </contour>
      <contour>
        <pt x="260" y="474" on="1"/>
        <pt x="180" y="236" on="1"/>
        <pt x="348" y="236" on="1"/>
      </contour>
    </TTGlyph>
    <TTGlyph name="AE" xMin="24" yMin="0" xMax="504" yMax="624">
      <contour>
        <pt x="504" y="624" on="1"/>
        <pt x="504" y="562" on="1"/>
        <pt x="331" y="562" on="1"/>
        <pt x="332" y="357" on="1"/>
        <pt x="478" y="357" on="1"/>
        <pt x="478" y="293" on="1"/>
        <pt x="333" y="293" on="1"/>
        <pt x="335" y="62" on="1"/>
        <pt x="502" y="62" on="1"/>
        <pt x="502" y="0" on="1"/>
        <pt x="272" y="0" on="1"/>
        <pt x="272" y="169" on="1"/>
        <pt x="142" y="169" on="1"/>
        <pt x="88" y="0" on="1"/>
        <pt x="24" y="0" on="1"/>
        <pt x="220" y="624" on="1"/>
      </contour>
      <contour>
        <pt x="261" y="562" on="1"/>
        <pt x="156" y="227" on="1"/>
        <pt x="272" y="227" on="1"/>
        <pt x="272" y="562" on="1"/>
      </contour>
    </TTGlyph>
    <TTGlyph name="Aacute" xMin="37" yMin="-1" xMax="505" yMax="791">
      <contour>
        <pt x="370" y="721" on="1"/>
        <pt x="201" y="660" on="1"/>
        <pt x="177" y="702" on="1"/>
        <pt x="330" y="791" on="1"/>
      </contour>
      <contour>
        <pt x="257" y="634" on="1"/>
        <pt x="265" y="634" on="1"/>
        <pt x="505" y="0" on="1"/>
        <pt x="433" y="0" on="1"/>
        <pt x="364" y="182" on="1"/>
        <pt x="166" y="182" on="1"/>
        <pt x="106" y="-1" on="1"/>
        <pt x="37" y="-1" on="1"/>
      </contour>
      <contour>
        <pt x="260" y="474" on="1"/>
        <pt x="180" y="236" on="1"/>
        <pt x="348" y="236" on="1"/>
      </contour>
    </TTGlyph>
    <TTGlyph name="Abreve" xMin="37" yMin="-1" xMax="505" yMax="784">
      <contour>
        <pt x="150" y="784" on="1"/>
        <pt x="195" y="714" on="0"/>
        <pt x="262" y="714" on="1"/>
        <pt x="328" y="714" on="0"/>
        <pt x="381" y="784" on="1"/>
        <pt x="409" y="742" on="1"/>
        <pt x="383" y="706" on="0"/>
        <pt x="306" y="662" on="0"/>
        <pt x="262" y="662" on="1"/>
        <pt x="177" y="662" on="0"/>
        <pt x="113" y="739" on="1"/>
      </contour>
      <contour>
        <pt x="257" y="634" on="1"/>
        <pt x="264" y="634" on="1"/>
        <pt x="505" y="0" on="1"/>
        <pt x="433" y="0" on="1"/>
        <pt x="364" y="182" on="1"/>
        <pt x="166" y="182" on="1"/>
        <pt x="106" y="-1" on="1"/>
        <pt x="37" y="-1" on="1"/>
      </contour>
      <contour>
        <pt x="260" y="474" on="1"/>
        <pt x="180" y="236" on="1"/>
        <pt x="348" y="236" on="1"/>
      </contour>
    </TTGlyph>
    <TTGlyph name="Acircumflex" xMin="37" yMin="-1" xMax="505" yMax="791">
      <contour>
        <pt x="255" y="791" on="1"/>
        <pt x="277" y="791" on="1"/>
        <pt x="400" y="694" on="1"/>
        <pt x="367" y="656" on="1"/>
        <pt x="264" y="727" on="1"/>
        <pt x="152" y="658" on="1"/>
        <pt x="124" y="692" on="1"/>
      </contour>
      <contour>
        <pt x="257" y="634" on="1"/>
        <pt x="264" y="634" on="1"/>
        <pt x="505" y="0" on="1"/>
        <pt x="433" y="0" on="1"/>
        <pt x="364" y="182" on="1"/>
        <pt x="166" y="182" on="1"/>
        <pt x="106" y="-1" on="1"/>
        <pt x="37" y="-1" on="1"/>
      </contour>
      <contour>
        <pt x="260" y="474" on="1"/>
        <pt x="180" y="236" on="1"/>
        <pt x="348" y="236" on="1"/>
      </contour>
    </TTGlyph>
    <TTGlyph name="Adieresis" xMin="37" yMin="-1" xMax="505" yMax="789">
      <contour>
        <pt x="224" y="759" on="0"/>
        <pt x="224" y="717" on="0"/>
        <pt x="194" y="688" on="0"/>
        <pt x="173" y="688" on="1"/>
        <pt x="153" y="688" on="0"/>
        <pt x="123" y="717" on="0"/>
        <pt x="123" y="759" on="0"/>
        <pt x="153" y="789" on="0"/>
        <pt x="173" y="789" on="1"/>
        <pt x="194" y="789" on="0"/>
      </contour>
      <contour>
        <pt x="402" y="759" on="0"/>
        <pt x="402" y="717" on="0"/>
        <pt x="372" y="688" on="0"/>
        <pt x="352" y="688" on="1"/>
        <pt x="331" y="688" on="0"/>
        <pt x="302" y="717" on="0"/>
        <pt x="302" y="759" on="0"/>
        <pt x="331" y="789" on="0"/>
        <pt x="352" y="789" on="1"/>
        <pt x="372" y="789" on="0"/>
      </contour>
      <contour>
        <pt x="257" y="634" on="1"/>
        <pt x="265" y="634" on="1"/>
        <pt x="505" y="0" on="1"/>
        <pt x="433" y="0" on="1"/>
        <pt x="364" y="182" on="1"/>
        <pt x="166" y="182" on="1"/>
        <pt x="106" y="-1" on="1"/>
        <pt x="37" y="-1" on="1"/>
      </contour>
      <contour>
        <pt x="260" y="474" on="1"/>
        <pt x="180" y="236" on="1"/>
        <pt x="348" y="236" on="1"/>
      </contour>
    </TTGlyph>
    <TTGlyph name="Agrave" xMin="37" yMin="-1" xMax="505" yMax="791">
      <contour>
        <pt x="356" y="702" on="1"/>
        <pt x="333" y="660" on="1"/>
        <pt x="164" y="721" on="1"/>
        <pt x="203" y="791" on="1"/>
      </contour>
      <contour>
        <pt x="257" y="634" on="1"/>
        <pt x="265" y="634" on="1"/>
        <pt x="505" y="0" on="1"/>
        <pt x="433" y="0" on="1"/>
        <pt x="364" y="182" on="1"/>
        <pt x="166" y="182" on="1"/>
        <pt x="106" y="-1" on="1"/>
        <pt x="37" y="-1" on="1"/>
      </contour>
      <contour>
        <pt x="260" y="474" on="1"/>
        <pt x="180" y="236" on="1"/>
        <pt x="348" y="236" on="1"/>
      </contour>
    </TTGlyph>
    <TTGlyph name="Aogonek" xMin="37" yMin="-176" xMax="508" yMax="634">
      <contour>
        <pt x="257" y="634" on="1"/>
        <pt x="264" y="634" on="1"/>
        <pt x="505" y="0" on="1"/>
        <pt x="506" y="0" on="1"/>
        <pt x="469" y="-33" on="0"/>
        <pt x="439" y="-67" on="1"/>
        <pt x="422" y="-86" on="0"/>
        <pt x="422" y="-102" on="1"/>
        <pt x="422" y="-114" on="0"/>
        <pt x="439" y="-130" on="0"/>
        <pt x="452" y="-130" on="1"/>
        <pt x="462" y="-130" on="0"/>
        <pt x="476" y="-125" on="1"/>
        <pt x="496" y="-117" on="0"/>
        <pt x="508" y="-107" on="1"/>
        <pt x="508" y="-153" on="1"/>
        <pt x="481" y="-176" on="0"/>
        <pt x="439" y="-176" on="1"/>
        <pt x="402" y="-176" on="0"/>
        <pt x="360" y="-141" on="0"/>
        <pt x="360" y="-115" on="1"/>
        <pt x="360" y="-66" on="0"/>
        <pt x="440" y="0" on="1"/>
        <pt x="433" y="0" on="1"/>
        <pt x="364" y="182" on="1"/>
        <pt x="166" y="182" on="1"/>
        <pt x="106" y="-1" on="1"/>
        <pt x="37" y="-1" on="1"/>
      </contour>
      <contour>
        <pt x="260" y="474" on="1"/>
        <pt x="180" y="236" on="1"/>
        <pt x="348" y="236" on="1"/>
      </contour>
    </TTGlyph>
    <TTGlyph name="Aring" xMin="37" yMin="-1" xMax="505" yMax="795">
      <contour>
        <pt x="505" y="0" on="1"/>
        <pt x="433" y="0" on="1"/>
        <pt x="364" y="182" on="1"/>
        <pt x="166" y="182" on="1"/>
        <pt x="106" y="-1" on="1"/>
        <pt x="37" y="-1" on="1"/>
        <pt x="252" y="619" on="1"/>
        <pt x="217" y="623" on="0"/>
        <pt x="170" y="673" on="0"/>
        <pt x="170" y="707" on="1"/>
        <pt x="170" y="743" on="0"/>
        <pt x="224" y="795" on="0"/>
        <pt x="300" y="795" on="0"/>
        <pt x="353" y="743" on="0"/>
        <pt x="353" y="707" on="1"/>
        <pt x="353" y="673" on="0"/>
        <pt x="305" y="622" on="0"/>
        <pt x="270" y="619" on="1"/>
      </contour>
      <contour>
        <pt x="221" y="707" on="1"/>
        <pt x="221" y="688" on="0"/>
        <pt x="246" y="662" on="0"/>
        <pt x="280" y="662" on="0"/>
        <pt x="304" y="689" on="0"/>
        <pt x="304" y="727" on="0"/>
        <pt x="280" y="753" on="0"/>
        <pt x="263" y="753" on="1"/>
        <pt x="245" y="753" on="0"/>
        <pt x="221" y="727" on="0"/>
      </contour>
      <contour>
        <pt x="260" y="474" on="1"/>
        <pt x="180" y="236" on="1"/>
        <pt x="348" y="236" on="1"/>
      </contour>
    </TTGlyph>
    <TTGlyph name="Atilde" xMin="37" yMin="-1" xMax="505" yMax="802">
      <contour>
        <pt x="108" y="715" on="1"/>
        <pt x="163" y="802" on="0"/>
        <pt x="221" y="802" on="1"/>
        <pt x="261" y="802" on="0"/>
        <pt x="301" y="759" on="1"/>
        <pt x="333" y="727" on="0"/>
        <pt x="351" y="727" on="1"/>
        <pt x="358" y="727" on="0"/>
        <pt x="370" y="731" on="0"/>
        <pt x="383" y="745" on="0"/>
        <pt x="389" y="752" on="0"/>
        <pt x="406" y="776" on="0"/>
        <pt x="409" y="780" on="1"/>
        <pt x="447" y="740" on="1"/>
        <pt x="417" y="703" on="0"/>
        <pt x="374" y="669" on="0"/>
        <pt x="348" y="669" on="1"/>
        <pt x="323" y="669" on="0"/>
        <pt x="277" y="707" on="0"/>
        <pt x="237" y="745" on="0"/>
        <pt x="201" y="745" on="0"/>
        <pt x="174" y="718" on="0"/>
        <pt x="153" y="684" on="1"/>
      </contour>
      <contour>
        <pt x="257" y="634" on="1"/>
        <pt x="264" y="634" on="1"/>
        <pt x="505" y="0" on="1"/>
        <pt x="433" y="0" on="1"/>
        <pt x="364" y="182" on="1"/>
        <pt x="166" y="182" on="1"/>
        <pt x="106" y="-1" on="1"/>
        <pt x="37" y="-1" on="1"/>
      </contour>
      <contour>
        <pt x="260" y="474" on="1"/>
        <pt x="180" y="236" on="1"/>
        <pt x="348" y="236" on="1"/>
      </contour>
    </TTGlyph>
    <TTGlyph name="B" xMin="93" yMin="0" xMax="502" yMax="623">
      <contour>
        <pt x="270" y="623" on="1"/>
        <pt x="348" y="623" on="0"/>
        <pt x="387" y="606" on="1"/>
        <pt x="430" y="588" on="0"/>
        <pt x="477" y="514" on="0"/>
        <pt x="477" y="471" on="1"/>
        <pt x="477" y="426" on="0"/>
        <pt x="427" y="351" on="0"/>
        <pt x="385" y="334" on="1"/>
        <pt x="437" y="316" on="0"/>
        <pt x="502" y="227" on="0"/>
        <pt x="502" y="173" on="1"/>
        <pt x="502" y="124" on="0"/>
        <pt x="447" y="40" on="0"/>
        <pt x="398" y="19" on="1"/>
        <pt x="355" y="0" on="0"/>
        <pt x="269" y="0" on="1"/>
        <pt x="93" y="0" on="1"/>
        <pt x="93" y="623" on="1"/>
      </contour>
      <contour>
        <pt x="162" y="365" on="1"/>
        <pt x="260" y="365" on="1"/>
        <pt x="317" y="365" on="0"/>
        <pt x="375" y="391" on="0"/>
        <pt x="407" y="437" on="0"/>
        <pt x="407" y="464" on="1"/>
        <pt x="407" y="492" on="0"/>
        <pt x="374" y="540" on="0"/>
        <pt x="344" y="552" on="1"/>
        <pt x="313" y="564" on="0"/>
        <pt x="261" y="564" on="1"/>
        <pt x="162" y="564" on="1"/>
      </contour>
      <contour>
        <pt x="162" y="61" on="1"/>
        <pt x="281" y="61" on="1"/>
        <pt x="333" y="61" on="0"/>
        <pt x="362" y="74" on="1"/>
        <pt x="393" y="88" on="0"/>
        <pt x="428" y="145" on="0"/>
        <pt x="428" y="215" on="0"/>
        <pt x="392" y="275" on="0"/>
        <pt x="358" y="291" on="1"/>
        <pt x="327" y="306" on="0"/>
        <pt x="264" y="306" on="1"/>
        <pt x="162" y="306" on="1"/>
      </contour>
    </TTGlyph>
    <TTGlyph name="C" xMin="74" yMin="-10" xMax="502" yMax="628">
      <contour>
        <pt x="311" y="628" on="1"/>
        <pt x="373" y="628" on="0"/>
        <pt x="477" y="561" on="0"/>
        <pt x="502" y="505" on="1"/>
        <pt x="435" y="472" on="1"/>
        <pt x="431" y="475" on="0"/>
        <pt x="431" y="482" on="1"/>
        <pt x="431" y="489" on="1"/>
        <pt x="431" y="496" on="0"/>
        <pt x="428" y="500" on="1"/>
        <pt x="380" y="572" on="0"/>
        <pt x="308" y="572" on="1"/>
        <pt x="239" y="572" on="0"/>
        <pt x="142" y="434" on="0"/>
        <pt x="142" y="314" on="1"/>
        <pt x="142" y="193" on="0"/>
        <pt x="242" y="50" on="0"/>
        <pt x="314" y="50" on="1"/>
        <pt x="351" y="50" on="0"/>
        <pt x="419" y="90" on="0"/>
        <pt x="441" y="126" on="1"/>
        <pt x="493" y="92" on="1"/>
        <pt x="464" y="44" on="0"/>
        <pt x="366" y="-10" on="0"/>
        <pt x="310" y="-10" on="1"/>
        <pt x="268" y="-10" on="0"/>
        <pt x="190" y="23" on="0"/>
        <pt x="118" y="93" on="0"/>
        <pt x="74" y="222" on="0"/>
        <pt x="74" y="308" on="1"/>
        <pt x="74" y="380" on="0"/>
        <pt x="105" y="494" on="0"/>
        <pt x="154" y="564" on="0"/>
        <pt x="218" y="610" on="0"/>
        <pt x="280" y="628" on="0"/>
      </contour>
    </TTGlyph>
    <TTGlyph name="Cacute" xMin="74" yMin="-10" xMax="502" yMax="791">
      <contour>
        <pt x="381" y="721" on="1"/>
        <pt x="212" y="660" on="1"/>
        <pt x="188" y="702" on="1"/>
        <pt x="341" y="791" on="1"/>
      </contour>
      <contour>
        <pt x="311" y="628" on="1"/>
        <pt x="373" y="628" on="0"/>
        <pt x="477" y="561" on="0"/>
        <pt x="502" y="505" on="1"/>
        <pt x="435" y="472" on="1"/>
        <pt x="431" y="475" on="0"/>
        <pt x="431" y="482" on="1"/>
        <pt x="431" y="489" on="1"/>
        <pt x="431" y="496" on="0"/>
        <pt x="428" y="500" on="1"/>
        <pt x="408" y="533" on="0"/>
        <pt x="344" y="572" on="0"/>
        <pt x="308" y="572" on="1"/>
        <pt x="239" y="572" on="0"/>
        <pt x="142" y="434" on="0"/>
        <pt x="142" y="314" on="1"/>
        <pt x="142" y="193" on="0"/>
        <pt x="242" y="50" on="0"/>
        <pt x="314" y="50" on="1"/>
        <pt x="351" y="50" on="0"/>
        <pt x="419" y="90" on="0"/>
        <pt x="441" y="126" on="1"/>
        <pt x="493" y="92" on="1"/>
        <pt x="464" y="44" on="0"/>
        <pt x="366" y="-10" on="0"/>
        <pt x="310" y="-10" on="1"/>
        <pt x="268" y="-10" on="0"/>
        <pt x="190" y="23" on="0"/>
        <pt x="118" y="93" on="0"/>
        <pt x="74" y="222" on="0"/>
        <pt x="74" y="308" on="1"/>
        <pt x="74" y="380" on="0"/>
        <pt x="105" y="494" on="0"/>
        <pt x="154" y="564" on="0"/>
        <pt x="218" y="610" on="0"/>
        <pt x="280" y="628" on="0"/>
      </contour>
    </TTGlyph>
    <TTGlyph name="Ccaron" xMin="74" yMin="-10" xMax="502" yMax="791">
      <contour>
        <pt x="315" y="656" on="1"/>
        <pt x="294" y="656" on="1"/>
        <pt x="170" y="753" on="1"/>
        <pt x="203" y="791" on="1"/>
        <pt x="307" y="721" on="1"/>
        <pt x="418" y="789" on="1"/>
        <pt x="446" y="755" on="1"/>
      </contour>
      <contour>
        <pt x="311" y="628" on="1"/>
        <pt x="373" y="628" on="0"/>
        <pt x="477" y="561" on="0"/>
        <pt x="502" y="505" on="1"/>
        <pt x="435" y="472" on="1"/>
        <pt x="431" y="475" on="0"/>
        <pt x="431" y="482" on="1"/>
        <pt x="431" y="489" on="1"/>
        <pt x="431" y="496" on="0"/>
        <pt x="428" y="500" on="1"/>
        <pt x="408" y="533" on="0"/>
        <pt x="344" y="572" on="0"/>
        <pt x="308" y="572" on="1"/>
        <pt x="239" y="572" on="0"/>
        <pt x="142" y="434" on="0"/>
        <pt x="142" y="314" on="1"/>
        <pt x="142" y="193" on="0"/>
        <pt x="242" y="50" on="0"/>
        <pt x="314" y="50" on="1"/>
        <pt x="351" y="50" on="0"/>
        <pt x="419" y="90" on="0"/>
        <pt x="441" y="126" on="1"/>
        <pt x="493" y="92" on="1"/>
        <pt x="464" y="44" on="0"/>
        <pt x="366" y="-10" on="0"/>
        <pt x="310" y="-10" on="1"/>
        <pt x="269" y="-10" on="0"/>
        <pt x="190" y="23" on="0"/>
        <pt x="118" y="93" on="0"/>
        <pt x="74" y="222" on="0"/>
        <pt x="74" y="308" on="1"/>
        <pt x="74" y="380" on="0"/>
        <pt x="105" y="494" on="0"/>
        <pt x="154" y="564" on="0"/>
        <pt x="218" y="610" on="0"/>
        <pt x="280" y="628" on="0"/>
      </contour>
    </TTGlyph>
    <TTGlyph name="Ccedilla" xMin="74" yMin="-177" xMax="502" yMax="628">
      <contour>
        <pt x="311" y="628" on="1"/>
        <pt x="373" y="628" on="0"/>
        <pt x="477" y="561" on="0"/>
        <pt x="502" y="505" on="1"/>
        <pt x="435" y="472" on="1"/>
        <pt x="431" y="474" on="0"/>
        <pt x="431" y="482" on="1"/>
        <pt x="431" y="489" on="1"/>
        <pt x="431" y="496" on="0"/>
        <pt x="428" y="500" on="1"/>
        <pt x="408" y="533" on="0"/>
        <pt x="344" y="572" on="0"/>
        <pt x="308" y="572" on="1"/>
        <pt x="239" y="572" on="0"/>
        <pt x="142" y="434" on="0"/>
        <pt x="142" y="314" on="1"/>
        <pt x="142" y="193" on="0"/>
        <pt x="242" y="50" on="0"/>
        <pt x="314" y="50" on="1"/>
        <pt x="351" y="50" on="0"/>
        <pt x="419" y="90" on="0"/>
        <pt x="441" y="126" on="1"/>
        <pt x="493" y="92" on="1"/>
        <pt x="439" y="4" on="0"/>
        <pt x="337" y="-9" on="1"/>
        <pt x="332" y="-47" on="1"/>
        <pt x="349" y="-48" on="1"/>
        <pt x="375" y="-50" on="0"/>
        <pt x="388" y="-56" on="1"/>
        <pt x="417" y="-70" on="0"/>
        <pt x="417" y="-103" on="1"/>
        <pt x="417" y="-132" on="0"/>
        <pt x="360" y="-177" on="0"/>
        <pt x="309" y="-177" on="1"/>
        <pt x="243" y="-177" on="0"/>
        <pt x="190" y="-140" on="1"/>
        <pt x="215" y="-98" on="1"/>
        <pt x="259" y="-134" on="0"/>
        <pt x="314" y="-134" on="1"/>
        <pt x="360" y="-134" on="0"/>
        <pt x="360" y="-109" on="1"/>
        <pt x="360" y="-99" on="0"/>
        <pt x="338" y="-85" on="0"/>
        <pt x="313" y="-85" on="1"/>
        <pt x="283" y="-85" on="1"/>
        <pt x="293" y="-10" on="1"/>
        <pt x="261" y="-7" on="0"/>
        <pt x="202" y="15" on="0"/>
        <pt x="144" y="65" on="0"/>
        <pt x="101" y="135" on="0"/>
        <pt x="74" y="242" on="0"/>
        <pt x="74" y="308" on="1"/>
        <pt x="74" y="380" on="0"/>
        <pt x="105" y="494" on="0"/>
        <pt x="154" y="564" on="0"/>
        <pt x="218" y="610" on="0"/>
        <pt x="280" y="628" on="0"/>
      </contour>
    </TTGlyph>
    <TTGlyph name="D" xMin="94" yMin="-1" xMax="500" yMax="623">
      <contour>
        <pt x="239" y="623" on="1"/>
        <pt x="333" y="623" on="0"/>
        <pt x="384" y="590" on="1"/>
        <pt x="500" y="516" on="0"/>
        <pt x="500" y="313" on="1"/>
        <pt x="500" y="209" on="0"/>
        <pt x="429" y="57" on="0"/>
        <pt x="362" y="24" on="1"/>
        <pt x="312" y="-1" on="0"/>
        <pt x="227" y="-1" on="1"/>
        <pt x="94" y="-1" on="1"/>
        <pt x="94" y="623" on="1"/>
      </contour>
      <contour>
        <pt x="160" y="54" on="1"/>
        <pt x="224" y="54" on="1"/>
        <pt x="298" y="54" on="0"/>
        <pt x="340" y="82" on="1"/>
        <pt x="430" y="143" on="0"/>
        <pt x="430" y="303" on="1"/>
        <pt x="430" y="464" on="0"/>
        <pt x="352" y="529" on="1"/>
        <pt x="310" y="564" on="0"/>
        <pt x="235" y="564" on="1"/>
        <pt x="160" y="564" on="1"/>
      </contour>
    </TTGlyph>
    <TTGlyph name="Dcaron" xMin="94" yMin="-1" xMax="500" yMax="791">
      <contour>
        <pt x="280" y="656" on="1"/>
        <pt x="258" y="656" on="1"/>
        <pt x="135" y="753" on="1"/>
        <pt x="168" y="791" on="1"/>
        <pt x="271" y="721" on="1"/>
        <pt x="383" y="789" on="1"/>
        <pt x="411" y="755" on="1"/>
      </contour>
      <contour>
        <pt x="239" y="623" on="1"/>
        <pt x="333" y="623" on="0"/>
        <pt x="384" y="590" on="1"/>
        <pt x="500" y="516" on="0"/>
        <pt x="500" y="313" on="1"/>
        <pt x="500" y="210" on="0"/>
        <pt x="428" y="58" on="0"/>
        <pt x="362" y="24" on="1"/>
        <pt x="312" y="-1" on="0"/>
        <pt x="227" y="-1" on="1"/>
        <pt x="94" y="-1" on="1"/>
        <pt x="94" y="623" on="1"/>
      </contour>
      <contour>
        <pt x="160" y="54" on="1"/>
        <pt x="224" y="54" on="1"/>
        <pt x="298" y="54" on="0"/>
        <pt x="340" y="82" on="1"/>
        <pt x="430" y="143" on="0"/>
        <pt x="430" y="303" on="1"/>
        <pt x="430" y="464" on="0"/>
        <pt x="352" y="529" on="1"/>
        <pt x="310" y="564" on="0"/>
        <pt x="235" y="564" on="1"/>
        <pt x="160" y="564" on="1"/>
      </contour>
    </TTGlyph>
    <TTGlyph name="Dcroat" xMin="55" yMin="-1" xMax="491" yMax="623">
      <contour>
        <pt x="243" y="623" on="1"/>
        <pt x="334" y="623" on="0"/>
        <pt x="384" y="586" on="1"/>
        <pt x="437" y="547" on="0"/>
        <pt x="491" y="400" on="0"/>
        <pt x="491" y="315" on="1"/>
        <pt x="491" y="212" on="0"/>
        <pt x="414" y="51" on="0"/>
        <pt x="344" y="18" on="1"/>
        <pt x="302" y="-1" on="0"/>
        <pt x="231" y="-1" on="1"/>
        <pt x="104" y="-1" on="1"/>
        <pt x="104" y="301" on="1"/>
        <pt x="55" y="301" on="1"/>
        <pt x="55" y="359" on="1"/>
        <pt x="104" y="359" on="1"/>
        <pt x="104" y="623" on="1"/>
      </contour>
      <contour>
        <pt x="168" y="57" on="1"/>
        <pt x="228" y="57" on="1"/>
        <pt x="294" y="57" on="0"/>
        <pt x="332" y="83" on="1"/>
        <pt x="376" y="112" on="0"/>
        <pt x="424" y="231" on="0"/>
        <pt x="424" y="306" on="1"/>
        <pt x="424" y="433" on="0"/>
        <pt x="371" y="504" on="1"/>
        <pt x="352" y="531" on="0"/>
        <pt x="299" y="560" on="0"/>
        <pt x="266" y="564" on="0"/>
        <pt x="239" y="564" on="1"/>
        <pt x="168" y="564" on="1"/>
        <pt x="168" y="359" on="1"/>
        <pt x="273" y="359" on="1"/>
        <pt x="273" y="301" on="1"/>
        <pt x="168" y="301" on="1"/>
      </contour>
    </TTGlyph>
    <TTGlyph name="E" xMin="112" yMin="0" xMax="494" yMax="624">
      <contour>
        <pt x="494" y="624" on="1"/>
        <pt x="494" y="562" on="1"/>
        <pt x="178" y="562" on="1"/>
        <pt x="178" y="357" on="1"/>
        <pt x="439" y="357" on="1"/>
        <pt x="439" y="293" on="1"/>
        <pt x="178" y="293" on="1"/>
        <pt x="178" y="62" on="1"/>
        <pt x="491" y="62" on="1"/>
        <pt x="491" y="0" on="1"/>
        <pt x="112" y="0" on="1"/>
        <pt x="112" y="624" on="1"/>
      </contour>
    </TTGlyph>
    <TTGlyph name="Eacute" xMin="112" yMin="0" xMax="494" yMax="791">
      <contour>
        <pt x="418" y="721" on="1"/>
        <pt x="249" y="660" on="1"/>
        <pt x="226" y="702" on="1"/>
        <pt x="378" y="791" on="1"/>
      </contour>
      <contour>
        <pt x="494" y="624" on="1"/>
        <pt x="494" y="562" on="1"/>
        <pt x="178" y="562" on="1"/>
        <pt x="178" y="357" on="1"/>
        <pt x="439" y="357" on="1"/>
        <pt x="439" y="293" on="1"/>
        <pt x="178" y="293" on="1"/>
        <pt x="178" y="62" on="1"/>
        <pt x="491" y="62" on="1"/>
        <pt x="491" y="0" on="1"/>
        <pt x="112" y="0" on="1"/>
        <pt x="112" y="624" on="1"/>
      </contour>
    </TTGlyph>
    <TTGlyph name="Ecaron" xMin="112" yMin="0" xMax="494" yMax="791">
      <contour>
        <pt x="319" y="656" on="1"/>
        <pt x="297" y="656" on="1"/>
        <pt x="174" y="753" on="1"/>
        <pt x="207" y="791" on="1"/>
        <pt x="310" y="721" on="1"/>
        <pt x="422" y="789" on="1"/>
        <pt x="450" y="755" on="1"/>
      </contour>
      <contour>
        <pt x="494" y="624" on="1"/>
        <pt x="494" y="562" on="1"/>
        <pt x="178" y="562" on="1"/>
        <pt x="178" y="357" on="1"/>
        <pt x="439" y="357" on="1"/>
        <pt x="439" y="293" on="1"/>
        <pt x="178" y="293" on="1"/>
        <pt x="178" y="62" on="1"/>
        <pt x="491" y="62" on="1"/>
        <pt x="491" y="0" on="1"/>
        <pt x="112" y="0" on="1"/>
        <pt x="112" y="624" on="1"/>
      </contour>
    </TTGlyph>
    <TTGlyph name="Ecircumflex" xMin="112" yMin="0" xMax="494" yMax="791">
      <contour>
        <pt x="295" y="791" on="1"/>
        <pt x="316" y="791" on="1"/>
        <pt x="440" y="694" on="1"/>
        <pt x="407" y="656" on="1"/>
        <pt x="303" y="727" on="1"/>
        <pt x="192" y="658" on="1"/>
        <pt x="163" y="692" on="1"/>
      </contour>
      <contour>
        <pt x="494" y="624" on="1"/>
        <pt x="494" y="562" on="1"/>
        <pt x="178" y="562" on="1"/>
        <pt x="178" y="357" on="1"/>
        <pt x="439" y="357" on="1"/>
        <pt x="439" y="293" on="1"/>
        <pt x="178" y="293" on="1"/>
        <pt x="178" y="62" on="1"/>
        <pt x="491" y="62" on="1"/>
        <pt x="491" y="0" on="1"/>
        <pt x="112" y="0" on="1"/>
        <pt x="112" y="624" on="1"/>
      </contour>
    </TTGlyph>
    <TTGlyph name="Edieresis" xMin="112" yMin="0" xMax="494" yMax="789">
      <contour>
        <pt x="262" y="759" on="0"/>
        <pt x="262" y="717" on="0"/>
        <pt x="232" y="688" on="0"/>
        <pt x="211" y="688" on="1"/>
        <pt x="191" y="688" on="0"/>
        <pt x="161" y="717" on="0"/>
        <pt x="161" y="759" on="0"/>
        <pt x="190" y="789" on="0"/>
        <pt x="232" y="789" on="0"/>
      </contour>
      <contour>
        <pt x="440" y="759" on="0"/>
        <pt x="440" y="717" on="0"/>
        <pt x="410" y="688" on="0"/>
        <pt x="390" y="688" on="1"/>
        <pt x="369" y="688" on="0"/>
        <pt x="340" y="717" on="0"/>
        <pt x="340" y="759" on="0"/>
        <pt x="369" y="789" on="0"/>
        <pt x="390" y="789" on="1"/>
        <pt x="410" y="789" on="0"/>
      </contour>
      <contour>
        <pt x="494" y="624" on="1"/>
        <pt x="494" y="562" on="1"/>
        <pt x="178" y="562" on="1"/>
        <pt x="178" y="357" on="1"/>
        <pt x="439" y="357" on="1"/>
        <pt x="439" y="293" on="1"/>
        <pt x="178" y="293" on="1"/>
        <pt x="178" y="62" on="1"/>
        <pt x="491" y="62" on="1"/>
        <pt x="491" y="0" on="1"/>
        <pt x="112" y="0" on="1"/>
        <pt x="112" y="624" on="1"/>
      </contour>
    </TTGlyph>
    <TTGlyph name="Egrave" xMin="112" yMin="0" xMax="494" yMax="791">
      <contour>
        <pt x="387" y="702" on="1"/>
        <pt x="364" y="660" on="1"/>
        <pt x="195" y="721" on="1"/>
        <pt x="234" y="791" on="1"/>
      </contour>
      <contour>
        <pt x="494" y="624" on="1"/>
        <pt x="494" y="562" on="1"/>
        <pt x="178" y="562" on="1"/>
        <pt x="178" y="357" on="1"/>
        <pt x="439" y="357" on="1"/>
        <pt x="439" y="293" on="1"/>
        <pt x="178" y="293" on="1"/>
        <pt x="178" y="62" on="1"/>
        <pt x="491" y="62" on="1"/>
        <pt x="491" y="0" on="1"/>
        <pt x="112" y="0" on="1"/>
        <pt x="112" y="624" on="1"/>
      </contour>
    </TTGlyph>
    <TTGlyph name="Eng" xMin="83" yMin="-11" xMax="481" yMax="634">
      <contour>
        <pt x="83" y="623" on="1"/>
        <pt x="156" y="623" on="1"/>
        <pt x="156" y="542" on="1"/>
        <pt x="183" y="584" on="0"/>
        <pt x="270" y="634" on="0"/>
        <pt x="318" y="634" on="1"/>
        <pt x="365" y="634" on="0"/>
        <pt x="443" y="586" on="0"/>
        <pt x="462" y="543" on="1"/>
        <pt x="481" y="501" on="0"/>
        <pt x="481" y="424" on="1"/>
        <pt x="481" y="175" on="1"/>
        <pt x="481" y="108" on="0"/>
        <pt x="464" y="72" on="1"/>
        <pt x="445" y="33" on="0"/>
        <pt x="373" y="-11" on="0"/>
        <pt x="329" y="-11" on="1"/>
        <pt x="284" y="-11" on="0"/>
        <pt x="242" y="14" on="1"/>
        <pt x="277" y="76" on="1"/>
        <pt x="280" y="74" on="0"/>
        <pt x="286" y="65" on="0"/>
        <pt x="288" y="64" on="1"/>
        <pt x="312" y="52" on="0"/>
        <pt x="332" y="52" on="1"/>
        <pt x="379" y="52" on="0"/>
        <pt x="399" y="96" on="1"/>
        <pt x="410" y="119" on="0"/>
        <pt x="410" y="170" on="1"/>
        <pt x="410" y="422" on="1"/>
        <pt x="410" y="487" on="0"/>
        <pt x="395" y="516" on="1"/>
        <pt x="367" y="571" on="0"/>
        <pt x="306" y="571" on="1"/>
        <pt x="269" y="571" on="0"/>
        <pt x="197" y="525" on="0"/>
        <pt x="179" y="498" on="1"/>
        <pt x="156" y="464" on="0"/>
        <pt x="156" y="413" on="1"/>
        <pt x="156" y="0" on="1"/>
        <pt x="83" y="0" on="1"/>
      </contour>
    </TTGlyph>
    <TTGlyph name="Eogonek" xMin="112" yMin="-176" xMax="494" yMax="624">
      <contour>
        <pt x="494" y="624" on="1"/>
        <pt x="494" y="562" on="1"/>
        <pt x="178" y="562" on="1"/>
        <pt x="178" y="357" on="1"/>
        <pt x="439" y="357" on="1"/>
        <pt x="439" y="293" on="1"/>
        <pt x="178" y="293" on="1"/>
        <pt x="178" y="62" on="1"/>
        <pt x="491" y="62" on="1"/>
        <pt x="491" y="0" on="1"/>
        <pt x="490" y="0" on="1"/>
        <pt x="444" y="-40" on="0"/>
        <pt x="423" y="-67" on="1"/>
        <pt x="406" y="-86" on="0"/>
        <pt x="406" y="-102" on="1"/>
        <pt x="406" y="-114" on="0"/>
        <pt x="422" y="-130" on="0"/>
        <pt x="435" y="-130" on="1"/>
        <pt x="447" y="-130" on="0"/>
        <pt x="459" y="-125" on="1"/>
        <pt x="478" y="-118" on="0"/>
        <pt x="491" y="-107" on="1"/>
        <pt x="491" y="-153" on="1"/>
        <pt x="465" y="-176" on="0"/>
        <pt x="422" y="-176" on="1"/>
        <pt x="385" y="-176" on="0"/>
        <pt x="344" y="-141" on="0"/>
        <pt x="344" y="-115" on="1"/>
        <pt x="344" y="-65" on="0"/>
        <pt x="423" y="0" on="1"/>
        <pt x="112" y="0" on="1"/>
        <pt x="112" y="624" on="1"/>
      </contour>
    </TTGlyph>
    <TTGlyph name="Eth" xMin="55" yMin="-1" xMax="491" yMax="623">
      <contour>
        <pt x="243" y="623" on="1"/>
        <pt x="334" y="623" on="0"/>
        <pt x="384" y="586" on="1"/>
        <pt x="437" y="547" on="0"/>
        <pt x="491" y="400" on="0"/>
        <pt x="491" y="315" on="1"/>
        <pt x="491" y="212" on="0"/>
        <pt x="414" y="51" on="0"/>
        <pt x="344" y="18" on="1"/>
        <pt x="302" y="-1" on="0"/>
        <pt x="231" y="-1" on="1"/>
        <pt x="104" y="-1" on="1"/>
        <pt x="104" y="301" on="1"/>
        <pt x="55" y="301" on="1"/>
        <pt x="55" y="359" on="1"/>
        <pt x="104" y="359" on="1"/>
        <pt x="104" y="623" on="1"/>
      </contour>
      <contour>
        <pt x="168" y="57" on="1"/>
        <pt x="228" y="57" on="1"/>
        <pt x="294" y="57" on="0"/>
        <pt x="332" y="83" on="1"/>
        <pt x="376" y="112" on="0"/>
        <pt x="424" y="231" on="0"/>
        <pt x="424" y="306" on="1"/>
        <pt x="424" y="433" on="0"/>
        <pt x="371" y="504" on="1"/>
        <pt x="352" y="531" on="0"/>
        <pt x="299" y="560" on="0"/>
        <pt x="266" y="564" on="0"/>
        <pt x="239" y="564" on="1"/>
        <pt x="168" y="564" on="1"/>
        <pt x="168" y="359" on="1"/>
        <pt x="273" y="359" on="1"/>
        <pt x="273" y="301" on="1"/>
        <pt x="168" y="301" on="1"/>
      </contour>
    </TTGlyph>
    <TTGlyph name="Euro" xMin="58" yMin="-11" xMax="489" yMax="628">
      <contour>
        <pt x="464" y="506" on="1"/>
        <pt x="460" y="509" on="0"/>
        <pt x="458" y="523" on="0"/>
        <pt x="456" y="526" on="1"/>
        <pt x="411" y="571" on="0"/>
        <pt x="350" y="571" on="1"/>
        <pt x="299" y="571" on="0"/>
        <pt x="209" y="505" on="0"/>
        <pt x="189" y="434" on="1"/>
        <pt x="185" y="422" on="0"/>
        <pt x="184" y="414" on="1"/>
        <pt x="431" y="414" on="1"/>
        <pt x="409" y="356" on="1"/>
        <pt x="175" y="356" on="1"/>
        <pt x="173" y="324" on="0"/>
        <pt x="173" y="297" on="1"/>
        <pt x="173" y="276" on="1"/>
        <pt x="379" y="276" on="1"/>
        <pt x="356" y="218" on="1"/>
        <pt x="179" y="218" on="1"/>
        <pt x="190" y="156" on="0"/>
        <pt x="220" y="116" on="1"/>
        <pt x="270" y="49" on="0"/>
        <pt x="352" y="49" on="1"/>
        <pt x="415" y="49" on="0"/>
        <pt x="459" y="90" on="1"/>
        <pt x="488" y="40" on="1"/>
        <pt x="430" y="-11" on="0"/>
        <pt x="348" y="-11" on="1"/>
        <pt x="314" y="-11" on="0"/>
        <pt x="247" y="10" on="0"/>
        <pt x="177" y="57" on="0"/>
        <pt x="125" y="152" on="0"/>
        <pt x="116" y="218" on="1"/>
        <pt x="58" y="218" on="1"/>
        <pt x="71" y="276" on="1"/>
        <pt x="111" y="276" on="1"/>
        <pt x="111" y="292" on="1"/>
        <pt x="111" y="314" on="0"/>
        <pt x="113" y="356" on="1"/>
        <pt x="58" y="356" on="1"/>
        <pt x="71" y="414" on="1"/>
        <pt x="122" y="414" on="1"/>
        <pt x="133" y="469" on="0"/>
        <pt x="158" y="512" on="1"/>
        <pt x="193" y="574" on="0"/>
        <pt x="300" y="628" on="0"/>
        <pt x="354" y="628" on="1"/>
        <pt x="437" y="628" on="0"/>
        <pt x="489" y="574" on="1"/>
      </contour>
    </TTGlyph>
    <TTGlyph name="F" xMin="146" yMin="0" xMax="505" yMax="624">
      <contour>
        <pt x="505" y="624" on="1"/>
        <pt x="505" y="563" on="1"/>
        <pt x="216" y="563" on="1"/>
        <pt x="216" y="367" on="1"/>
        <pt x="449" y="367" on="1"/>
        <pt x="449" y="306" on="1"/>
        <pt x="216" y="306" on="1"/>
        <pt x="216" y="0" on="1"/>
        <pt x="146" y="0" on="1"/>
        <pt x="146" y="624" on="1"/>
      </contour>
    </TTGlyph>
    <TTGlyph name="G" xMin="54" yMin="-10" xMax="478" yMax="629">
      <contour>
        <pt x="295" y="629" on="1"/>
        <pt x="353" y="629" on="0"/>
        <pt x="450" y="573" on="0"/>
        <pt x="476" y="525" on="1"/>
        <pt x="427" y="475" on="1"/>
        <pt x="422" y="478" on="0"/>
        <pt x="414" y="494" on="1"/>
        <pt x="397" y="526" on="0"/>
        <pt x="335" y="568" on="0"/>
        <pt x="295" y="568" on="1"/>
        <pt x="253" y="568" on="0"/>
        <pt x="178" y="522" on="0"/>
        <pt x="155" y="479" on="1"/>
        <pt x="123" y="420" on="0"/>
        <pt x="123" y="319" on="1"/>
        <pt x="123" y="175" on="0"/>
        <pt x="183" y="106" on="1"/>
        <pt x="230" y="52" on="0"/>
        <pt x="301" y="52" on="1"/>
        <pt x="360" y="52" on="0"/>
        <pt x="413" y="90" on="1"/>
        <pt x="413" y="238" on="1"/>
        <pt x="300" y="238" on="1"/>
        <pt x="300" y="299" on="1"/>
        <pt x="478" y="299" on="1"/>
        <pt x="478" y="55" on="1"/>
        <pt x="389" y="-10" on="0"/>
        <pt x="295" y="-10" on="1"/>
        <pt x="251" y="-10" on="0"/>
        <pt x="170" y="23" on="0"/>
        <pt x="98" y="93" on="0"/>
        <pt x="54" y="220" on="0"/>
        <pt x="54" y="304" on="1"/>
        <pt x="54" y="382" on="0"/>
        <pt x="89" y="503" on="0"/>
        <pt x="140" y="571" on="0"/>
        <pt x="209" y="615" on="0"/>
        <pt x="267" y="629" on="0"/>
      </contour>
    </TTGlyph>
    <TTGlyph name="Gbreve" xMin="54" yMin="-10" xMax="478" yMax="791">
      <contour>
        <pt x="164" y="791" on="1"/>
        <pt x="208" y="720" on="0"/>
        <pt x="276" y="720" on="1"/>
        <pt x="341" y="720" on="0"/>
        <pt x="395" y="790" on="1"/>
        <pt x="424" y="748" on="1"/>
        <pt x="365" y="668" on="0"/>
        <pt x="276" y="668" on="1"/>
        <pt x="191" y="668" on="0"/>
        <pt x="128" y="745" on="1"/>
      </contour>
      <contour>
        <pt x="295" y="629" on="1"/>
        <pt x="353" y="629" on="0"/>
        <pt x="450" y="573" on="0"/>
        <pt x="476" y="525" on="1"/>
        <pt x="427" y="475" on="1"/>
        <pt x="422" y="478" on="0"/>
        <pt x="414" y="494" on="1"/>
        <pt x="399" y="527" on="0"/>
        <pt x="335" y="568" on="0"/>
        <pt x="295" y="568" on="1"/>
        <pt x="253" y="568" on="0"/>
        <pt x="178" y="522" on="0"/>
        <pt x="155" y="479" on="1"/>
        <pt x="123" y="420" on="0"/>
        <pt x="123" y="319" on="1"/>
        <pt x="123" y="175" on="0"/>
        <pt x="183" y="106" on="1"/>
        <pt x="230" y="52" on="0"/>
        <pt x="301" y="52" on="1"/>
        <pt x="360" y="52" on="0"/>
        <pt x="413" y="90" on="1"/>
        <pt x="413" y="238" on="1"/>
        <pt x="300" y="238" on="1"/>
        <pt x="300" y="299" on="1"/>
        <pt x="478" y="299" on="1"/>
        <pt x="478" y="55" on="1"/>
        <pt x="389" y="-10" on="0"/>
        <pt x="295" y="-10" on="1"/>
        <pt x="251" y="-10" on="0"/>
        <pt x="170" y="23" on="0"/>
        <pt x="98" y="93" on="0"/>
        <pt x="54" y="220" on="0"/>
        <pt x="54" y="304" on="1"/>
        <pt x="54" y="382" on="0"/>
        <pt x="89" y="503" on="0"/>
        <pt x="140" y="571" on="0"/>
        <pt x="209" y="615" on="0"/>
        <pt x="267" y="629" on="0"/>
      </contour>
    </TTGlyph>
    <TTGlyph name="H" xMin="77" yMin="-1" xMax="471" yMax="623">
      <contour>
        <pt x="155" y="623" on="1"/>
        <pt x="156" y="622" on="0"/>
        <pt x="156" y="618" on="1"/>
        <pt x="150" y="612" on="0"/>
        <pt x="150" y="599" on="1"/>
        <pt x="150" y="356" on="1"/>
        <pt x="394" y="356" on="1"/>
        <pt x="394" y="623" on="1"/>
        <pt x="470" y="623" on="1"/>
        <pt x="471" y="622" on="0"/>
        <pt x="471" y="619" on="1"/>
        <pt x="464" y="612" on="0"/>
        <pt x="464" y="601" on="1"/>
        <pt x="464" y="-1" on="1"/>
        <pt x="393" y="-1" on="1"/>
        <pt x="393" y="297" on="1"/>
        <pt x="150" y="297" on="1"/>
        <pt x="150" y="0" on="1"/>
        <pt x="77" y="0" on="1"/>
        <pt x="77" y="623" on="1"/>
      </contour>
    </TTGlyph>
    <TTGlyph name="I" xMin="109" yMin="-1" xMax="431" yMax="623">
      <contour>
        <pt x="425" y="623" on="1"/>
        <pt x="425" y="564" on="1"/>
        <pt x="302" y="564" on="1"/>
        <pt x="302" y="57" on="1"/>
        <pt x="431" y="57" on="1"/>
        <pt x="431" y="-1" on="1"/>
        <pt x="109" y="-1" on="1"/>
        <pt x="109" y="58" on="1"/>
        <pt x="232" y="58" on="1"/>
        <pt x="232" y="564" on="1"/>
        <pt x="116" y="564" on="1"/>
        <pt x="116" y="623" on="1"/>
      </contour>
    </TTGlyph>
    <TTGlyph name="Iacute" xMin="109" yMin="-1" xMax="431" yMax="791">
      <contour>
        <pt x="393" y="721" on="1"/>
        <pt x="224" y="660" on="1"/>
        <pt x="201" y="702" on="1"/>
        <pt x="353" y="791" on="1"/>
      </contour>
      <contour>
        <pt x="425" y="623" on="1"/>
        <pt x="425" y="564" on="1"/>
        <pt x="302" y="564" on="1"/>
        <pt x="302" y="57" on="1"/>
        <pt x="431" y="57" on="1"/>
        <pt x="431" y="-1" on="1"/>
        <pt x="109" y="-1" on="1"/>
        <pt x="109" y="58" on="1"/>
        <pt x="232" y="58" on="1"/>
        <pt x="232" y="564" on="1"/>
        <pt x="116" y="564" on="1"/>
        <pt x="116" y="623" on="1"/>
      </contour>
    </TTGlyph>
    <TTGlyph name="Icircumflex" xMin="109" yMin="-1" xMax="431" yMax="791">
      <contour>
        <pt x="260" y="791" on="1"/>
        <pt x="282" y="791" on="1"/>
        <pt x="405" y="694" on="1"/>
        <pt x="372" y="656" on="1"/>
        <pt x="269" y="727" on="1"/>
        <pt x="157" y="658" on="1"/>
        <pt x="129" y="692" on="1"/>
      </contour>
      <contour>
        <pt x="425" y="623" on="1"/>
        <pt x="425" y="564" on="1"/>
        <pt x="302" y="564" on="1"/>
        <pt x="302" y="57" on="1"/>
        <pt x="431" y="57" on="1"/>
        <pt x="431" y="-1" on="1"/>
        <pt x="109" y="-1" on="1"/>
        <pt x="109" y="58" on="1"/>
        <pt x="232" y="58" on="1"/>
        <pt x="232" y="564" on="1"/>
        <pt x="116" y="564" on="1"/>
        <pt x="116" y="623" on="1"/>
      </contour>
    </TTGlyph>
    <TTGlyph name="Idieresis" xMin="109" yMin="-1" xMax="431" yMax="789">
      <contour>
        <pt x="233" y="759" on="0"/>
        <pt x="233" y="717" on="0"/>
        <pt x="204" y="688" on="0"/>
        <pt x="162" y="688" on="0"/>
        <pt x="132" y="717" on="0"/>
        <pt x="132" y="759" on="0"/>
        <pt x="162" y="789" on="0"/>
        <pt x="204" y="789" on="0"/>
      </contour>
      <contour>
        <pt x="411" y="759" on="0"/>
        <pt x="411" y="717" on="0"/>
        <pt x="382" y="688" on="0"/>
        <pt x="361" y="688" on="1"/>
        <pt x="341" y="688" on="0"/>
        <pt x="311" y="717" on="0"/>
        <pt x="311" y="759" on="0"/>
        <pt x="341" y="789" on="0"/>
        <pt x="361" y="789" on="1"/>
        <pt x="382" y="789" on="0"/>
      </contour>
      <contour>
        <pt x="425" y="623" on="1"/>
        <pt x="425" y="564" on="1"/>
        <pt x="302" y="564" on="1"/>
        <pt x="302" y="57" on="1"/>
        <pt x="431" y="57" on="1"/>
        <pt x="431" y="-1" on="1"/>
        <pt x="109" y="-1" on="1"/>
        <pt x="109" y="58" on="1"/>
        <pt x="232" y="58" on="1"/>
        <pt x="232" y="564" on="1"/>
        <pt x="116" y="564" on="1"/>
        <pt x="116" y="623" on="1"/>
      </contour>
    </TTGlyph>
    <TTGlyph name="Idotaccent" xMin="109" yMin="-1" xMax="431" yMax="791">
      <contour>
        <pt x="265" y="791" on="1"/>
        <pt x="287" y="791" on="0"/>
        <pt x="317" y="761" on="0"/>
        <pt x="317" y="719" on="0"/>
        <pt x="287" y="689" on="0"/>
        <pt x="265" y="689" on="1"/>
        <pt x="244" y="689" on="0"/>
        <pt x="214" y="719" on="0"/>
        <pt x="214" y="761" on="0"/>
        <pt x="244" y="791" on="0"/>
      </contour>
      <contour>
        <pt x="425" y="623" on="1"/>
        <pt x="425" y="564" on="1"/>
        <pt x="302" y="564" on="1"/>
        <pt x="302" y="57" on="1"/>
        <pt x="431" y="57" on="1"/>
        <pt x="431" y="-1" on="1"/>
        <pt x="109" y="-1" on="1"/>
        <pt x="109" y="58" on="1"/>
        <pt x="232" y="58" on="1"/>
        <pt x="232" y="564" on="1"/>
        <pt x="116" y="564" on="1"/>
        <pt x="116" y="623" on="1"/>
      </contour>
    </TTGlyph>
    <TTGlyph name="Igrave" xMin="109" yMin="-1" xMax="431" yMax="791">
      <contour>
        <pt x="362" y="702" on="1"/>
        <pt x="339" y="660" on="1"/>
        <pt x="170" y="721" on="1"/>
        <pt x="209" y="791" on="1"/>
      </contour>
      <contour>
        <pt x="425" y="623" on="1"/>
        <pt x="425" y="564" on="1"/>
        <pt x="302" y="564" on="1"/>
        <pt x="302" y="57" on="1"/>
        <pt x="431" y="57" on="1"/>
        <pt x="431" y="-1" on="1"/>
        <pt x="109" y="-1" on="1"/>
        <pt x="109" y="58" on="1"/>
        <pt x="232" y="58" on="1"/>
        <pt x="232" y="564" on="1"/>
        <pt x="116" y="564" on="1"/>
        <pt x="116" y="623" on="1"/>
      </contour>
    </TTGlyph>
    <TTGlyph name="J" xMin="48" yMin="-11" xMax="456" yMax="623">
      <contour>
        <pt x="456" y="623" on="1"/>
        <pt x="456" y="564" on="1"/>
        <pt x="360" y="564" on="1"/>
        <pt x="360" y="209" on="1"/>
        <pt x="360" y="120" on="0"/>
        <pt x="335" y="72" on="1"/>
        <pt x="314" y="32" on="0"/>
        <pt x="239" y="-11" on="0"/>
        <pt x="194" y="-11" on="1"/>
        <pt x="106" y="-11" on="0"/>
        <pt x="48" y="58" on="1"/>
        <pt x="95" y="115" on="1"/>
        <pt x="98" y="112" on="0"/>
        <pt x="99" y="99" on="0"/>
        <pt x="101" y="97" on="1"/>
        <pt x="104" y="93" on="0"/>
        <pt x="125" y="74" on="0"/>
        <pt x="172" y="51" on="0"/>
        <pt x="195" y="51" on="1"/>
        <pt x="242" y="51" on="0"/>
        <pt x="268" y="90" on="1"/>
        <pt x="291" y="124" on="0"/>
        <pt x="291" y="208" on="1"/>
        <pt x="291" y="564" on="1"/>
        <pt x="171" y="564" on="1"/>
        <pt x="171" y="623" on="1"/>
      </contour>
    </TTGlyph>
    <TTGlyph name="K" xMin="118" yMin="-4" xMax="547" yMax="628">
      <contour>
        <pt x="202" y="624" on="1"/>
        <pt x="202" y="622" on="0"/>
        <pt x="196" y="610" on="1"/>
        <pt x="193" y="605" on="0"/>
        <pt x="193" y="598" on="1"/>
        <pt x="193" y="336" on="1"/>
        <pt x="453" y="628" on="1"/>
        <pt x="474" y="623" on="0"/>
        <pt x="505" y="623" on="1"/>
        <pt x="531" y="623" on="1"/>
        <pt x="295" y="354" on="1"/>
        <pt x="547" y="-1" on="1"/>
        <pt x="458" y="-4" on="1"/>
        <pt x="242" y="312" on="1"/>
        <pt x="193" y="258" on="1"/>
        <pt x="193" y="0" on="1"/>
        <pt x="118" y="0" on="1"/>
        <pt x="118" y="624" on="1"/>
      </contour>
    </TTGlyph>
    <TTGlyph name="L" xMin="121" yMin="-1" xMax="494" yMax="623">
      <contour>
        <pt x="203" y="623" on="1"/>
        <pt x="204" y="615" on="0"/>
        <pt x="194" y="599" on="0"/>
        <pt x="194" y="589" on="1"/>
        <pt x="194" y="60" on="1"/>
        <pt x="494" y="60" on="1"/>
        <pt x="494" y="-1" on="1"/>
        <pt x="121" y="-1" on="1"/>
        <pt x="121" y="623" on="1"/>
      </contour>
    </TTGlyph>
    <TTGlyph name="Lacute" xMin="121" yMin="-1" xMax="494" yMax="791">
      <contour>
        <pt x="403" y="721" on="1"/>
        <pt x="234" y="660" on="1"/>
        <pt x="210" y="702" on="1"/>
        <pt x="363" y="791" on="1"/>
      </contour>
      <contour>
        <pt x="203" y="623" on="1"/>
        <pt x="204" y="615" on="0"/>
        <pt x="194" y="599" on="0"/>
        <pt x="194" y="589" on="1"/>
        <pt x="194" y="60" on="1"/>
        <pt x="494" y="60" on="1"/>
        <pt x="494" y="-1" on="1"/>
        <pt x="121" y="-1" on="1"/>
        <pt x="121" y="623" on="1"/>
      </contour>
    </TTGlyph>
    <TTGlyph name="Lcaron" xMin="121" yMin="-1" xMax="494" yMax="628">
      <contour>
        <pt x="478" y="562" on="1"/>
        <pt x="478" y="499" on="0"/>
        <pt x="393" y="411" on="1"/>
        <pt x="365" y="435" on="1"/>
        <pt x="392" y="460" on="0"/>
        <pt x="405" y="485" on="1"/>
        <pt x="417" y="503" on="0"/>
        <pt x="417" y="533" on="0"/>
        <pt x="398" y="547" on="1"/>
        <pt x="376" y="563" on="0"/>
        <pt x="376" y="582" on="1"/>
        <pt x="376" y="600" on="0"/>
        <pt x="403" y="628" on="0"/>
        <pt x="422" y="628" on="1"/>
        <pt x="445" y="628" on="0"/>
        <pt x="478" y="591" on="0"/>
      </contour>
      <contour>
        <pt x="203" y="623" on="1"/>
        <pt x="204" y="615" on="0"/>
        <pt x="194" y="599" on="0"/>
        <pt x="194" y="589" on="1"/>
        <pt x="194" y="60" on="1"/>
        <pt x="494" y="60" on="1"/>
        <pt x="494" y="-1" on="1"/>
        <pt x="121" y="-1" on="1"/>
        <pt x="121" y="623" on="1"/>
      </contour>
    </TTGlyph>
    <TTGlyph name="Lslash" xMin="68" yMin="-1" xMax="494" yMax="623">
      <contour>
        <pt x="202" y="623" on="1"/>
        <pt x="203" y="622" on="0"/>
        <pt x="203" y="620" on="1"/>
        <pt x="203" y="614" on="0"/>
        <pt x="194" y="597" on="0"/>
        <pt x="194" y="589" on="1"/>
        <pt x="194" y="328" on="1"/>
        <pt x="360" y="382" on="1"/>
        <pt x="376" y="388" on="0"/>
        <pt x="385" y="392" on="1"/>
        <pt x="385" y="328" on="1"/>
        <pt x="194" y="267" on="1"/>
        <pt x="194" y="60" on="1"/>
        <pt x="494" y="60" on="1"/>
        <pt x="494" y="-1" on="1"/>
        <pt x="121" y="-1" on="1"/>
        <pt x="121" y="243" on="1"/>
        <pt x="68" y="226" on="1"/>
        <pt x="68" y="287" on="1"/>
        <pt x="121" y="305" on="1"/>
        <pt x="121" y="623" on="1"/>
      </contour>
    </TTGlyph>
    <TTGlyph name="M" xMin="61" yMin="-1" xMax="480" yMax="624">
      <contour>
        <pt x="116" y="623" on="1"/>
        <pt x="270" y="318" on="1"/>
        <pt x="427" y="624" on="1"/>
        <pt x="480" y="624" on="1"/>
        <pt x="480" y="-1" on="1"/>
        <pt x="414" y="-1" on="1"/>
        <pt x="414" y="470" on="1"/>
        <pt x="279" y="219" on="1"/>
        <pt x="252" y="219" on="1"/>
        <pt x="126" y="467" on="1"/>
        <pt x="126" y="-1" on="1"/>
        <pt x="61" y="-1" on="1"/>
        <pt x="61" y="623" on="1"/>
      </contour>
    </TTGlyph>
    <TTGlyph name="N" xMin="70" yMin="-1" xMax="475" yMax="624">
      <contour>
        <pt x="70" y="623" on="1"/>
        <pt x="138" y="623" on="1"/>
        <pt x="400" y="161" on="1"/>
        <pt x="400" y="624" on="1"/>
        <pt x="474" y="624" on="1"/>
        <pt x="475" y="619" on="0"/>
        <pt x="467" y="603" on="0"/>
        <pt x="467" y="597" on="1"/>
        <pt x="467" y="-1" on="1"/>
        <pt x="412" y="-1" on="1"/>
        <pt x="137" y="490" on="1"/>
        <pt x="137" y="0" on="1"/>
        <pt x="70" y="0" on="1"/>
      </contour>
    </TTGlyph>
    <TTGlyph name="Nacute" xMin="70" yMin="-1" xMax="475" yMax="791">
      <contour>
        <pt x="368" y="721" on="1"/>
        <pt x="199" y="660" on="1"/>
        <pt x="175" y="702" on="1"/>
        <pt x="328" y="791" on="1"/>
      </contour>
      <contour>
        <pt x="70" y="623" on="1"/>
        <pt x="138" y="623" on="1"/>
        <pt x="400" y="161" on="1"/>
        <pt x="400" y="624" on="1"/>
        <pt x="474" y="624" on="1"/>
        <pt x="475" y="619" on="0"/>
        <pt x="467" y="603" on="0"/>
        <pt x="467" y="597" on="1"/>
        <pt x="467" y="-1" on="1"/>
        <pt x="412" y="-1" on="1"/>
        <pt x="137" y="490" on="1"/>
        <pt x="137" y="0" on="1"/>
        <pt x="70" y="0" on="1"/>
      </contour>
    </TTGlyph>
    <TTGlyph name="Ncaron" xMin="70" yMin="-1" xMax="475" yMax="791">
      <contour>
        <pt x="286" y="656" on="1"/>
        <pt x="264" y="656" on="1"/>
        <pt x="141" y="753" on="1"/>
        <pt x="174" y="791" on="1"/>
        <pt x="277" y="721" on="1"/>
        <pt x="389" y="789" on="1"/>
        <pt x="417" y="755" on="1"/>
      </contour>
      <contour>
        <pt x="70" y="623" on="1"/>
        <pt x="138" y="623" on="1"/>
        <pt x="400" y="161" on="1"/>
        <pt x="400" y="624" on="1"/>
        <pt x="474" y="624" on="1"/>
        <pt x="475" y="619" on="0"/>
        <pt x="467" y="603" on="0"/>
        <pt x="467" y="597" on="1"/>
        <pt x="467" y="-1" on="1"/>
        <pt x="412" y="-1" on="1"/>
        <pt x="137" y="490" on="1"/>
        <pt x="137" y="0" on="1"/>
        <pt x="70" y="0" on="1"/>
      </contour>
    </TTGlyph>
    <TTGlyph name="Ntilde" xMin="70" yMin="-1" xMax="475" yMax="802">
      <contour>
        <pt x="111" y="715" on="1"/>
        <pt x="166" y="802" on="0"/>
        <pt x="224" y="802" on="1"/>
        <pt x="261" y="802" on="0"/>
        <pt x="304" y="759" on="1"/>
        <pt x="334" y="727" on="0"/>
        <pt x="354" y="727" on="1"/>
        <pt x="361" y="727" on="0"/>
        <pt x="373" y="732" on="0"/>
        <pt x="385" y="744" on="0"/>
        <pt x="392" y="753" on="0"/>
        <pt x="408" y="775" on="0"/>
        <pt x="412" y="780" on="1"/>
        <pt x="449" y="740" on="1"/>
        <pt x="419" y="703" on="0"/>
        <pt x="376" y="669" on="0"/>
        <pt x="350" y="669" on="1"/>
        <pt x="325" y="669" on="0"/>
        <pt x="279" y="707" on="0"/>
        <pt x="239" y="745" on="0"/>
        <pt x="203" y="745" on="0"/>
        <pt x="176" y="718" on="0"/>
        <pt x="155" y="684" on="1"/>
      </contour>
      <contour>
        <pt x="70" y="623" on="1"/>
        <pt x="138" y="623" on="1"/>
        <pt x="400" y="161" on="1"/>
        <pt x="400" y="624" on="1"/>
        <pt x="474" y="624" on="1"/>
        <pt x="475" y="619" on="0"/>
        <pt x="467" y="603" on="0"/>
        <pt x="467" y="597" on="1"/>
        <pt x="467" y="-1" on="1"/>
        <pt x="412" y="-1" on="1"/>
        <pt x="137" y="490" on="1"/>
        <pt x="137" y="0" on="1"/>
        <pt x="70" y="0" on="1"/>
      </contour>
    </TTGlyph>
    <TTGlyph name="O" xMin="49" yMin="-10" xMax="491" yMax="630">
      <contour>
        <pt x="491" y="310" on="1"/>
        <pt x="491" y="186" on="0"/>
        <pt x="454" y="111" on="1"/>
        <pt x="425" y="51" on="0"/>
        <pt x="327" y="-10" on="0"/>
        <pt x="274" y="-10" on="1"/>
        <pt x="235" y="-10" on="0"/>
        <pt x="161" y="24" on="0"/>
        <pt x="92" y="94" on="0"/>
        <pt x="49" y="226" on="0"/>
        <pt x="49" y="400" on="0"/>
        <pt x="92" y="530" on="0"/>
        <pt x="162" y="598" on="0"/>
        <pt x="236" y="630" on="0"/>
        <pt x="274" y="630" on="1"/>
        <pt x="327" y="630" on="0"/>
        <pt x="424" y="571" on="0"/>
        <pt x="453" y="513" on="1"/>
        <pt x="491" y="438" on="0"/>
      </contour>
      <contour>
        <pt x="271" y="564" on="1"/>
        <pt x="211" y="564" on="0"/>
        <pt x="118" y="448" on="0"/>
        <pt x="118" y="322" on="1"/>
        <pt x="118" y="186" on="0"/>
        <pt x="212" y="59" on="0"/>
        <pt x="274" y="59" on="1"/>
        <pt x="309" y="59" on="0"/>
        <pt x="374" y="100" on="0"/>
        <pt x="394" y="143" on="1"/>
        <pt x="421" y="201" on="0"/>
        <pt x="421" y="301" on="1"/>
        <pt x="421" y="407" on="0"/>
        <pt x="397" y="466" on="1"/>
        <pt x="377" y="516" on="0"/>
        <pt x="308" y="564" on="0"/>
      </contour>
    </TTGlyph>
    <TTGlyph name="OE" xMin="29" yMin="-7" xMax="504" yMax="632">
      <contour>
        <pt x="273" y="624" on="1"/>
        <pt x="504" y="624" on="1"/>
        <pt x="504" y="562" on="1"/>
        <pt x="335" y="562" on="1"/>
        <pt x="335" y="357" on="1"/>
        <pt x="478" y="357" on="1"/>
        <pt x="478" y="293" on="1"/>
        <pt x="335" y="293" on="1"/>
        <pt x="335" y="62" on="1"/>
        <pt x="502" y="62" on="1"/>
        <pt x="502" y="0" on="1"/>
        <pt x="272" y="0" on="1"/>
        <pt x="272" y="31" on="1"/>
        <pt x="240" y="-7" on="0"/>
        <pt x="190" y="-7" on="1"/>
        <pt x="148" y="-7" on="0"/>
        <pt x="72" y="55" on="0"/>
        <pt x="52" y="120" on="1"/>
        <pt x="29" y="189" on="0"/>
        <pt x="29" y="312" on="1"/>
        <pt x="29" y="453" on="0"/>
        <pt x="63" y="531" on="1"/>
        <pt x="86" y="585" on="0"/>
        <pt x="155" y="632" on="0"/>
        <pt x="191" y="632" on="1"/>
        <pt x="239" y="632" on="0"/>
        <pt x="273" y="595" on="1"/>
      </contour>
      <contour>
        <pt x="93" y="324" on="1"/>
        <pt x="93" y="191" on="0"/>
        <pt x="121" y="123" on="1"/>
        <pt x="150" y="54" on="0"/>
        <pt x="199" y="54" on="1"/>
        <pt x="225" y="54" on="0"/>
        <pt x="264" y="95" on="0"/>
        <pt x="272" y="129" on="1"/>
        <pt x="272" y="485" on="1"/>
        <pt x="243" y="574" on="0"/>
        <pt x="191" y="574" on="1"/>
        <pt x="167" y="574" on="0"/>
        <pt x="126" y="534" on="0"/>
        <pt x="113" y="495" on="1"/>
        <pt x="93" y="432" on="0"/>
      </contour>
    </TTGlyph>
    <TTGlyph name="Oacute" xMin="49" yMin="-10" xMax="491" yMax="791">
      <contour>
        <pt x="385" y="721" on="1"/>
        <pt x="216" y="660" on="1"/>
        <pt x="193" y="702" on="1"/>
        <pt x="345" y="791" on="1"/>
      </contour>
      <contour>
        <pt x="491" y="310" on="1"/>
        <pt x="491" y="186" on="0"/>
        <pt x="454" y="111" on="1"/>
        <pt x="425" y="51" on="0"/>
        <pt x="327" y="-10" on="0"/>
        <pt x="274" y="-10" on="1"/>
        <pt x="235" y="-10" on="0"/>
        <pt x="161" y="24" on="0"/>
        <pt x="92" y="94" on="0"/>
        <pt x="49" y="226" on="0"/>
        <pt x="49" y="400" on="0"/>
        <pt x="92" y="530" on="0"/>
        <pt x="162" y="598" on="0"/>
        <pt x="236" y="630" on="0"/>
        <pt x="274" y="630" on="1"/>
        <pt x="327" y="630" on="0"/>
        <pt x="424" y="571" on="0"/>
        <pt x="453" y="513" on="1"/>
        <pt x="491" y="438" on="0"/>
      </contour>
      <contour>
        <pt x="271" y="564" on="1"/>
        <pt x="211" y="564" on="0"/>
        <pt x="118" y="448" on="0"/>
        <pt x="118" y="322" on="1"/>
        <pt x="118" y="186" on="0"/>
        <pt x="212" y="59" on="0"/>
        <pt x="274" y="59" on="1"/>
        <pt x="309" y="59" on="0"/>
        <pt x="374" y="100" on="0"/>
        <pt x="394" y="143" on="1"/>
        <pt x="421" y="201" on="0"/>
        <pt x="421" y="301" on="1"/>
        <pt x="421" y="407" on="0"/>
        <pt x="397" y="466" on="1"/>
        <pt x="377" y="516" on="0"/>
        <pt x="308" y="564" on="0"/>
      </contour>
    </TTGlyph>
    <TTGlyph name="Ocircumflex" xMin="49" yMin="-10" xMax="491" yMax="791">
      <contour>
        <pt x="264" y="791" on="1"/>
        <pt x="286" y="791" on="1"/>
        <pt x="409" y="694" on="1"/>
        <pt x="376" y="656" on="1"/>
        <pt x="273" y="727" on="1"/>
        <pt x="162" y="658" on="1"/>
        <pt x="133" y="692" on="1"/>
      </contour>
      <contour>
        <pt x="491" y="310" on="1"/>
        <pt x="491" y="186" on="0"/>
        <pt x="454" y="111" on="1"/>
        <pt x="425" y="51" on="0"/>
        <pt x="327" y="-10" on="0"/>
        <pt x="274" y="-10" on="1"/>
        <pt x="235" y="-10" on="0"/>
        <pt x="161" y="24" on="0"/>
        <pt x="92" y="94" on="0"/>
        <pt x="49" y="226" on="0"/>
        <pt x="49" y="400" on="0"/>
        <pt x="92" y="530" on="0"/>
        <pt x="162" y="598" on="0"/>
        <pt x="236" y="630" on="0"/>
        <pt x="274" y="630" on="1"/>
        <pt x="327" y="630" on="0"/>
        <pt x="424" y="571" on="0"/>
        <pt x="453" y="513" on="1"/>
        <pt x="491" y="438" on="0"/>
      </contour>
      <contour>
        <pt x="271" y="564" on="1"/>
        <pt x="211" y="564" on="0"/>
        <pt x="118" y="448" on="0"/>
        <pt x="118" y="322" on="1"/>
        <pt x="118" y="186" on="0"/>
        <pt x="212" y="59" on="0"/>
        <pt x="274" y="59" on="1"/>
        <pt x="354" y="59" on="0"/>
        <pt x="393" y="143" on="1"/>
        <pt x="421" y="201" on="0"/>
        <pt x="421" y="301" on="1"/>
        <pt x="421" y="407" on="0"/>
        <pt x="397" y="466" on="1"/>
        <pt x="377" y="516" on="0"/>
        <pt x="308" y="564" on="0"/>
      </contour>
    </TTGlyph>
    <TTGlyph name="Odieresis" xMin="49" yMin="-10" xMax="491" yMax="789">
      <contour>
        <pt x="229" y="759" on="0"/>
        <pt x="229" y="717" on="0"/>
        <pt x="199" y="688" on="0"/>
        <pt x="178" y="688" on="1"/>
        <pt x="158" y="688" on="0"/>
        <pt x="128" y="717" on="0"/>
        <pt x="128" y="759" on="0"/>
        <pt x="157" y="789" on="0"/>
        <pt x="199" y="789" on="0"/>
      </contour>
      <contour>
        <pt x="407" y="759" on="0"/>
        <pt x="407" y="717" on="0"/>
        <pt x="377" y="688" on="0"/>
        <pt x="357" y="688" on="1"/>
        <pt x="336" y="688" on="0"/>
        <pt x="307" y="717" on="0"/>
        <pt x="307" y="759" on="0"/>
        <pt x="336" y="789" on="0"/>
        <pt x="357" y="789" on="1"/>
        <pt x="377" y="789" on="0"/>
      </contour>
      <contour>
        <pt x="491" y="310" on="1"/>
        <pt x="491" y="186" on="0"/>
        <pt x="454" y="111" on="1"/>
        <pt x="425" y="51" on="0"/>
        <pt x="327" y="-10" on="0"/>
        <pt x="274" y="-10" on="1"/>
        <pt x="235" y="-10" on="0"/>
        <pt x="161" y="24" on="0"/>
        <pt x="92" y="94" on="0"/>
        <pt x="49" y="226" on="0"/>
        <pt x="49" y="400" on="0"/>
        <pt x="92" y="530" on="0"/>
        <pt x="162" y="598" on="0"/>
        <pt x="236" y="630" on="0"/>
        <pt x="274" y="630" on="1"/>
        <pt x="327" y="630" on="0"/>
        <pt x="424" y="571" on="0"/>
        <pt x="453" y="513" on="1"/>
        <pt x="491" y="438" on="0"/>
      </contour>
      <contour>
        <pt x="271" y="564" on="1"/>
        <pt x="211" y="564" on="0"/>
        <pt x="118" y="448" on="0"/>
        <pt x="118" y="322" on="1"/>
        <pt x="118" y="186" on="0"/>
        <pt x="212" y="59" on="0"/>
        <pt x="274" y="59" on="1"/>
        <pt x="354" y="59" on="0"/>
        <pt x="393" y="143" on="1"/>
        <pt x="421" y="201" on="0"/>
        <pt x="421" y="301" on="1"/>
        <pt x="421" y="407" on="0"/>
        <pt x="397" y="466" on="1"/>
        <pt x="377" y="516" on="0"/>
        <pt x="308" y="564" on="0"/>
      </contour>
    </TTGlyph>
    <TTGlyph name="Ograve" xMin="49" yMin="-10" xMax="491" yMax="791">
      <contour>
        <pt x="354" y="702" on="1"/>
        <pt x="331" y="660" on="1"/>
        <pt x="162" y="721" on="1"/>
        <pt x="201" y="791" on="1"/>
      </contour>
      <contour>
        <pt x="491" y="310" on="1"/>
        <pt x="491" y="186" on="0"/>
        <pt x="454" y="111" on="1"/>
        <pt x="425" y="51" on="0"/>
        <pt x="327" y="-10" on="0"/>
        <pt x="274" y="-10" on="1"/>
        <pt x="235" y="-10" on="0"/>
        <pt x="161" y="24" on="0"/>
        <pt x="92" y="94" on="0"/>
        <pt x="49" y="226" on="0"/>
        <pt x="49" y="400" on="0"/>
        <pt x="92" y="530" on="0"/>
        <pt x="162" y="598" on="0"/>
        <pt x="236" y="630" on="0"/>
        <pt x="274" y="630" on="1"/>
        <pt x="327" y="630" on="0"/>
        <pt x="424" y="571" on="0"/>
        <pt x="453" y="513" on="1"/>
        <pt x="491" y="438" on="0"/>
      </contour>
      <contour>
        <pt x="271" y="564" on="1"/>
        <pt x="211" y="564" on="0"/>
        <pt x="118" y="448" on="0"/>
        <pt x="118" y="322" on="1"/>
        <pt x="118" y="186" on="0"/>
        <pt x="212" y="59" on="0"/>
        <pt x="274" y="59" on="1"/>
        <pt x="354" y="59" on="0"/>
        <pt x="393" y="143" on="1"/>
        <pt x="421" y="201" on="0"/>
        <pt x="421" y="301" on="1"/>
        <pt x="421" y="407" on="0"/>
        <pt x="397" y="466" on="1"/>
        <pt x="377" y="516" on="0"/>
        <pt x="308" y="564" on="0"/>
      </contour>
    </TTGlyph>
    <TTGlyph name="Ohungarumlaut" xMin="49" yMin="-9" xMax="491" yMax="810">
      <contour>
        <pt x="300" y="746" on="1"/>
        <pt x="154" y="645" on="1"/>
        <pt x="122" y="686" on="1"/>
        <pt x="253" y="810" on="1"/>
      </contour>
      <contour>
        <pt x="477" y="746" on="1"/>
        <pt x="332" y="645" on="1"/>
        <pt x="300" y="686" on="1"/>
        <pt x="431" y="810" on="1"/>
      </contour>
      <contour>
        <pt x="491" y="310" on="1"/>
        <pt x="491" y="186" on="0"/>
        <pt x="454" y="111" on="1"/>
        <pt x="425" y="52" on="0"/>
        <pt x="327" y="-9" on="0"/>
        <pt x="274" y="-9" on="1"/>
        <pt x="235" y="-9" on="0"/>
        <pt x="161" y="24" on="0"/>
        <pt x="92" y="94" on="0"/>
        <pt x="49" y="226" on="0"/>
        <pt x="49" y="400" on="0"/>
        <pt x="92" y="530" on="0"/>
        <pt x="162" y="598" on="0"/>
        <pt x="236" y="630" on="0"/>
        <pt x="274" y="630" on="1"/>
        <pt x="327" y="630" on="0"/>
        <pt x="424" y="571" on="0"/>
        <pt x="453" y="513" on="1"/>
        <pt x="491" y="438" on="0"/>
      </contour>
      <contour>
        <pt x="271" y="564" on="1"/>
        <pt x="211" y="564" on="0"/>
        <pt x="118" y="448" on="0"/>
        <pt x="118" y="322" on="1"/>
        <pt x="118" y="186" on="0"/>
        <pt x="212" y="59" on="0"/>
        <pt x="274" y="59" on="1"/>
        <pt x="354" y="59" on="0"/>
        <pt x="393" y="143" on="1"/>
        <pt x="421" y="201" on="0"/>
        <pt x="421" y="301" on="1"/>
        <pt x="421" y="407" on="0"/>
        <pt x="397" y="466" on="1"/>
        <pt x="377" y="516" on="0"/>
        <pt x="308" y="564" on="0"/>
      </contour>
    </TTGlyph>
    <TTGlyph name="Oslash" xMin="49" yMin="-63" xMax="491" yMax="677">
      <contour>
        <pt x="491" y="310" on="1"/>
        <pt x="491" y="186" on="0"/>
        <pt x="454" y="111" on="1"/>
        <pt x="425" y="52" on="0"/>
        <pt x="327" y="-9" on="0"/>
        <pt x="274" y="-9" on="1"/>
        <pt x="210" y="-9" on="0"/>
        <pt x="158" y="30" on="1"/>
        <pt x="108" y="-63" on="1"/>
        <pt x="56" y="-36" on="1"/>
        <pt x="115" y="74" on="1"/>
        <pt x="49" y="159" on="0"/>
        <pt x="49" y="313" on="1"/>
        <pt x="49" y="400" on="0"/>
        <pt x="92" y="530" on="0"/>
        <pt x="162" y="598" on="0"/>
        <pt x="236" y="630" on="0"/>
        <pt x="274" y="630" on="1"/>
        <pt x="337" y="630" on="0"/>
        <pt x="389" y="590" on="1"/>
        <pt x="435" y="677" on="1"/>
        <pt x="489" y="648" on="1"/>
        <pt x="433" y="545" on="1"/>
        <pt x="445" y="529" on="0"/>
        <pt x="453" y="513" on="1"/>
        <pt x="491" y="438" on="0"/>
      </contour>
      <contour>
        <pt x="271" y="564" on="1"/>
        <pt x="211" y="564" on="0"/>
        <pt x="118" y="448" on="0"/>
        <pt x="118" y="322" on="1"/>
        <pt x="118" y="215" on="0"/>
        <pt x="152" y="145" on="1"/>
        <pt x="356" y="528" on="1"/>
        <pt x="320" y="564" on="0"/>
      </contour>
      <contour>
        <pt x="191" y="92" on="1"/>
        <pt x="228" y="59" on="0"/>
        <pt x="274" y="59" on="1"/>
        <pt x="354" y="59" on="0"/>
        <pt x="393" y="143" on="1"/>
        <pt x="421" y="201" on="0"/>
        <pt x="421" y="301" on="1"/>
        <pt x="421" y="407" on="0"/>
        <pt x="397" y="466" on="1"/>
        <pt x="394" y="472" on="1"/>
      </contour>
    </TTGlyph>
    <TTGlyph name="Otilde" xMin="49" yMin="-9" xMax="491" yMax="802">
      <contour>
        <pt x="111" y="715" on="1"/>
        <pt x="166" y="802" on="0"/>
        <pt x="224" y="802" on="1"/>
        <pt x="261" y="802" on="0"/>
        <pt x="304" y="759" on="1"/>
        <pt x="334" y="727" on="0"/>
        <pt x="354" y="727" on="1"/>
        <pt x="361" y="727" on="0"/>
        <pt x="373" y="732" on="0"/>
        <pt x="385" y="744" on="0"/>
        <pt x="392" y="753" on="0"/>
        <pt x="408" y="775" on="0"/>
        <pt x="412" y="780" on="1"/>
        <pt x="449" y="740" on="1"/>
        <pt x="419" y="703" on="0"/>
        <pt x="376" y="669" on="0"/>
        <pt x="350" y="669" on="1"/>
        <pt x="325" y="669" on="0"/>
        <pt x="279" y="707" on="0"/>
        <pt x="239" y="745" on="0"/>
        <pt x="203" y="745" on="0"/>
        <pt x="176" y="718" on="0"/>
        <pt x="155" y="684" on="1"/>
      </contour>
      <contour>
        <pt x="491" y="310" on="1"/>
        <pt x="491" y="186" on="0"/>
        <pt x="454" y="111" on="1"/>
        <pt x="425" y="52" on="0"/>
        <pt x="327" y="-9" on="0"/>
        <pt x="274" y="-9" on="1"/>
        <pt x="235" y="-9" on="0"/>
        <pt x="161" y="24" on="0"/>
        <pt x="92" y="94" on="0"/>
        <pt x="49" y="226" on="0"/>
        <pt x="49" y="400" on="0"/>
        <pt x="92" y="530" on="0"/>
        <pt x="162" y="598" on="0"/>
        <pt x="236" y="630" on="0"/>
        <pt x="274" y="630" on="1"/>
        <pt x="327" y="630" on="0"/>
        <pt x="424" y="571" on="0"/>
        <pt x="453" y="513" on="1"/>
        <pt x="491" y="438" on="0"/>
      </contour>
      <contour>
        <pt x="271" y="564" on="1"/>
        <pt x="211" y="564" on="0"/>
        <pt x="118" y="448" on="0"/>
        <pt x="118" y="322" on="1"/>
        <pt x="118" y="186" on="0"/>
        <pt x="212" y="59" on="0"/>
        <pt x="274" y="59" on="1"/>
        <pt x="354" y="59" on="0"/>
        <pt x="393" y="143" on="1"/>
        <pt x="421" y="201" on="0"/>
        <pt x="421" y="301" on="1"/>
        <pt x="421" y="407" on="0"/>
        <pt x="397" y="466" on="1"/>
        <pt x="377" y="516" on="0"/>
        <pt x="308" y="564" on="0"/>
      </contour>
    </TTGlyph>
    <TTGlyph name="P" xMin="114" yMin="0" xMax="511" yMax="623">
      <contour>
        <pt x="304" y="623" on="1"/>
        <pt x="380" y="623" on="0"/>
        <pt x="421" y="602" on="1"/>
        <pt x="464" y="580" on="0"/>
        <pt x="511" y="497" on="0"/>
        <pt x="511" y="399" on="0"/>
        <pt x="465" y="318" on="0"/>
        <pt x="423" y="296" on="1"/>
        <pt x="383" y="275" on="0"/>
        <pt x="309" y="275" on="1"/>
        <pt x="186" y="275" on="1"/>
        <pt x="186" y="0" on="1"/>
        <pt x="114" y="0" on="1"/>
        <pt x="114" y="623" on="1"/>
      </contour>
      <contour>
        <pt x="185" y="337" on="1"/>
        <pt x="311" y="337" on="1"/>
        <pt x="362" y="337" on="0"/>
        <pt x="384" y="349" on="1"/>
        <pt x="439" y="378" on="0"/>
        <pt x="439" y="444" on="1"/>
        <pt x="439" y="513" on="0"/>
        <pt x="380" y="544" on="1"/>
        <pt x="353" y="558" on="0"/>
        <pt x="304" y="558" on="1"/>
        <pt x="186" y="558" on="1"/>
      </contour>
    </TTGlyph>
    <TTGlyph name="Q" xMin="49" yMin="-145" xMax="491" yMax="630">
      <contour>
        <pt x="491" y="309" on="1"/>
        <pt x="491" y="185" on="0"/>
        <pt x="454" y="110" on="1"/>
        <pt x="406" y="12" on="0"/>
        <pt x="307" y="-7" on="1"/>
        <pt x="311" y="-82" on="0"/>
        <pt x="381" y="-82" on="1"/>
        <pt x="392" y="-82" on="0"/>
        <pt x="446" y="-77" on="0"/>
        <pt x="462" y="-77" on="1"/>
        <pt x="460" y="-145" on="1"/>
        <pt x="434" y="-145" on="0"/>
        <pt x="388" y="-145" on="0"/>
        <pt x="353" y="-144" on="0"/>
        <pt x="320" y="-137" on="0"/>
        <pt x="306" y="-130" on="1"/>
        <pt x="244" y="-99" on="0"/>
        <pt x="246" y="-7" on="1"/>
        <pt x="209" y="-1" on="0"/>
        <pt x="143" y="38" on="0"/>
        <pt x="84" y="110" on="0"/>
        <pt x="49" y="233" on="0"/>
        <pt x="49" y="312" on="1"/>
        <pt x="49" y="399" on="0"/>
        <pt x="92" y="530" on="0"/>
        <pt x="162" y="598" on="0"/>
        <pt x="236" y="630" on="0"/>
        <pt x="274" y="630" on="1"/>
        <pt x="328" y="630" on="0"/>
        <pt x="424" y="569" on="0"/>
        <pt x="454" y="511" on="1"/>
        <pt x="491" y="437" on="0"/>
      </contour>
      <contour>
        <pt x="271" y="566" on="1"/>
        <pt x="210" y="566" on="0"/>
        <pt x="117" y="448" on="0"/>
        <pt x="117" y="323" on="1"/>
        <pt x="117" y="187" on="0"/>
        <pt x="212" y="55" on="0"/>
        <pt x="275" y="55" on="1"/>
        <pt x="298" y="55" on="0"/>
        <pt x="344" y="75" on="0"/>
        <pt x="393" y="124" on="0"/>
        <pt x="424" y="228" on="0"/>
        <pt x="424" y="301" on="1"/>
        <pt x="424" y="404" on="0"/>
        <pt x="399" y="467" on="1"/>
        <pt x="377" y="518" on="0"/>
        <pt x="308" y="566" on="0"/>
      </contour>
    </TTGlyph>
    <TTGlyph name="R" xMin="104" yMin="0" xMax="512" yMax="623">
      <contour>
        <pt x="288" y="623" on="1"/>
        <pt x="366" y="623" on="0"/>
        <pt x="407" y="602" on="1"/>
        <pt x="449" y="581" on="0"/>
        <pt x="495" y="500" on="0"/>
        <pt x="495" y="452" on="1"/>
        <pt x="495" y="390" on="0"/>
        <pt x="425" y="294" on="0"/>
        <pt x="368" y="278" on="1"/>
        <pt x="512" y="0" on="1"/>
        <pt x="434" y="0" on="1"/>
        <pt x="296" y="275" on="1"/>
        <pt x="175" y="275" on="1"/>
        <pt x="175" y="0" on="1"/>
        <pt x="104" y="0" on="1"/>
        <pt x="104" y="623" on="1"/>
      </contour>
      <contour>
        <pt x="175" y="337" on="1"/>
        <pt x="296" y="337" on="1"/>
        <pt x="346" y="337" on="0"/>
        <pt x="368" y="349" on="1"/>
        <pt x="423" y="378" on="0"/>
        <pt x="423" y="444" on="1"/>
        <pt x="423" y="513" on="0"/>
        <pt x="364" y="544" on="1"/>
        <pt x="337" y="558" on="0"/>
        <pt x="288" y="558" on="1"/>
        <pt x="175" y="558" on="1"/>
      </contour>
    </TTGlyph>
    <TTGlyph name="Racute" xMin="104" yMin="0" xMax="512" yMax="791">
      <contour>
        <pt x="396" y="721" on="1"/>
        <pt x="227" y="660" on="1"/>
        <pt x="203" y="702" on="1"/>
        <pt x="356" y="791" on="1"/>
      </contour>
      <contour>
        <pt x="288" y="623" on="1"/>
        <pt x="366" y="623" on="0"/>
        <pt x="407" y="602" on="1"/>
        <pt x="449" y="581" on="0"/>
        <pt x="495" y="500" on="0"/>
        <pt x="495" y="452" on="1"/>
        <pt x="495" y="390" on="0"/>
        <pt x="425" y="294" on="0"/>
        <pt x="368" y="278" on="1"/>
        <pt x="512" y="0" on="1"/>
        <pt x="434" y="0" on="1"/>
        <pt x="296" y="275" on="1"/>
        <pt x="175" y="275" on="1"/>
        <pt x="175" y="0" on="1"/>
        <pt x="104" y="0" on="1"/>
        <pt x="104" y="623" on="1"/>
      </contour>
      <contour>
        <pt x="175" y="337" on="1"/>
        <pt x="296" y="337" on="1"/>
        <pt x="344" y="337" on="0"/>
        <pt x="368" y="349" on="1"/>
        <pt x="423" y="378" on="0"/>
        <pt x="423" y="444" on="1"/>
        <pt x="423" y="515" on="0"/>
        <pt x="364" y="544" on="1"/>
        <pt x="337" y="558" on="0"/>
        <pt x="288" y="558" on="1"/>
        <pt x="175" y="558" on="1"/>
      </contour>
    </TTGlyph>
    <TTGlyph name="Rcaron" xMin="104" yMin="0" xMax="512" yMax="791">
      <contour>
        <pt x="314" y="656" on="1"/>
        <pt x="292" y="656" on="1"/>
        <pt x="169" y="753" on="1"/>
        <pt x="202" y="791" on="1"/>
        <pt x="305" y="721" on="1"/>
        <pt x="417" y="789" on="1"/>
        <pt x="445" y="755" on="1"/>
      </contour>
      <contour>
        <pt x="288" y="623" on="1"/>
        <pt x="366" y="623" on="0"/>
        <pt x="407" y="602" on="1"/>
        <pt x="449" y="581" on="0"/>
        <pt x="495" y="500" on="0"/>
        <pt x="495" y="452" on="1"/>
        <pt x="495" y="390" on="0"/>
        <pt x="425" y="294" on="0"/>
        <pt x="368" y="278" on="1"/>
        <pt x="512" y="0" on="1"/>
        <pt x="434" y="0" on="1"/>
        <pt x="296" y="275" on="1"/>
        <pt x="175" y="275" on="1"/>
        <pt x="175" y="0" on="1"/>
        <pt x="104" y="0" on="1"/>
        <pt x="104" y="623" on="1"/>
      </contour>
      <contour>
        <pt x="175" y="337" on="1"/>
        <pt x="296" y="337" on="1"/>
        <pt x="344" y="337" on="0"/>
        <pt x="368" y="349" on="1"/>
        <pt x="423" y="378" on="0"/>
        <pt x="423" y="444" on="1"/>
        <pt x="423" y="515" on="0"/>
        <pt x="364" y="544" on="1"/>
        <pt x="337" y="558" on="0"/>
        <pt x="288" y="558" on="1"/>
        <pt x="175" y="558" on="1"/>
      </contour>
    </TTGlyph>
    <TTGlyph name="S" xMin="72" yMin="-10" xMax="475" yMax="627">
      <contour>
        <pt x="411" y="489" on="1"/>
        <pt x="406" y="492" on="0"/>
        <pt x="406" y="498" on="1"/>
        <pt x="406" y="503" on="0"/>
        <pt x="403" y="507" on="1"/>
        <pt x="357" y="569" on="0"/>
        <pt x="277" y="569" on="1"/>
        <pt x="225" y="569" on="0"/>
        <pt x="164" y="515" on="0"/>
        <pt x="164" y="478" on="1"/>
        <pt x="164" y="423" on="0"/>
        <pt x="228" y="385" on="1"/>
        <pt x="244" y="376" on="0"/>
        <pt x="395" y="312" on="0"/>
        <pt x="427" y="282" on="1"/>
        <pt x="475" y="238" on="0"/>
        <pt x="475" y="170" on="1"/>
        <pt x="475" y="100" on="0"/>
        <pt x="371" y="-10" on="0"/>
        <pt x="267" y="-10" on="1"/>
        <pt x="146" y="-10" on="0"/>
        <pt x="72" y="70" on="1"/>
        <pt x="113" y="142" on="1"/>
        <pt x="118" y="139" on="0"/>
        <pt x="118" y="125" on="0"/>
        <pt x="121" y="121" on="1"/>
        <pt x="143" y="92" on="0"/>
        <pt x="221" y="53" on="0"/>
        <pt x="269" y="53" on="1"/>
        <pt x="333" y="53" on="0"/>
        <pt x="406" y="121" on="0"/>
        <pt x="406" y="166" on="1"/>
        <pt x="406" y="220" on="0"/>
        <pt x="353" y="252" on="1"/>
        <pt x="335" y="263" on="0"/>
        <pt x="191" y="322" on="0"/>
        <pt x="159" y="345" on="1"/>
        <pt x="92" y="395" on="0"/>
        <pt x="92" y="467" on="1"/>
        <pt x="92" y="532" on="0"/>
        <pt x="200" y="627" on="0"/>
        <pt x="282" y="627" on="1"/>
        <pt x="389" y="627" on="0"/>
        <pt x="455" y="549" on="1"/>
      </contour>
    </TTGlyph>
    <TTGlyph name="Sacute" xMin="72" yMin="-10" xMax="475" yMax="791">
      <contour>
        <pt x="368" y="721" on="1"/>
        <pt x="199" y="660" on="1"/>
        <pt x="175" y="702" on="1"/>
        <pt x="328" y="791" on="1"/>
      </contour>
      <contour>
        <pt x="411" y="489" on="1"/>
        <pt x="406" y="492" on="0"/>
        <pt x="406" y="498" on="1"/>
        <pt x="406" y="503" on="0"/>
        <pt x="403" y="507" on="1"/>
        <pt x="360" y="569" on="0"/>
        <pt x="277" y="569" on="1"/>
        <pt x="225" y="569" on="0"/>
        <pt x="164" y="515" on="0"/>
        <pt x="164" y="478" on="1"/>
        <pt x="164" y="422" on="0"/>
        <pt x="228" y="385" on="1"/>
        <pt x="243" y="376" on="0"/>
        <pt x="396" y="312" on="0"/>
        <pt x="427" y="282" on="1"/>
        <pt x="475" y="238" on="0"/>
        <pt x="475" y="170" on="1"/>
        <pt x="475" y="100" on="0"/>
        <pt x="371" y="-10" on="0"/>
        <pt x="267" y="-10" on="1"/>
        <pt x="146" y="-10" on="0"/>
        <pt x="72" y="70" on="1"/>
        <pt x="113" y="142" on="1"/>
        <pt x="118" y="139" on="0"/>
        <pt x="118" y="132" on="1"/>
        <pt x="118" y="124" on="0"/>
        <pt x="121" y="121" on="1"/>
        <pt x="143" y="92" on="0"/>
        <pt x="221" y="53" on="0"/>
        <pt x="269" y="53" on="1"/>
        <pt x="333" y="53" on="0"/>
        <pt x="406" y="121" on="0"/>
        <pt x="406" y="166" on="1"/>
        <pt x="406" y="218" on="0"/>
        <pt x="353" y="252" on="1"/>
        <pt x="335" y="263" on="0"/>
        <pt x="191" y="322" on="0"/>
        <pt x="159" y="345" on="1"/>
        <pt x="92" y="395" on="0"/>
        <pt x="92" y="467" on="1"/>
        <pt x="92" y="532" on="0"/>
        <pt x="200" y="627" on="0"/>
        <pt x="282" y="627" on="1"/>
        <pt x="389" y="627" on="0"/>
        <pt x="455" y="549" on="1"/>
      </contour>
    </TTGlyph>
    <TTGlyph name="Scaron" xMin="72" yMin="-10" xMax="475" yMax="791">
      <contour>
        <pt x="291" y="656" on="1"/>
        <pt x="269" y="656" on="1"/>
        <pt x="146" y="753" on="1"/>
        <pt x="179" y="791" on="1"/>
        <pt x="282" y="721" on="1"/>
        <pt x="394" y="789" on="1"/>
        <pt x="422" y="755" on="1"/>
      </contour>
      <contour>
        <pt x="411" y="489" on="1"/>
        <pt x="406" y="492" on="0"/>
        <pt x="406" y="498" on="1"/>
        <pt x="406" y="503" on="0"/>
        <pt x="403" y="507" on="1"/>
        <pt x="360" y="569" on="0"/>
        <pt x="277" y="569" on="1"/>
        <pt x="225" y="569" on="0"/>
        <pt x="164" y="515" on="0"/>
        <pt x="164" y="478" on="1"/>
        <pt x="164" y="422" on="0"/>
        <pt x="228" y="385" on="1"/>
        <pt x="244" y="375" on="0"/>
        <pt x="396" y="313" on="0"/>
        <pt x="427" y="283" on="1"/>
        <pt x="475" y="237" on="0"/>
        <pt x="475" y="170" on="1"/>
        <pt x="475" y="100" on="0"/>
        <pt x="371" y="-10" on="0"/>
        <pt x="267" y="-10" on="1"/>
        <pt x="146" y="-10" on="0"/>
        <pt x="72" y="70" on="1"/>
        <pt x="113" y="142" on="1"/>
        <pt x="118" y="139" on="0"/>
        <pt x="118" y="132" on="1"/>
        <pt x="118" y="124" on="0"/>
        <pt x="121" y="121" on="1"/>
        <pt x="143" y="92" on="0"/>
        <pt x="222" y="53" on="0"/>
        <pt x="270" y="53" on="1"/>
        <pt x="334" y="53" on="0"/>
        <pt x="406" y="121" on="0"/>
        <pt x="406" y="166" on="1"/>
        <pt x="406" y="218" on="0"/>
        <pt x="353" y="252" on="1"/>
        <pt x="335" y="263" on="0"/>
        <pt x="191" y="322" on="0"/>
        <pt x="159" y="345" on="1"/>
        <pt x="92" y="395" on="0"/>
        <pt x="92" y="467" on="1"/>
        <pt x="92" y="532" on="0"/>
        <pt x="200" y="627" on="0"/>
        <pt x="282" y="627" on="1"/>
        <pt x="389" y="627" on="0"/>
        <pt x="455" y="549" on="1"/>
      </contour>
    </TTGlyph>
    <TTGlyph name="Scedilla" xMin="72" yMin="-177" xMax="475" yMax="627">
      <contour>
        <pt x="411" y="489" on="1"/>
        <pt x="406" y="492" on="0"/>
        <pt x="406" y="498" on="1"/>
        <pt x="406" y="503" on="0"/>
        <pt x="403" y="507" on="1"/>
        <pt x="360" y="569" on="0"/>
        <pt x="277" y="569" on="1"/>
        <pt x="225" y="569" on="0"/>
        <pt x="164" y="515" on="0"/>
        <pt x="164" y="478" on="1"/>
        <pt x="164" y="422" on="0"/>
        <pt x="228" y="385" on="1"/>
        <pt x="243" y="376" on="0"/>
        <pt x="396" y="312" on="0"/>
        <pt x="427" y="282" on="1"/>
        <pt x="475" y="238" on="0"/>
        <pt x="475" y="170" on="1"/>
        <pt x="475" y="106" on="0"/>
        <pt x="384" y="-2" on="0"/>
        <pt x="292" y="-10" on="1"/>
        <pt x="288" y="-47" on="1"/>
        <pt x="304" y="-48" on="1"/>
        <pt x="330" y="-50" on="0"/>
        <pt x="343" y="-56" on="1"/>
        <pt x="372" y="-70" on="0"/>
        <pt x="372" y="-103" on="1"/>
        <pt x="372" y="-132" on="0"/>
        <pt x="315" y="-177" on="0"/>
        <pt x="264" y="-177" on="1"/>
        <pt x="198" y="-177" on="0"/>
        <pt x="145" y="-140" on="1"/>
        <pt x="170" y="-98" on="1"/>
        <pt x="214" y="-134" on="0"/>
        <pt x="269" y="-134" on="1"/>
        <pt x="315" y="-134" on="0"/>
        <pt x="315" y="-109" on="1"/>
        <pt x="315" y="-99" on="0"/>
        <pt x="293" y="-85" on="0"/>
        <pt x="268" y="-85" on="1"/>
        <pt x="238" y="-85" on="1"/>
        <pt x="248" y="-10" on="1"/>
        <pt x="140" y="-4" on="0"/>
        <pt x="72" y="70" on="1"/>
        <pt x="113" y="142" on="1"/>
        <pt x="118" y="139" on="0"/>
        <pt x="118" y="132" on="1"/>
        <pt x="118" y="124" on="0"/>
        <pt x="121" y="121" on="1"/>
        <pt x="143" y="92" on="0"/>
        <pt x="221" y="53" on="0"/>
        <pt x="269" y="53" on="1"/>
        <pt x="333" y="53" on="0"/>
        <pt x="406" y="121" on="0"/>
        <pt x="406" y="166" on="1"/>
        <pt x="406" y="218" on="0"/>
        <pt x="353" y="252" on="1"/>
        <pt x="335" y="263" on="0"/>
        <pt x="191" y="322" on="0"/>
        <pt x="159" y="345" on="1"/>
        <pt x="92" y="395" on="0"/>
        <pt x="92" y="467" on="1"/>
        <pt x="92" y="532" on="0"/>
        <pt x="200" y="627" on="0"/>
        <pt x="282" y="627" on="1"/>
        <pt x="389" y="627" on="0"/>
        <pt x="455" y="549" on="1"/>
      </contour>
    </TTGlyph>
    <TTGlyph name="T" xMin="54" yMin="-1" xMax="485" yMax="624">
      <contour>
        <pt x="485" y="624" on="1"/>
        <pt x="485" y="561" on="1"/>
        <pt x="305" y="561" on="1"/>
        <pt x="305" y="-1" on="1"/>
        <pt x="234" y="-1" on="1"/>
        <pt x="234" y="561" on="1"/>
        <pt x="54" y="561" on="1"/>
        <pt x="54" y="624" on="1"/>
      </contour>
    </TTGlyph>
    <TTGlyph name="Tcaron" xMin="54" yMin="-1" xMax="485" yMax="791">
      <contour>
        <pt x="292" y="656" on="1"/>
        <pt x="270" y="656" on="1"/>
        <pt x="147" y="753" on="1"/>
        <pt x="180" y="791" on="1"/>
        <pt x="283" y="721" on="1"/>
        <pt x="395" y="789" on="1"/>
        <pt x="423" y="755" on="1"/>
      </contour>
      <contour>
        <pt x="485" y="624" on="1"/>
        <pt x="485" y="561" on="1"/>
        <pt x="305" y="561" on="1"/>
        <pt x="305" y="-1" on="1"/>
        <pt x="234" y="-1" on="1"/>
        <pt x="234" y="561" on="1"/>
        <pt x="54" y="561" on="1"/>
        <pt x="54" y="624" on="1"/>
      </contour>
    </TTGlyph>
    <TTGlyph name="Thorn" xMin="89" yMin="0" xMax="486" yMax="623">
      <contour>
        <pt x="167" y="623" on="1"/>
        <pt x="168" y="622" on="0"/>
        <pt x="168" y="619" on="1"/>
        <pt x="168" y="618" on="0"/>
        <pt x="162" y="606" on="1"/>
        <pt x="159" y="600" on="0"/>
        <pt x="159" y="595" on="1"/>
        <pt x="159" y="506" on="1"/>
        <pt x="279" y="506" on="1"/>
        <pt x="355" y="506" on="0"/>
        <pt x="396" y="485" on="1"/>
        <pt x="439" y="462" on="0"/>
        <pt x="486" y="379" on="0"/>
        <pt x="486" y="330" on="1"/>
        <pt x="486" y="282" on="0"/>
        <pt x="440" y="199" on="0"/>
        <pt x="398" y="178" on="1"/>
        <pt x="358" y="158" on="0"/>
        <pt x="284" y="158" on="1"/>
        <pt x="159" y="158" on="1"/>
        <pt x="159" y="0" on="1"/>
        <pt x="89" y="0" on="1"/>
        <pt x="89" y="623" on="1"/>
      </contour>
      <contour>
        <pt x="159" y="219" on="1"/>
        <pt x="286" y="219" on="1"/>
        <pt x="333" y="219" on="0"/>
        <pt x="359" y="232" on="1"/>
        <pt x="414" y="260" on="0"/>
        <pt x="414" y="327" on="1"/>
        <pt x="414" y="397" on="0"/>
        <pt x="355" y="427" on="1"/>
        <pt x="328" y="440" on="0"/>
        <pt x="279" y="440" on="1"/>
        <pt x="159" y="440" on="1"/>
      </contour>
    </TTGlyph>
    <TTGlyph name="U" xMin="68" yMin="-11" xMax="472" yMax="623">
      <contour>
        <pt x="147" y="623" on="1"/>
        <pt x="148" y="621" on="1"/>
        <pt x="148" y="619" on="0"/>
        <pt x="148" y="618" on="1"/>
        <pt x="148" y="613" on="0"/>
        <pt x="141" y="604" on="1"/>
        <pt x="137" y="599" on="0"/>
        <pt x="137" y="591" on="1"/>
        <pt x="137" y="214" on="1"/>
        <pt x="137" y="155" on="0"/>
        <pt x="152" y="122" on="1"/>
        <pt x="168" y="87" on="0"/>
        <pt x="233" y="48" on="0"/>
        <pt x="271" y="48" on="1"/>
        <pt x="308" y="48" on="0"/>
        <pt x="372" y="86" on="0"/>
        <pt x="389" y="121" on="1"/>
        <pt x="405" y="153" on="0"/>
        <pt x="405" y="217" on="1"/>
        <pt x="405" y="623" on="1"/>
        <pt x="472" y="623" on="1"/>
        <pt x="472" y="218" on="1"/>
        <pt x="472" y="132" on="0"/>
        <pt x="447" y="86" on="1"/>
        <pt x="422" y="39" on="0"/>
        <pt x="326" y="-11" on="0"/>
        <pt x="270" y="-11" on="1"/>
        <pt x="213" y="-11" on="0"/>
        <pt x="118" y="39" on="0"/>
        <pt x="92" y="86" on="1"/>
        <pt x="68" y="130" on="0"/>
        <pt x="68" y="215" on="1"/>
        <pt x="68" y="623" on="1"/>
      </contour>
    </TTGlyph>
    <TTGlyph name="Uacute" xMin="68" yMin="-11" xMax="472" yMax="791">
      <contour>
        <pt x="383" y="721" on="1"/>
        <pt x="214" y="660" on="1"/>
        <pt x="191" y="702" on="1"/>
        <pt x="343" y="791" on="1"/>
      </contour>
      <contour>
        <pt x="147" y="623" on="1"/>
        <pt x="148" y="621" on="1"/>
        <pt x="148" y="619" on="0"/>
        <pt x="148" y="618" on="1"/>
        <pt x="148" y="613" on="0"/>
        <pt x="141" y="604" on="1"/>
        <pt x="137" y="599" on="0"/>
        <pt x="137" y="591" on="1"/>
        <pt x="137" y="214" on="1"/>
        <pt x="137" y="155" on="0"/>
        <pt x="152" y="122" on="1"/>
        <pt x="168" y="87" on="0"/>
        <pt x="233" y="48" on="0"/>
        <pt x="271" y="48" on="1"/>
        <pt x="308" y="48" on="0"/>
        <pt x="372" y="86" on="0"/>
        <pt x="389" y="121" on="1"/>
        <pt x="405" y="153" on="0"/>
        <pt x="405" y="217" on="1"/>
        <pt x="405" y="623" on="1"/>
        <pt x="472" y="623" on="1"/>
        <pt x="472" y="218" on="1"/>
        <pt x="472" y="132" on="0"/>
        <pt x="447" y="86" on="1"/>
        <pt x="422" y="39" on="0"/>
        <pt x="326" y="-11" on="0"/>
        <pt x="270" y="-11" on="1"/>
        <pt x="213" y="-11" on="0"/>
        <pt x="118" y="39" on="0"/>
        <pt x="92" y="86" on="1"/>
        <pt x="68" y="130" on="0"/>
        <pt x="68" y="215" on="1"/>
        <pt x="68" y="623" on="1"/>
      </contour>
    </TTGlyph>
    <TTGlyph name="Ucircumflex" xMin="68" yMin="-11" xMax="472" yMax="791">
      <contour>
        <pt x="262" y="791" on="1"/>
        <pt x="284" y="791" on="1"/>
        <pt x="407" y="694" on="1"/>
        <pt x="374" y="656" on="1"/>
        <pt x="271" y="727" on="1"/>
        <pt x="160" y="658" on="1"/>
        <pt x="131" y="692" on="1"/>
      </contour>
      <contour>
        <pt x="147" y="623" on="1"/>
        <pt x="147" y="622" on="0"/>
        <pt x="148" y="619" on="0"/>
        <pt x="148" y="618" on="1"/>
        <pt x="148" y="613" on="0"/>
        <pt x="141" y="604" on="1"/>
        <pt x="137" y="599" on="0"/>
        <pt x="137" y="591" on="1"/>
        <pt x="137" y="214" on="1"/>
        <pt x="137" y="155" on="0"/>
        <pt x="152" y="122" on="1"/>
        <pt x="168" y="87" on="0"/>
        <pt x="233" y="48" on="0"/>
        <pt x="271" y="48" on="1"/>
        <pt x="308" y="48" on="0"/>
        <pt x="372" y="86" on="0"/>
        <pt x="389" y="121" on="1"/>
        <pt x="405" y="153" on="0"/>
        <pt x="405" y="217" on="1"/>
        <pt x="405" y="623" on="1"/>
        <pt x="472" y="623" on="1"/>
        <pt x="472" y="218" on="1"/>
        <pt x="472" y="132" on="0"/>
        <pt x="447" y="86" on="1"/>
        <pt x="422" y="39" on="0"/>
        <pt x="326" y="-11" on="0"/>
        <pt x="270" y="-11" on="1"/>
        <pt x="213" y="-11" on="0"/>
        <pt x="118" y="39" on="0"/>
        <pt x="92" y="86" on="1"/>
        <pt x="68" y="130" on="0"/>
        <pt x="68" y="215" on="1"/>
        <pt x="68" y="623" on="1"/>
      </contour>
    </TTGlyph>
    <TTGlyph name="Udieresis" xMin="68" yMin="-11" xMax="472" yMax="789">
      <contour>
        <pt x="235" y="759" on="0"/>
        <pt x="235" y="717" on="0"/>
        <pt x="206" y="688" on="0"/>
        <pt x="164" y="688" on="0"/>
        <pt x="134" y="717" on="0"/>
        <pt x="134" y="759" on="0"/>
        <pt x="164" y="789" on="0"/>
        <pt x="206" y="789" on="0"/>
      </contour>
      <contour>
        <pt x="413" y="759" on="0"/>
        <pt x="413" y="717" on="0"/>
        <pt x="384" y="688" on="0"/>
        <pt x="363" y="688" on="1"/>
        <pt x="343" y="688" on="0"/>
        <pt x="313" y="717" on="0"/>
        <pt x="313" y="759" on="0"/>
        <pt x="343" y="789" on="0"/>
        <pt x="363" y="789" on="1"/>
        <pt x="384" y="789" on="0"/>
      </contour>
      <contour>
        <pt x="147" y="623" on="1"/>
        <pt x="147" y="622" on="0"/>
        <pt x="148" y="619" on="0"/>
        <pt x="148" y="618" on="1"/>
        <pt x="148" y="613" on="0"/>
        <pt x="141" y="604" on="1"/>
        <pt x="137" y="599" on="0"/>
        <pt x="137" y="591" on="1"/>
        <pt x="137" y="214" on="1"/>
        <pt x="137" y="155" on="0"/>
        <pt x="152" y="122" on="1"/>
        <pt x="168" y="87" on="0"/>
        <pt x="233" y="48" on="0"/>
        <pt x="271" y="48" on="1"/>
        <pt x="308" y="48" on="0"/>
        <pt x="372" y="86" on="0"/>
        <pt x="389" y="121" on="1"/>
        <pt x="405" y="153" on="0"/>
        <pt x="405" y="217" on="1"/>
        <pt x="405" y="623" on="1"/>
        <pt x="472" y="623" on="1"/>
        <pt x="472" y="218" on="1"/>
        <pt x="472" y="132" on="0"/>
        <pt x="447" y="86" on="1"/>
        <pt x="422" y="39" on="0"/>
        <pt x="326" y="-11" on="0"/>
        <pt x="270" y="-11" on="1"/>
        <pt x="213" y="-11" on="0"/>
        <pt x="118" y="39" on="0"/>
        <pt x="92" y="86" on="1"/>
        <pt x="68" y="130" on="0"/>
        <pt x="68" y="215" on="1"/>
        <pt x="68" y="623" on="1"/>
      </contour>
    </TTGlyph>
    <TTGlyph name="Ugrave" xMin="68" yMin="-11" xMax="472" yMax="791">
      <contour>
        <pt x="352" y="702" on="1"/>
        <pt x="329" y="660" on="1"/>
        <pt x="160" y="721" on="1"/>
        <pt x="199" y="791" on="1"/>
      </contour>
      <contour>
        <pt x="147" y="623" on="1"/>
        <pt x="148" y="621" on="1"/>
        <pt x="148" y="619" on="0"/>
        <pt x="148" y="618" on="1"/>
        <pt x="148" y="613" on="0"/>
        <pt x="141" y="604" on="1"/>
        <pt x="137" y="599" on="0"/>
        <pt x="137" y="591" on="1"/>
        <pt x="137" y="214" on="1"/>
        <pt x="137" y="155" on="0"/>
        <pt x="152" y="122" on="1"/>
        <pt x="168" y="87" on="0"/>
        <pt x="233" y="48" on="0"/>
        <pt x="271" y="48" on="1"/>
        <pt x="308" y="48" on="0"/>
        <pt x="372" y="86" on="0"/>
        <pt x="389" y="121" on="1"/>
        <pt x="405" y="153" on="0"/>
        <pt x="405" y="217" on="1"/>
        <pt x="405" y="623" on="1"/>
        <pt x="472" y="623" on="1"/>
        <pt x="472" y="218" on="1"/>
        <pt x="472" y="132" on="0"/>
        <pt x="447" y="86" on="1"/>
        <pt x="422" y="39" on="0"/>
        <pt x="326" y="-11" on="0"/>
        <pt x="270" y="-11" on="1"/>
        <pt x="213" y="-11" on="0"/>
        <pt x="118" y="39" on="0"/>
        <pt x="92" y="86" on="1"/>
        <pt x="68" y="130" on="0"/>
        <pt x="68" y="215" on="1"/>
        <pt x="68" y="623" on="1"/>
      </contour>
    </TTGlyph>
    <TTGlyph name="Uhungarumlaut" xMin="68" yMin="-11" xMax="475" yMax="810">
      <contour>
        <pt x="298" y="746" on="1"/>
        <pt x="152" y="645" on="1"/>
        <pt x="120" y="686" on="1"/>
        <pt x="251" y="810" on="1"/>
      </contour>
      <contour>
        <pt x="475" y="746" on="1"/>
        <pt x="330" y="645" on="1"/>
        <pt x="298" y="686" on="1"/>
        <pt x="429" y="810" on="1"/>
      </contour>
      <contour>
        <pt x="147" y="623" on="1"/>
        <pt x="148" y="621" on="1"/>
        <pt x="148" y="619" on="0"/>
        <pt x="148" y="618" on="1"/>
        <pt x="148" y="613" on="0"/>
        <pt x="141" y="604" on="1"/>
        <pt x="137" y="599" on="0"/>
        <pt x="137" y="591" on="1"/>
        <pt x="137" y="214" on="1"/>
        <pt x="137" y="155" on="0"/>
        <pt x="152" y="122" on="1"/>
        <pt x="168" y="87" on="0"/>
        <pt x="233" y="48" on="0"/>
        <pt x="271" y="48" on="1"/>
        <pt x="308" y="48" on="0"/>
        <pt x="372" y="86" on="0"/>
        <pt x="389" y="121" on="1"/>
        <pt x="405" y="153" on="0"/>
        <pt x="405" y="217" on="1"/>
        <pt x="405" y="623" on="1"/>
        <pt x="472" y="623" on="1"/>
        <pt x="472" y="218" on="1"/>
        <pt x="472" y="132" on="0"/>
        <pt x="447" y="86" on="1"/>
        <pt x="422" y="39" on="0"/>
        <pt x="326" y="-11" on="0"/>
        <pt x="270" y="-11" on="1"/>
        <pt x="213" y="-11" on="0"/>
        <pt x="118" y="39" on="0"/>
        <pt x="92" y="86" on="1"/>
        <pt x="68" y="130" on="0"/>
        <pt x="68" y="215" on="1"/>
        <pt x="68" y="623" on="1"/>
      </contour>
    </TTGlyph>
    <TTGlyph name="Uring" xMin="68" yMin="-11" xMax="472" yMax="795">
      <contour>
        <pt x="362" y="743" on="0"/>
        <pt x="362" y="671" on="0"/>
        <pt x="309" y="619" on="0"/>
        <pt x="233" y="619" on="0"/>
        <pt x="179" y="671" on="0"/>
        <pt x="179" y="743" on="0"/>
        <pt x="233" y="795" on="0"/>
        <pt x="309" y="795" on="0"/>
      </contour>
      <contour>
        <pt x="230" y="707" on="1"/>
        <pt x="230" y="688" on="0"/>
        <pt x="255" y="662" on="0"/>
        <pt x="289" y="662" on="0"/>
        <pt x="313" y="689" on="0"/>
        <pt x="313" y="727" on="0"/>
        <pt x="289" y="753" on="0"/>
        <pt x="272" y="753" on="1"/>
        <pt x="254" y="753" on="0"/>
        <pt x="230" y="727" on="0"/>
      </contour>
      <contour>
        <pt x="147" y="623" on="1"/>
        <pt x="147" y="622" on="0"/>
        <pt x="148" y="619" on="0"/>
        <pt x="148" y="618" on="1"/>
        <pt x="148" y="613" on="0"/>
        <pt x="141" y="604" on="1"/>
        <pt x="137" y="599" on="0"/>
        <pt x="137" y="591" on="1"/>
        <pt x="137" y="214" on="1"/>
        <pt x="137" y="155" on="0"/>
        <pt x="152" y="122" on="1"/>
        <pt x="168" y="87" on="0"/>
        <pt x="233" y="48" on="0"/>
        <pt x="271" y="48" on="1"/>
        <pt x="308" y="48" on="0"/>
        <pt x="372" y="86" on="0"/>
        <pt x="389" y="121" on="1"/>
        <pt x="405" y="153" on="0"/>
        <pt x="405" y="217" on="1"/>
        <pt x="405" y="623" on="1"/>
        <pt x="472" y="623" on="1"/>
        <pt x="472" y="218" on="1"/>
        <pt x="472" y="132" on="0"/>
        <pt x="447" y="86" on="1"/>
        <pt x="422" y="39" on="0"/>
        <pt x="326" y="-11" on="0"/>
        <pt x="270" y="-11" on="1"/>
        <pt x="213" y="-11" on="0"/>
        <pt x="118" y="39" on="0"/>
        <pt x="92" y="86" on="1"/>
        <pt x="68" y="130" on="0"/>
        <pt x="68" y="215" on="1"/>
        <pt x="68" y="623" on="1"/>
      </contour>
    </TTGlyph>
    <TTGlyph name="V" xMin="44" yMin="-4" xMax="497" yMax="624">
      <contour>
        <pt x="117" y="624" on="1"/>
        <pt x="277" y="145" on="1"/>
        <pt x="428" y="623" on="1"/>
        <pt x="497" y="623" on="1"/>
        <pt x="288" y="-4" on="1"/>
        <pt x="256" y="-4" on="1"/>
        <pt x="44" y="624" on="1"/>
      </contour>
    </TTGlyph>
    <TTGlyph name="W" xMin="35" yMin="-4" xMax="506" yMax="623">
      <contour>
        <pt x="100" y="623" on="1"/>
        <pt x="167" y="202" on="1"/>
        <pt x="267" y="577" on="1"/>
        <pt x="289" y="577" on="1"/>
        <pt x="390" y="200" on="1"/>
        <pt x="447" y="623" on="1"/>
        <pt x="506" y="623" on="1"/>
        <pt x="407" y="-4" on="1"/>
        <pt x="380" y="-4" on="1"/>
        <pt x="273" y="407" on="1"/>
        <pt x="164" y="-4" on="1"/>
        <pt x="135" y="-4" on="1"/>
        <pt x="35" y="623" on="1"/>
      </contour>
    </TTGlyph>
    <TTGlyph name="X" xMin="59" yMin="0" xMax="486" yMax="624">
      <contour>
        <pt x="467" y="624" on="1"/>
        <pt x="309" y="319" on="1"/>
        <pt x="486" y="0" on="1"/>
        <pt x="407" y="0" on="1"/>
        <pt x="269" y="247" on="1"/>
        <pt x="135" y="0" on="1"/>
        <pt x="59" y="0" on="1"/>
        <pt x="229" y="318" on="1"/>
        <pt x="62" y="624" on="1"/>
        <pt x="137" y="624" on="1"/>
        <pt x="268" y="387" on="1"/>
        <pt x="397" y="624" on="1"/>
      </contour>
    </TTGlyph>
    <TTGlyph name="Y" xMin="48" yMin="0" xMax="493" yMax="624">
      <contour>
        <pt x="128" y="624" on="1"/>
        <pt x="281" y="321" on="1"/>
        <pt x="419" y="623" on="1"/>
        <pt x="493" y="623" on="1"/>
        <pt x="316" y="246" on="1"/>
        <pt x="316" y="0" on="1"/>
        <pt x="240" y="0" on="1"/>
        <pt x="240" y="246" on="1"/>
        <pt x="48" y="624" on="1"/>
      </contour>
    </TTGlyph>
    <TTGlyph name="Yacute" xMin="48" yMin="0" xMax="493" yMax="791">
      <contour>
        <pt x="385" y="721" on="1"/>
        <pt x="216" y="660" on="1"/>
        <pt x="193" y="702" on="1"/>
        <pt x="345" y="791" on="1"/>
      </contour>
      <contour>
        <pt x="128" y="624" on="1"/>
        <pt x="281" y="321" on="1"/>
        <pt x="419" y="623" on="1"/>
        <pt x="493" y="623" on="1"/>
        <pt x="316" y="246" on="1"/>
        <pt x="316" y="0" on="1"/>
        <pt x="240" y="0" on="1"/>
        <pt x="240" y="246" on="1"/>
        <pt x="48" y="624" on="1"/>
      </contour>
    </TTGlyph>
    <TTGlyph name="Ydieresis" xMin="48" yMin="0" xMax="493" yMax="789">
      <contour>
        <pt x="229" y="759" on="0"/>
        <pt x="229" y="717" on="0"/>
        <pt x="199" y="688" on="0"/>
        <pt x="178" y="688" on="1"/>
        <pt x="158" y="688" on="0"/>
        <pt x="128" y="717" on="0"/>
        <pt x="128" y="759" on="0"/>
        <pt x="157" y="789" on="0"/>
        <pt x="199" y="789" on="0"/>
      </contour>
      <contour>
        <pt x="407" y="759" on="0"/>
        <pt x="407" y="717" on="0"/>
        <pt x="377" y="688" on="0"/>
        <pt x="357" y="688" on="1"/>
        <pt x="336" y="688" on="0"/>
        <pt x="307" y="717" on="0"/>
        <pt x="307" y="759" on="0"/>
        <pt x="336" y="789" on="0"/>
        <pt x="357" y="789" on="1"/>
        <pt x="377" y="789" on="0"/>
      </contour>
      <contour>
        <pt x="128" y="624" on="1"/>
        <pt x="281" y="321" on="1"/>
        <pt x="419" y="623" on="1"/>
        <pt x="493" y="623" on="1"/>
        <pt x="316" y="246" on="1"/>
        <pt x="316" y="0" on="1"/>
        <pt x="240" y="0" on="1"/>
        <pt x="240" y="246" on="1"/>
        <pt x="48" y="624" on="1"/>
      </contour>
    </TTGlyph>
    <TTGlyph name="Z" xMin="70" yMin="-1" xMax="483" yMax="623">
      <contour>
        <pt x="467" y="623" on="1"/>
        <pt x="467" y="574" on="1"/>
        <pt x="158" y="61" on="1"/>
        <pt x="452" y="61" on="1"/>
        <pt x="458" y="61" on="0"/>
        <pt x="476" y="68" on="0"/>
        <pt x="483" y="67" on="1"/>
        <pt x="483" y="-1" on="1"/>
        <pt x="70" y="-1" on="1"/>
        <pt x="70" y="48" on="1"/>
        <pt x="384" y="560" on="1"/>
        <pt x="82" y="560" on="1"/>
        <pt x="82" y="623" on="1"/>
      </contour>
    </TTGlyph>
    <TTGlyph name="Zacute" xMin="70" yMin="-1" xMax="483" yMax="791">
      <contour>
        <pt x="368" y="721" on="1"/>
        <pt x="199" y="660" on="1"/>
        <pt x="175" y="702" on="1"/>
        <pt x="328" y="791" on="1"/>
      </contour>
      <contour>
        <pt x="467" y="623" on="1"/>
        <pt x="466" y="574" on="1"/>
        <pt x="158" y="61" on="1"/>
        <pt x="452" y="61" on="1"/>
        <pt x="458" y="61" on="0"/>
        <pt x="476" y="68" on="0"/>
        <pt x="483" y="67" on="1"/>
        <pt x="483" y="-1" on="1"/>
        <pt x="70" y="-1" on="1"/>
        <pt x="70" y="48" on="1"/>
        <pt x="384" y="560" on="1"/>
        <pt x="82" y="560" on="1"/>
        <pt x="82" y="623" on="1"/>
      </contour>
    </TTGlyph>
    <TTGlyph name="Zcaron" xMin="70" yMin="-1" xMax="483" yMax="791">
      <contour>
        <pt x="286" y="656" on="1"/>
        <pt x="264" y="656" on="1"/>
        <pt x="141" y="753" on="1"/>
        <pt x="174" y="791" on="1"/>
        <pt x="277" y="721" on="1"/>
        <pt x="389" y="789" on="1"/>
        <pt x="417" y="755" on="1"/>
      </contour>
      <contour>
        <pt x="467" y="623" on="1"/>
        <pt x="466" y="574" on="1"/>
        <pt x="158" y="61" on="1"/>
        <pt x="452" y="61" on="1"/>
        <pt x="458" y="61" on="0"/>
        <pt x="476" y="68" on="0"/>
        <pt x="483" y="67" on="1"/>
        <pt x="483" y="-1" on="1"/>
        <pt x="70" y="-1" on="1"/>
        <pt x="70" y="48" on="1"/>
        <pt x="384" y="560" on="1"/>
        <pt x="82" y="560" on="1"/>
        <pt x="82" y="623" on="1"/>
      </contour>
    </TTGlyph>
    <TTGlyph name="Zdotaccent" xMin="70" yMin="-1" xMax="483" yMax="783">
      <contour>
        <pt x="275" y="783" on="1"/>
        <pt x="296" y="783" on="0"/>
        <pt x="326" y="753" on="0"/>
        <pt x="326" y="731" on="1"/>
        <pt x="326" y="710" on="0"/>
        <pt x="296" y="680" on="0"/>
        <pt x="275" y="680" on="1"/>
        <pt x="253" y="680" on="0"/>
        <pt x="223" y="710" on="0"/>
        <pt x="223" y="731" on="1"/>
        <pt x="223" y="753" on="0"/>
        <pt x="253" y="783" on="0"/>
      </contour>
      <contour>
        <pt x="467" y="623" on="1"/>
        <pt x="466" y="574" on="1"/>
        <pt x="158" y="61" on="1"/>
        <pt x="452" y="61" on="1"/>
        <pt x="458" y="61" on="0"/>
        <pt x="476" y="68" on="0"/>
        <pt x="483" y="67" on="1"/>
        <pt x="483" y="-1" on="1"/>
        <pt x="70" y="-1" on="1"/>
        <pt x="70" y="48" on="1"/>
        <pt x="384" y="560" on="1"/>
        <pt x="82" y="560" on="1"/>
        <pt x="82" y="623" on="1"/>
      </contour>
    </TTGlyph>
    <TTGlyph name="a" xMin="58" yMin="-11" xMax="444" yMax="467">
      <contour>
        <pt x="100" y="403" on="1"/>
        <pt x="161" y="467" on="0"/>
        <pt x="263" y="467" on="1"/>
        <pt x="376" y="467" on="0"/>
        <pt x="422" y="391" on="1"/>
        <pt x="444" y="354" on="0"/>
        <pt x="444" y="283" on="1"/>
        <pt x="444" y="0" on="1"/>
        <pt x="376" y="0" on="1"/>
        <pt x="376" y="50" on="1"/>
        <pt x="302" y="-11" on="0"/>
        <pt x="212" y="-11" on="1"/>
        <pt x="143" y="-11" on="0"/>
        <pt x="58" y="65" on="0"/>
        <pt x="58" y="118" on="1"/>
        <pt x="58" y="158" on="0"/>
        <pt x="111" y="228" on="0"/>
        <pt x="163" y="247" on="1"/>
        <pt x="224" y="269" on="0"/>
        <pt x="360" y="269" on="1"/>
        <pt x="375" y="269" on="1"/>
        <pt x="375" y="286" on="1"/>
        <pt x="375" y="339" on="0"/>
        <pt x="360" y="364" on="1"/>
        <pt x="333" y="408" on="0"/>
        <pt x="266" y="408" on="1"/>
        <pt x="183" y="408" on="0"/>
        <pt x="135" y="357" on="1"/>
      </contour>
      <contour>
        <pt x="361" y="214" on="1"/>
        <pt x="251" y="214" on="0"/>
        <pt x="171" y="194" on="0"/>
        <pt x="130" y="150" on="0"/>
        <pt x="130" y="123" on="1"/>
        <pt x="130" y="91" on="0"/>
        <pt x="183" y="44" on="0"/>
        <pt x="226" y="44" on="1"/>
        <pt x="266" y="44" on="0"/>
        <pt x="329" y="79" on="0"/>
        <pt x="346" y="98" on="1"/>
        <pt x="378" y="134" on="0"/>
        <pt x="378" y="184" on="1"/>
        <pt x="378" y="214" on="1"/>
      </contour>
    </TTGlyph>
    <TTGlyph name="aacute" xMin="58" yMin="-11" xMax="444" yMax="699">
      <contour>
        <pt x="364" y="657" on="1"/>
        <pt x="263" y="522" on="1"/>
        <pt x="213" y="552" on="1"/>
        <pt x="301" y="699" on="1"/>
      </contour>
      <contour>
        <pt x="100" y="403" on="1"/>
        <pt x="161" y="467" on="0"/>
        <pt x="263" y="467" on="1"/>
        <pt x="376" y="467" on="0"/>
        <pt x="422" y="391" on="1"/>
        <pt x="444" y="354" on="0"/>
        <pt x="444" y="283" on="1"/>
        <pt x="444" y="0" on="1"/>
        <pt x="376" y="0" on="1"/>
        <pt x="376" y="50" on="1"/>
        <pt x="302" y="-11" on="0"/>
        <pt x="212" y="-11" on="1"/>
        <pt x="143" y="-11" on="0"/>
        <pt x="58" y="65" on="0"/>
        <pt x="58" y="118" on="1"/>
        <pt x="58" y="158" on="0"/>
        <pt x="111" y="230" on="0"/>
        <pt x="163" y="249" on="1"/>
        <pt x="218" y="269" on="0"/>
        <pt x="360" y="269" on="1"/>
        <pt x="375" y="269" on="1"/>
        <pt x="375" y="286" on="1"/>
        <pt x="375" y="339" on="0"/>
        <pt x="360" y="364" on="1"/>
        <pt x="333" y="408" on="0"/>
        <pt x="266" y="408" on="1"/>
        <pt x="183" y="408" on="0"/>
        <pt x="135" y="357" on="1"/>
      </contour>
      <contour>
        <pt x="361" y="214" on="1"/>
        <pt x="240" y="214" on="0"/>
        <pt x="211" y="207" on="1"/>
        <pt x="171" y="197" on="0"/>
        <pt x="130" y="150" on="0"/>
        <pt x="130" y="123" on="1"/>
        <pt x="130" y="91" on="0"/>
        <pt x="183" y="44" on="0"/>
        <pt x="226" y="44" on="1"/>
        <pt x="266" y="44" on="0"/>
        <pt x="329" y="79" on="0"/>
        <pt x="346" y="98" on="1"/>
        <pt x="377" y="131" on="0"/>
        <pt x="377" y="184" on="1"/>
        <pt x="377" y="214" on="1"/>
      </contour>
    </TTGlyph>
    <TTGlyph name="abreve" xMin="58" yMin="-11" xMax="444" yMax="646">
      <contour>
        <pt x="155" y="646" on="1"/>
        <pt x="200" y="576" on="0"/>
        <pt x="267" y="576" on="1"/>
        <pt x="333" y="576" on="0"/>
        <pt x="386" y="646" on="1"/>
        <pt x="415" y="604" on="1"/>
        <pt x="356" y="524" on="0"/>
        <pt x="267" y="524" on="1"/>
        <pt x="182" y="524" on="0"/>
        <pt x="119" y="601" on="1"/>
      </contour>
      <contour>
        <pt x="100" y="403" on="1"/>
        <pt x="161" y="467" on="0"/>
        <pt x="263" y="467" on="1"/>
        <pt x="376" y="467" on="0"/>
        <pt x="422" y="391" on="1"/>
        <pt x="444" y="354" on="0"/>
        <pt x="444" y="283" on="1"/>
        <pt x="444" y="0" on="1"/>
        <pt x="376" y="0" on="1"/>
        <pt x="376" y="50" on="1"/>
        <pt x="302" y="-11" on="0"/>
        <pt x="212" y="-11" on="1"/>
        <pt x="143" y="-11" on="0"/>
        <pt x="58" y="65" on="0"/>
        <pt x="58" y="118" on="1"/>
        <pt x="58" y="158" on="0"/>
        <pt x="111" y="230" on="0"/>
        <pt x="163" y="249" on="1"/>
        <pt x="218" y="269" on="0"/>
        <pt x="360" y="269" on="1"/>
        <pt x="375" y="269" on="1"/>
        <pt x="375" y="286" on="1"/>
        <pt x="375" y="339" on="0"/>
        <pt x="360" y="364" on="1"/>
        <pt x="333" y="408" on="0"/>
        <pt x="266" y="408" on="1"/>
        <pt x="183" y="408" on="0"/>
        <pt x="135" y="357" on="1"/>
      </contour>
      <contour>
        <pt x="361" y="214" on="1"/>
        <pt x="240" y="214" on="0"/>
        <pt x="211" y="207" on="1"/>
        <pt x="171" y="197" on="0"/>
        <pt x="130" y="150" on="0"/>
        <pt x="130" y="123" on="1"/>
        <pt x="130" y="91" on="0"/>
        <pt x="183" y="44" on="0"/>
        <pt x="226" y="44" on="1"/>
        <pt x="266" y="44" on="0"/>
        <pt x="329" y="79" on="0"/>
        <pt x="346" y="98" on="1"/>
        <pt x="378" y="131" on="0"/>
        <pt x="378" y="184" on="1"/>
        <pt x="378" y="214" on="1"/>
      </contour>
    </TTGlyph>
    <TTGlyph name="acircumflex" xMin="58" yMin="-11" xMax="444" yMax="685">
      <contour>
        <pt x="261" y="685" on="1"/>
        <pt x="283" y="685" on="1"/>
        <pt x="393" y="544" on="1"/>
        <pt x="346" y="509" on="1"/>
        <pt x="269" y="612" on="1"/>
        <pt x="188" y="510" on="1"/>
        <pt x="150" y="545" on="1"/>
      </contour>
      <contour>
        <pt x="100" y="403" on="1"/>
        <pt x="161" y="467" on="0"/>
        <pt x="263" y="467" on="1"/>
        <pt x="376" y="467" on="0"/>
        <pt x="422" y="391" on="1"/>
        <pt x="444" y="354" on="0"/>
        <pt x="444" y="283" on="1"/>
        <pt x="444" y="0" on="1"/>
        <pt x="376" y="0" on="1"/>
        <pt x="376" y="50" on="1"/>
        <pt x="302" y="-11" on="0"/>
        <pt x="212" y="-11" on="1"/>
        <pt x="143" y="-11" on="0"/>
        <pt x="58" y="65" on="0"/>
        <pt x="58" y="118" on="1"/>
        <pt x="58" y="158" on="0"/>
        <pt x="111" y="230" on="0"/>
        <pt x="163" y="249" on="1"/>
        <pt x="218" y="269" on="0"/>
        <pt x="360" y="269" on="1"/>
        <pt x="375" y="269" on="1"/>
        <pt x="375" y="286" on="1"/>
        <pt x="375" y="339" on="0"/>
        <pt x="360" y="364" on="1"/>
        <pt x="333" y="408" on="0"/>
        <pt x="266" y="408" on="1"/>
        <pt x="183" y="408" on="0"/>
        <pt x="135" y="357" on="1"/>
      </contour>
      <contour>
        <pt x="361" y="214" on="1"/>
        <pt x="240" y="214" on="0"/>
        <pt x="211" y="207" on="1"/>
        <pt x="171" y="197" on="0"/>
        <pt x="130" y="150" on="0"/>
        <pt x="130" y="123" on="1"/>
        <pt x="130" y="91" on="0"/>
        <pt x="183" y="44" on="0"/>
        <pt x="226" y="44" on="1"/>
        <pt x="266" y="44" on="0"/>
        <pt x="329" y="79" on="0"/>
        <pt x="346" y="98" on="1"/>
        <pt x="378" y="131" on="0"/>
        <pt x="378" y="184" on="1"/>
        <pt x="378" y="214" on="1"/>
      </contour>
    </TTGlyph>
    <TTGlyph name="acute" xMin="224" yMin="522" xMax="375" yMax="699">
      <contour>
        <pt x="375" y="657" on="1"/>
        <pt x="274" y="522" on="1"/>
        <pt x="224" y="552" on="1"/>
        <pt x="312" y="699" on="1"/>
      </contour>
    </TTGlyph>
    <TTGlyph name="acute.cap" xMin="193" yMin="541" xMax="385" yMax="672">
      <contour>
        <pt x="385" y="602" on="1"/>
        <pt x="216" y="541" on="1"/>
        <pt x="193" y="583" on="1"/>
        <pt x="345" y="672" on="1"/>
      </contour>
    </TTGlyph>
    <TTGlyph name="adieresis" xMin="58" yMin="-11" xMax="444" yMax="665">
      <contour>
        <pt x="235" y="635" on="0"/>
        <pt x="235" y="593" on="0"/>
        <pt x="205" y="564" on="0"/>
        <pt x="185" y="564" on="1"/>
        <pt x="164" y="564" on="0"/>
        <pt x="134" y="593" on="0"/>
        <pt x="134" y="635" on="0"/>
        <pt x="164" y="665" on="0"/>
        <pt x="185" y="665" on="1"/>
        <pt x="205" y="665" on="0"/>
      </contour>
      <contour>
        <pt x="413" y="635" on="0"/>
        <pt x="413" y="593" on="0"/>
        <pt x="383" y="564" on="0"/>
        <pt x="363" y="564" on="1"/>
        <pt x="342" y="564" on="0"/>
        <pt x="313" y="593" on="0"/>
        <pt x="313" y="635" on="0"/>
        <pt x="342" y="665" on="0"/>
        <pt x="363" y="665" on="1"/>
        <pt x="383" y="665" on="0"/>
      </contour>
      <contour>
        <pt x="100" y="403" on="1"/>
        <pt x="161" y="467" on="0"/>
        <pt x="263" y="467" on="1"/>
        <pt x="376" y="467" on="0"/>
        <pt x="422" y="391" on="1"/>
        <pt x="444" y="354" on="0"/>
        <pt x="444" y="283" on="1"/>
        <pt x="444" y="0" on="1"/>
        <pt x="376" y="0" on="1"/>
        <pt x="376" y="50" on="1"/>
        <pt x="302" y="-11" on="0"/>
        <pt x="212" y="-11" on="1"/>
        <pt x="143" y="-11" on="0"/>
        <pt x="58" y="65" on="0"/>
        <pt x="58" y="118" on="1"/>
        <pt x="58" y="158" on="0"/>
        <pt x="111" y="230" on="0"/>
        <pt x="163" y="249" on="1"/>
        <pt x="218" y="269" on="0"/>
        <pt x="360" y="269" on="1"/>
        <pt x="375" y="269" on="1"/>
        <pt x="375" y="286" on="1"/>
        <pt x="375" y="339" on="0"/>
        <pt x="360" y="364" on="1"/>
        <pt x="333" y="408" on="0"/>
        <pt x="266" y="408" on="1"/>
        <pt x="183" y="408" on="0"/>
        <pt x="135" y="357" on="1"/>
      </contour>
      <contour>
        <pt x="361" y="214" on="1"/>
        <pt x="240" y="214" on="0"/>
        <pt x="211" y="207" on="1"/>
        <pt x="171" y="197" on="0"/>
        <pt x="130" y="150" on="0"/>
        <pt x="130" y="123" on="1"/>
        <pt x="130" y="91" on="0"/>
        <pt x="183" y="44" on="0"/>
        <pt x="226" y="44" on="1"/>
        <pt x="266" y="44" on="0"/>
        <pt x="329" y="79" on="0"/>
        <pt x="346" y="98" on="1"/>
        <pt x="378" y="132" on="0"/>
        <pt x="378" y="184" on="1"/>
        <pt x="378" y="214" on="1"/>
      </contour>
    </TTGlyph>
    <TTGlyph name="ae" xMin="30" yMin="-11" xMax="514" yMax="467">
      <contour>
        <pt x="51" y="412" on="1"/>
        <pt x="95" y="467" on="0"/>
        <pt x="167" y="467" on="1"/>
        <pt x="242" y="467" on="0"/>
        <pt x="278" y="405" on="1"/>
        <pt x="294" y="433" on="0"/>
        <pt x="351" y="467" on="0"/>
        <pt x="383" y="467" on="1"/>
        <pt x="448" y="467" on="0"/>
        <pt x="484" y="409" on="1"/>
        <pt x="510" y="365" on="0"/>
        <pt x="510" y="268" on="1"/>
        <pt x="510" y="230" on="1"/>
        <pt x="302" y="222" on="1"/>
        <pt x="302" y="175" on="1"/>
        <pt x="302" y="133" on="0"/>
        <pt x="313" y="109" on="1"/>
        <pt x="326" y="81" on="0"/>
        <pt x="377" y="47" on="0"/>
        <pt x="406" y="47" on="1"/>
        <pt x="452" y="47" on="0"/>
        <pt x="479" y="84" on="1"/>
        <pt x="514" y="42" on="1"/>
        <pt x="470" y="-11" on="0"/>
        <pt x="400" y="-11" on="1"/>
        <pt x="362" y="-11" on="0"/>
        <pt x="295" y="26" on="0"/>
        <pt x="275" y="58" on="1"/>
        <pt x="259" y="26" on="0"/>
        <pt x="198" y="-11" on="0"/>
        <pt x="162" y="-11" on="1"/>
        <pt x="108" y="-11" on="0"/>
        <pt x="30" y="68" on="0"/>
        <pt x="30" y="124" on="1"/>
        <pt x="30" y="165" on="0"/>
        <pt x="77" y="238" on="0"/>
        <pt x="122" y="259" on="1"/>
        <pt x="158" y="275" on="0"/>
        <pt x="218" y="278" on="1"/>
        <pt x="241" y="279" on="1"/>
        <pt x="241" y="305" on="1"/>
        <pt x="241" y="337" on="0"/>
        <pt x="234" y="356" on="1"/>
        <pt x="225" y="381" on="0"/>
        <pt x="186" y="411" on="0"/>
        <pt x="162" y="411" on="1"/>
        <pt x="117" y="411" on="0"/>
        <pt x="86" y="368" on="1"/>
      </contour>
      <contour>
        <pt x="452" y="285" on="1"/>
        <pt x="452" y="305" on="1"/>
        <pt x="452" y="346" on="0"/>
        <pt x="443" y="367" on="1"/>
        <pt x="424" y="411" on="0"/>
        <pt x="382" y="411" on="1"/>
        <pt x="347" y="411" on="0"/>
        <pt x="321" y="374" on="1"/>
        <pt x="302" y="346" on="0"/>
        <pt x="302" y="296" on="1"/>
        <pt x="302" y="279" on="1"/>
      </contour>
      <contour>
        <pt x="219" y="218" on="1"/>
        <pt x="165" y="216" on="0"/>
        <pt x="142" y="204" on="1"/>
        <pt x="94" y="179" on="0"/>
        <pt x="94" y="128" on="1"/>
        <pt x="94" y="95" on="0"/>
        <pt x="138" y="50" on="0"/>
        <pt x="169" y="50" on="1"/>
        <pt x="190" y="50" on="0"/>
        <pt x="226" y="74" on="0"/>
        <pt x="235" y="96" on="1"/>
        <pt x="241" y="114" on="0"/>
        <pt x="241" y="181" on="1"/>
        <pt x="241" y="219" on="1"/>
      </contour>
    </TTGlyph>
    <TTGlyph name="agrave" xMin="58" yMin="-11" xMax="444" yMax="699">
      <contour>
        <pt x="340" y="552" on="1"/>
        <pt x="290" y="522" on="1"/>
        <pt x="189" y="657" on="1"/>
        <pt x="252" y="699" on="1"/>
      </contour>
      <contour>
        <pt x="100" y="403" on="1"/>
        <pt x="161" y="467" on="0"/>
        <pt x="263" y="467" on="1"/>
        <pt x="376" y="467" on="0"/>
        <pt x="422" y="391" on="1"/>
        <pt x="444" y="354" on="0"/>
        <pt x="444" y="283" on="1"/>
        <pt x="444" y="0" on="1"/>
        <pt x="376" y="0" on="1"/>
        <pt x="376" y="50" on="1"/>
        <pt x="302" y="-11" on="0"/>
        <pt x="212" y="-11" on="1"/>
        <pt x="143" y="-11" on="0"/>
        <pt x="58" y="65" on="0"/>
        <pt x="58" y="118" on="1"/>
        <pt x="58" y="158" on="0"/>
        <pt x="111" y="230" on="0"/>
        <pt x="163" y="249" on="1"/>
        <pt x="218" y="269" on="0"/>
        <pt x="360" y="269" on="1"/>
        <pt x="375" y="269" on="1"/>
        <pt x="375" y="286" on="1"/>
        <pt x="375" y="339" on="0"/>
        <pt x="360" y="364" on="1"/>
        <pt x="333" y="408" on="0"/>
        <pt x="266" y="408" on="1"/>
        <pt x="183" y="408" on="0"/>
        <pt x="135" y="357" on="1"/>
      </contour>
      <contour>
        <pt x="361" y="214" on="1"/>
        <pt x="240" y="214" on="0"/>
        <pt x="211" y="207" on="1"/>
        <pt x="171" y="197" on="0"/>
        <pt x="130" y="150" on="0"/>
        <pt x="130" y="123" on="1"/>
        <pt x="130" y="91" on="0"/>
        <pt x="183" y="44" on="0"/>
        <pt x="226" y="44" on="1"/>
        <pt x="266" y="44" on="0"/>
        <pt x="329" y="79" on="0"/>
        <pt x="346" y="98" on="1"/>
        <pt x="378" y="132" on="0"/>
        <pt x="378" y="184" on="1"/>
        <pt x="378" y="214" on="1"/>
      </contour>
    </TTGlyph>
    <TTGlyph name="ampersand" xMin="61" yMin="-12" xMax="506" yMax="629">
      <contour>
        <pt x="254" y="629" on="1"/>
        <pt x="311" y="629" on="0"/>
        <pt x="387" y="553" on="0"/>
        <pt x="387" y="496" on="1"/>
        <pt x="387" y="447" on="0"/>
        <pt x="329" y="356" on="0"/>
        <pt x="280" y="330" on="1"/>
        <pt x="392" y="173" on="1"/>
        <pt x="421" y="207" on="0"/>
        <pt x="437" y="254" on="1"/>
        <pt x="437" y="255" on="0"/>
        <pt x="438" y="260" on="0"/>
        <pt x="438" y="264" on="0"/>
        <pt x="437" y="271" on="0"/>
        <pt x="437" y="274" on="1"/>
        <pt x="437" y="280" on="0"/>
        <pt x="441" y="284" on="1"/>
        <pt x="506" y="239" on="1"/>
        <pt x="469" y="174" on="0"/>
        <pt x="430" y="123" on="1"/>
        <pt x="500" y="32" on="1"/>
        <pt x="441" y="-12" on="1"/>
        <pt x="386" y="76" on="1"/>
        <pt x="355" y="37" on="0"/>
        <pt x="265" y="-10" on="0"/>
        <pt x="217" y="-10" on="1"/>
        <pt x="150" y="-10" on="0"/>
        <pt x="61" y="79" on="0"/>
        <pt x="61" y="146" on="1"/>
        <pt x="61" y="204" on="0"/>
        <pt x="129" y="312" on="0"/>
        <pt x="187" y="343" on="1"/>
        <pt x="116" y="427" on="0"/>
        <pt x="116" y="498" on="1"/>
        <pt x="116" y="554" on="0"/>
        <pt x="196" y="629" on="0"/>
      </contour>
      <contour>
        <pt x="185" y="497" on="1"/>
        <pt x="185" y="449" on="0"/>
        <pt x="246" y="373" on="1"/>
        <pt x="280" y="392" on="0"/>
        <pt x="322" y="457" on="0"/>
        <pt x="322" y="491" on="1"/>
        <pt x="322" y="526" on="0"/>
        <pt x="281" y="570" on="0"/>
        <pt x="225" y="570" on="0"/>
        <pt x="185" y="529" on="0"/>
      </contour>
      <contour>
        <pt x="222" y="296" on="1"/>
        <pt x="183" y="271" on="0"/>
        <pt x="137" y="193" on="0"/>
        <pt x="137" y="153" on="1"/>
        <pt x="137" y="110" on="0"/>
        <pt x="189" y="54" on="0"/>
        <pt x="228" y="54" on="1"/>
        <pt x="258" y="54" on="0"/>
        <pt x="318" y="88" on="0"/>
        <pt x="334" y="106" on="1"/>
        <pt x="349" y="123" on="1"/>
      </contour>
    </TTGlyph>
    <TTGlyph name="aogonek" xMin="58" yMin="-176" xMax="445" yMax="467">
      <contour>
        <pt x="100" y="403" on="1"/>
        <pt x="161" y="467" on="0"/>
        <pt x="263" y="467" on="1"/>
        <pt x="376" y="467" on="0"/>
        <pt x="422" y="391" on="1"/>
        <pt x="444" y="354" on="0"/>
        <pt x="444" y="283" on="1"/>
        <pt x="444" y="0" on="1"/>
        <pt x="443" y="0" on="1"/>
        <pt x="410" y="-29" on="0"/>
        <pt x="376" y="-67" on="1"/>
        <pt x="359" y="-86" on="0"/>
        <pt x="359" y="-102" on="1"/>
        <pt x="359" y="-114" on="0"/>
        <pt x="375" y="-130" on="0"/>
        <pt x="389" y="-130" on="1"/>
        <pt x="399" y="-130" on="0"/>
        <pt x="413" y="-125" on="1"/>
        <pt x="428" y="-119" on="0"/>
        <pt x="445" y="-107" on="1"/>
        <pt x="445" y="-153" on="1"/>
        <pt x="418" y="-176" on="0"/>
        <pt x="376" y="-176" on="1"/>
        <pt x="339" y="-176" on="0"/>
        <pt x="297" y="-141" on="0"/>
        <pt x="297" y="-115" on="1"/>
        <pt x="297" y="-66" on="0"/>
        <pt x="377" y="0" on="1"/>
        <pt x="376" y="0" on="1"/>
        <pt x="376" y="50" on="1"/>
        <pt x="302" y="-11" on="0"/>
        <pt x="212" y="-11" on="1"/>
        <pt x="143" y="-11" on="0"/>
        <pt x="58" y="65" on="0"/>
        <pt x="58" y="118" on="1"/>
        <pt x="58" y="158" on="0"/>
        <pt x="111" y="230" on="0"/>
        <pt x="163" y="249" on="1"/>
        <pt x="218" y="269" on="0"/>
        <pt x="360" y="269" on="1"/>
        <pt x="375" y="269" on="1"/>
        <pt x="375" y="286" on="1"/>
        <pt x="375" y="339" on="0"/>
        <pt x="360" y="364" on="1"/>
        <pt x="333" y="408" on="0"/>
        <pt x="266" y="408" on="1"/>
        <pt x="183" y="408" on="0"/>
        <pt x="135" y="357" on="1"/>
      </contour>
      <contour>
        <pt x="361" y="214" on="1"/>
        <pt x="240" y="214" on="0"/>
        <pt x="211" y="207" on="1"/>
        <pt x="171" y="197" on="0"/>
        <pt x="130" y="150" on="0"/>
        <pt x="130" y="123" on="1"/>
        <pt x="130" y="91" on="0"/>
        <pt x="183" y="44" on="0"/>
        <pt x="226" y="44" on="1"/>
        <pt x="266" y="44" on="0"/>
        <pt x="329" y="79" on="0"/>
        <pt x="346" y="98" on="1"/>
        <pt x="378" y="132" on="0"/>
        <pt x="378" y="184" on="1"/>
        <pt x="378" y="214" on="1"/>
      </contour>
    </TTGlyph>
    <TTGlyph name="aring" xMin="58" yMin="-11" xMax="444" yMax="693">
      <contour>
        <pt x="357" y="641" on="0"/>
        <pt x="357" y="569" on="0"/>
        <pt x="303" y="517" on="0"/>
        <pt x="227" y="517" on="0"/>
        <pt x="174" y="569" on="0"/>
        <pt x="174" y="641" on="0"/>
        <pt x="227" y="693" on="0"/>
        <pt x="303" y="693" on="0"/>
      </contour>
      <contour>
        <pt x="225" y="625" on="0"/>
        <pt x="225" y="587" on="0"/>
        <pt x="249" y="560" on="0"/>
        <pt x="283" y="560" on="0"/>
        <pt x="308" y="587" on="0"/>
        <pt x="308" y="625" on="0"/>
        <pt x="283" y="652" on="0"/>
        <pt x="249" y="652" on="0"/>
      </contour>
      <contour>
        <pt x="100" y="403" on="1"/>
        <pt x="161" y="467" on="0"/>
        <pt x="263" y="467" on="1"/>
        <pt x="376" y="467" on="0"/>
        <pt x="422" y="391" on="1"/>
        <pt x="444" y="354" on="0"/>
        <pt x="444" y="283" on="1"/>
        <pt x="444" y="0" on="1"/>
        <pt x="376" y="0" on="1"/>
        <pt x="376" y="50" on="1"/>
        <pt x="302" y="-11" on="0"/>
        <pt x="212" y="-11" on="1"/>
        <pt x="143" y="-11" on="0"/>
        <pt x="58" y="65" on="0"/>
        <pt x="58" y="118" on="1"/>
        <pt x="58" y="158" on="0"/>
        <pt x="111" y="230" on="0"/>
        <pt x="163" y="249" on="1"/>
        <pt x="218" y="269" on="0"/>
        <pt x="360" y="269" on="1"/>
        <pt x="375" y="269" on="1"/>
        <pt x="375" y="286" on="1"/>
        <pt x="375" y="339" on="0"/>
        <pt x="360" y="364" on="1"/>
        <pt x="333" y="408" on="0"/>
        <pt x="266" y="408" on="1"/>
        <pt x="183" y="408" on="0"/>
        <pt x="135" y="357" on="1"/>
      </contour>
      <contour>
        <pt x="361" y="214" on="1"/>
        <pt x="240" y="214" on="0"/>
        <pt x="211" y="207" on="1"/>
        <pt x="171" y="197" on="0"/>
        <pt x="130" y="150" on="0"/>
        <pt x="130" y="123" on="1"/>
        <pt x="130" y="91" on="0"/>
        <pt x="183" y="44" on="0"/>
        <pt x="226" y="44" on="1"/>
        <pt x="266" y="44" on="0"/>
        <pt x="329" y="79" on="0"/>
        <pt x="346" y="98" on="1"/>
        <pt x="378" y="131" on="0"/>
        <pt x="378" y="184" on="1"/>
        <pt x="378" y="214" on="1"/>
      </contour>
    </TTGlyph>
    <TTGlyph name="arrowdown" xMin="84" yMin="-34" xMax="466" yMax="640">
      <contour>
        <pt x="279" y="-34" on="1"/>
        <pt x="257" y="-34" on="1"/>
        <pt x="84" y="205" on="1"/>
        <pt x="134" y="238" on="1"/>
        <pt x="240" y="94" on="1"/>
        <pt x="240" y="640" on="1"/>
        <pt x="306" y="640" on="1"/>
        <pt x="306" y="94" on="1"/>
        <pt x="423" y="238" on="1"/>
        <pt x="466" y="203" on="1"/>
      </contour>
    </TTGlyph>
    <TTGlyph name="arrowup" xMin="84" yMin="-34" xMax="466" yMax="640">
      <contour>
        <pt x="271" y="640" on="1"/>
        <pt x="293" y="640" on="1"/>
        <pt x="466" y="402" on="1"/>
        <pt x="416" y="369" on="1"/>
        <pt x="310" y="512" on="1"/>
        <pt x="310" y="-34" on="1"/>
        <pt x="243" y="-34" on="1"/>
        <pt x="243" y="513" on="1"/>
        <pt x="127" y="369" on="1"/>
        <pt x="84" y="404" on="1"/>
      </contour>
    </TTGlyph>
    <TTGlyph name="asciicircum" xMin="118" yMin="343" xMax="428" yMax="623">
      <contour>
        <pt x="271" y="623" on="1"/>
        <pt x="293" y="623" on="1"/>
        <pt x="428" y="368" on="1"/>
        <pt x="375" y="343" on="1"/>
        <pt x="278" y="518" on="1"/>
        <pt x="168" y="343" on="1"/>
        <pt x="118" y="367" on="1"/>
      </contour>
    </TTGlyph>
    <TTGlyph name="asciitilde" xMin="52" yMin="247" xMax="487" yMax="387">
      <contour>
        <pt x="52" y="298" on="1"/>
        <pt x="76" y="337" on="0"/>
        <pt x="149" y="387" on="0"/>
        <pt x="190" y="387" on="1"/>
        <pt x="218" y="387" on="0"/>
        <pt x="267" y="364" on="0"/>
        <pt x="298" y="335" on="0"/>
        <pt x="337" y="312" on="0"/>
        <pt x="356" y="312" on="1"/>
        <pt x="393" y="312" on="0"/>
        <pt x="441" y="377" on="1"/>
        <pt x="487" y="339" on="1"/>
        <pt x="423" y="247" on="0"/>
        <pt x="348" y="247" on="1"/>
        <pt x="321" y="247" on="0"/>
        <pt x="273" y="272" on="0"/>
        <pt x="245" y="302" on="0"/>
        <pt x="205" y="327" on="0"/>
        <pt x="185" y="327" on="1"/>
        <pt x="141" y="327" on="0"/>
        <pt x="102" y="265" on="1"/>
      </contour>
    </TTGlyph>
    <TTGlyph name="asterisk" xMin="61" yMin="106" xMax="478" yMax="519">
      <contour>
        <pt x="314" y="519" on="1"/>
        <pt x="313" y="512" on="0"/>
        <pt x="309" y="497" on="0"/>
        <pt x="308" y="492" on="1"/>
        <pt x="293" y="342" on="1"/>
        <pt x="452" y="414" on="1"/>
        <pt x="478" y="353" on="1"/>
        <pt x="307" y="301" on="1"/>
        <pt x="433" y="150" on="1"/>
        <pt x="378" y="107" on="1"/>
        <pt x="270" y="273" on="1"/>
        <pt x="158" y="106" on="1"/>
        <pt x="104" y="150" on="1"/>
        <pt x="234" y="300" on="1"/>
        <pt x="61" y="353" on="1"/>
        <pt x="87" y="418" on="1"/>
        <pt x="249" y="342" on="1"/>
        <pt x="233" y="519" on="1"/>
      </contour>
    </TTGlyph>
    <TTGlyph name="at" xMin="56" yMin="-11" xMax="490" yMax="633">
      <contour>
        <pt x="460" y="30" on="1"/>
        <pt x="396" y="-11" on="0"/>
        <pt x="320" y="-11" on="1"/>
        <pt x="271" y="-11" on="0"/>
        <pt x="180" y="27" on="0"/>
        <pt x="103" y="101" on="0"/>
        <pt x="56" y="231" on="0"/>
        <pt x="56" y="314" on="1"/>
        <pt x="56" y="395" on="0"/>
        <pt x="100" y="523" on="0"/>
        <pt x="171" y="596" on="0"/>
        <pt x="253" y="633" on="0"/>
        <pt x="296" y="633" on="1"/>
        <pt x="352" y="633" on="0"/>
        <pt x="444" y="574" on="0"/>
        <pt x="468" y="522" on="1"/>
        <pt x="490" y="474" on="0"/>
        <pt x="490" y="378" on="1"/>
        <pt x="490" y="175" on="1"/>
        <pt x="430" y="175" on="1"/>
        <pt x="430" y="213" on="1"/>
        <pt x="390" y="167" on="0"/>
        <pt x="330" y="167" on="1"/>
        <pt x="276" y="167" on="0"/>
        <pt x="200" y="243" on="0"/>
        <pt x="200" y="297" on="1"/>
        <pt x="200" y="339" on="0"/>
        <pt x="250" y="411" on="0"/>
        <pt x="295" y="429" on="1"/>
        <pt x="334" y="444" on="0"/>
        <pt x="412" y="444" on="1"/>
        <pt x="427" y="444" on="1"/>
        <pt x="427" y="500" on="0"/>
        <pt x="349" y="579" on="0"/>
        <pt x="293" y="579" on="1"/>
        <pt x="221" y="579" on="0"/>
        <pt x="114" y="443" on="0"/>
        <pt x="114" y="317" on="1"/>
        <pt x="114" y="247" on="0"/>
        <pt x="152" y="139" on="0"/>
        <pt x="216" y="77" on="0"/>
        <pt x="288" y="46" on="0"/>
        <pt x="326" y="46" on="1"/>
        <pt x="385" y="46" on="0"/>
        <pt x="433" y="79" on="1"/>
      </contour>
      <contour>
        <pt x="413" y="394" on="1"/>
        <pt x="336" y="394" on="0"/>
        <pt x="302" y="371" on="1"/>
        <pt x="262" y="343" on="0"/>
        <pt x="262" y="300" on="1"/>
        <pt x="262" y="268" on="0"/>
        <pt x="308" y="222" on="0"/>
        <pt x="341" y="222" on="1"/>
        <pt x="392" y="222" on="0"/>
        <pt x="415" y="267" on="1"/>
        <pt x="430" y="296" on="0"/>
        <pt x="430" y="375" on="1"/>
        <pt x="430" y="394" on="1"/>
      </contour>
    </TTGlyph>
    <TTGlyph name="atilde" xMin="58" yMin="-11" xMax="447" yMax="676">
      <contour>
        <pt x="109" y="589" on="1"/>
        <pt x="164" y="676" on="0"/>
        <pt x="222" y="676" on="1"/>
        <pt x="259" y="676" on="0"/>
        <pt x="302" y="633" on="1"/>
        <pt x="332" y="601" on="0"/>
        <pt x="352" y="601" on="1"/>
        <pt x="359" y="601" on="0"/>
        <pt x="371" y="605" on="0"/>
        <pt x="384" y="619" on="0"/>
        <pt x="390" y="626" on="0"/>
        <pt x="407" y="650" on="0"/>
        <pt x="410" y="654" on="1"/>
        <pt x="447" y="614" on="1"/>
        <pt x="418" y="577" on="0"/>
        <pt x="375" y="543" on="0"/>
        <pt x="349" y="543" on="1"/>
        <pt x="324" y="543" on="0"/>
        <pt x="278" y="581" on="0"/>
        <pt x="237" y="619" on="0"/>
        <pt x="201" y="619" on="0"/>
        <pt x="175" y="592" on="0"/>
        <pt x="154" y="558" on="1"/>
      </contour>
      <contour>
        <pt x="100" y="403" on="1"/>
        <pt x="161" y="467" on="0"/>
        <pt x="263" y="467" on="1"/>
        <pt x="376" y="467" on="0"/>
        <pt x="422" y="391" on="1"/>
        <pt x="444" y="354" on="0"/>
        <pt x="444" y="283" on="1"/>
        <pt x="444" y="0" on="1"/>
        <pt x="376" y="0" on="1"/>
        <pt x="376" y="50" on="1"/>
        <pt x="302" y="-11" on="0"/>
        <pt x="212" y="-11" on="1"/>
        <pt x="143" y="-11" on="0"/>
        <pt x="58" y="65" on="0"/>
        <pt x="58" y="118" on="1"/>
        <pt x="58" y="158" on="0"/>
        <pt x="111" y="230" on="0"/>
        <pt x="163" y="249" on="1"/>
        <pt x="218" y="269" on="0"/>
        <pt x="360" y="269" on="1"/>
        <pt x="375" y="269" on="1"/>
        <pt x="375" y="286" on="1"/>
        <pt x="375" y="339" on="0"/>
        <pt x="360" y="364" on="1"/>
        <pt x="333" y="408" on="0"/>
        <pt x="266" y="408" on="1"/>
        <pt x="183" y="408" on="0"/>
        <pt x="135" y="357" on="1"/>
      </contour>
      <contour>
        <pt x="361" y="214" on="1"/>
        <pt x="240" y="214" on="0"/>
        <pt x="211" y="207" on="1"/>
        <pt x="171" y="197" on="0"/>
        <pt x="130" y="150" on="0"/>
        <pt x="130" y="123" on="1"/>
        <pt x="130" y="91" on="0"/>
        <pt x="183" y="44" on="0"/>
        <pt x="226" y="44" on="1"/>
        <pt x="266" y="44" on="0"/>
        <pt x="329" y="79" on="0"/>
        <pt x="346" y="98" on="1"/>
        <pt x="377" y="131" on="0"/>
        <pt x="377" y="184" on="1"/>
        <pt x="377" y="214" on="1"/>
      </contour>
    </TTGlyph>
    <TTGlyph name="b" xMin="90" yMin="-11" xMax="487" yMax="665">
      <contour>
        <pt x="174" y="665" on="1"/>
        <pt x="176" y="660" on="0"/>
        <pt x="169" y="654" on="1"/>
        <pt x="163" y="648" on="0"/>
        <pt x="163" y="643" on="1"/>
        <pt x="163" y="387" on="1"/>
        <pt x="185" y="424" on="0"/>
        <pt x="260" y="468" on="0"/>
        <pt x="304" y="468" on="1"/>
        <pt x="378" y="468" on="0"/>
        <pt x="487" y="346" on="0"/>
        <pt x="487" y="234" on="1"/>
        <pt x="487" y="117" on="0"/>
        <pt x="373" y="-11" on="0"/>
        <pt x="296" y="-11" on="1"/>
        <pt x="256" y="-11" on="0"/>
        <pt x="184" y="27" on="0"/>
        <pt x="161" y="60" on="1"/>
        <pt x="136" y="0" on="1"/>
        <pt x="90" y="0" on="1"/>
        <pt x="90" y="665" on="1"/>
      </contour>
      <contour>
        <pt x="279" y="406" on="1"/>
        <pt x="245" y="406" on="0"/>
        <pt x="189" y="370" on="0"/>
        <pt x="175" y="339" on="1"/>
        <pt x="163" y="312" on="0"/>
        <pt x="163" y="243" on="1"/>
        <pt x="163" y="177" on="0"/>
        <pt x="166" y="153" on="1"/>
        <pt x="171" y="113" on="0"/>
        <pt x="216" y="65" on="0"/>
        <pt x="256" y="53" on="0"/>
        <pt x="277" y="53" on="1"/>
        <pt x="297" y="53" on="0"/>
        <pt x="338" y="67" on="0"/>
        <pt x="384" y="99" on="0"/>
        <pt x="413" y="170" on="0"/>
        <pt x="413" y="219" on="1"/>
        <pt x="413" y="276" on="0"/>
        <pt x="384" y="355" on="0"/>
        <pt x="339" y="392" on="0"/>
        <pt x="299" y="406" on="0"/>
      </contour>
    </TTGlyph>
    <TTGlyph name="backslash" xMin="143" yMin="-59" xMax="398" yMax="678">
      <contour>
        <pt x="335" y="-59" on="1"/>
        <pt x="143" y="661" on="1"/>
        <pt x="206" y="678" on="1"/>
        <pt x="398" y="-44" on="1"/>
      </contour>
    </TTGlyph>
    <TTGlyph name="bar" xMin="242" yMin="-151" xMax="309" yMax="652">
      <contour>
        <pt x="309" y="652" on="1"/>
        <pt x="309" y="-151" on="1"/>
        <pt x="242" y="-151" on="1"/>
        <pt x="242" y="652" on="1"/>
      </contour>
    </TTGlyph>
    <TTGlyph name="braceleft" xMin="73" yMin="-159" xMax="428" yMax="637">
      <contour>
        <pt x="92" y="284" on="1"/>
        <pt x="138" y="284" on="0"/>
        <pt x="159" y="306" on="1"/>
        <pt x="185" y="333" on="0"/>
        <pt x="185" y="391" on="1"/>
        <pt x="185" y="404" on="0"/>
        <pt x="183" y="451" on="0"/>
        <pt x="183" y="463" on="1"/>
        <pt x="183" y="552" on="0"/>
        <pt x="232" y="597" on="1"/>
        <pt x="239" y="603" on="0"/>
        <pt x="255" y="614" on="0"/>
        <pt x="269" y="622" on="0"/>
        <pt x="289" y="628" on="0"/>
        <pt x="302" y="632" on="0"/>
        <pt x="324" y="635" on="0"/>
        <pt x="335" y="636" on="0"/>
        <pt x="360" y="637" on="0"/>
        <pt x="369" y="637" on="0"/>
        <pt x="395" y="637" on="0"/>
        <pt x="398" y="637" on="1"/>
        <pt x="428" y="637" on="1"/>
        <pt x="428" y="580" on="1"/>
        <pt x="394" y="580" on="1"/>
        <pt x="387" y="580" on="0"/>
        <pt x="353" y="581" on="0"/>
        <pt x="340" y="580" on="0"/>
        <pt x="317" y="578" on="0"/>
        <pt x="301" y="572" on="0"/>
        <pt x="293" y="567" on="1"/>
        <pt x="253" y="542" on="0"/>
        <pt x="253" y="474" on="1"/>
        <pt x="253" y="462" on="0"/>
        <pt x="255" y="416" on="0"/>
        <pt x="255" y="404" on="1"/>
        <pt x="255" y="355" on="0"/>
        <pt x="240" y="324" on="1"/>
        <pt x="218" y="279" on="0"/>
        <pt x="168" y="256" on="1"/>
        <pt x="253" y="227" on="0"/>
        <pt x="253" y="101" on="1"/>
        <pt x="253" y="85" on="0"/>
        <pt x="250" y="29" on="0"/>
        <pt x="250" y="17" on="1"/>
        <pt x="250" y="-58" on="0"/>
        <pt x="291" y="-86" on="1"/>
        <pt x="295" y="-89" on="0"/>
        <pt x="304" y="-94" on="0"/>
        <pt x="315" y="-98" on="0"/>
        <pt x="323" y="-100" on="0"/>
        <pt x="337" y="-102" on="0"/>
        <pt x="344" y="-103" on="0"/>
        <pt x="361" y="-103" on="0"/>
        <pt x="367" y="-103" on="0"/>
        <pt x="387" y="-103" on="0"/>
        <pt x="390" y="-103" on="1"/>
        <pt x="427" y="-103" on="1"/>
        <pt x="427" y="-159" on="1"/>
        <pt x="391" y="-159" on="1"/>
        <pt x="387" y="-159" on="0"/>
        <pt x="359" y="-159" on="0"/>
        <pt x="351" y="-159" on="0"/>
        <pt x="326" y="-158" on="0"/>
        <pt x="317" y="-157" on="0"/>
        <pt x="296" y="-155" on="0"/>
        <pt x="285" y="-152" on="0"/>
        <pt x="267" y="-148" on="0"/>
        <pt x="256" y="-142" on="0"/>
        <pt x="241" y="-134" on="0"/>
        <pt x="235" y="-129" on="1"/>
        <pt x="179" y="-86" on="0"/>
        <pt x="179" y="16" on="1"/>
        <pt x="179" y="36" on="0"/>
        <pt x="183" y="102" on="0"/>
        <pt x="183" y="116" on="1"/>
        <pt x="183" y="182" on="0"/>
        <pt x="157" y="208" on="1"/>
        <pt x="137" y="228" on="0"/>
        <pt x="93" y="228" on="1"/>
        <pt x="73" y="228" on="1"/>
        <pt x="73" y="284" on="1"/>
      </contour>
    </TTGlyph>
    <TTGlyph name="braceright" xMin="112" yMin="-159" xMax="468" yMax="637">
      <contour>
        <pt x="468" y="228" on="1"/>
        <pt x="447" y="228" on="1"/>
        <pt x="405" y="228" on="0"/>
        <pt x="384" y="208" on="1"/>
        <pt x="358" y="183" on="0"/>
        <pt x="358" y="116" on="1"/>
        <pt x="358" y="102" on="0"/>
        <pt x="361" y="36" on="0"/>
        <pt x="361" y="16" on="1"/>
        <pt x="361" y="-86" on="0"/>
        <pt x="306" y="-129" on="1"/>
        <pt x="300" y="-134" on="0"/>
        <pt x="285" y="-142" on="0"/>
        <pt x="273" y="-148" on="0"/>
        <pt x="255" y="-152" on="0"/>
        <pt x="245" y="-155" on="0"/>
        <pt x="223" y="-157" on="0"/>
        <pt x="214" y="-158" on="0"/>
        <pt x="189" y="-159" on="0"/>
        <pt x="181" y="-159" on="0"/>
        <pt x="153" y="-159" on="0"/>
        <pt x="149" y="-159" on="1"/>
        <pt x="113" y="-159" on="1"/>
        <pt x="113" y="-103" on="1"/>
        <pt x="150" y="-103" on="1"/>
        <pt x="153" y="-103" on="0"/>
        <pt x="173" y="-103" on="0"/>
        <pt x="179" y="-103" on="0"/>
        <pt x="196" y="-103" on="0"/>
        <pt x="203" y="-102" on="0"/>
        <pt x="217" y="-100" on="0"/>
        <pt x="225" y="-98" on="0"/>
        <pt x="237" y="-94" on="0"/>
        <pt x="246" y="-89" on="0"/>
        <pt x="250" y="-86" on="1"/>
        <pt x="291" y="-58" on="0"/>
        <pt x="291" y="17" on="1"/>
        <pt x="291" y="29" on="0"/>
        <pt x="288" y="85" on="0"/>
        <pt x="288" y="101" on="1"/>
        <pt x="288" y="227" on="0"/>
        <pt x="372" y="256" on="1"/>
        <pt x="323" y="278" on="0"/>
        <pt x="301" y="324" on="1"/>
        <pt x="285" y="357" on="0"/>
        <pt x="285" y="404" on="1"/>
        <pt x="285" y="416" on="0"/>
        <pt x="288" y="462" on="0"/>
        <pt x="288" y="474" on="1"/>
        <pt x="288" y="542" on="0"/>
        <pt x="248" y="567" on="1"/>
        <pt x="240" y="572" on="0"/>
        <pt x="224" y="578" on="0"/>
        <pt x="201" y="580" on="0"/>
        <pt x="188" y="581" on="0"/>
        <pt x="154" y="580" on="0"/>
        <pt x="147" y="580" on="1"/>
        <pt x="112" y="580" on="1"/>
        <pt x="112" y="637" on="1"/>
        <pt x="143" y="637" on="1"/>
        <pt x="144" y="637" on="0"/>
        <pt x="177" y="637" on="0"/>
        <pt x="183" y="637" on="0"/>
        <pt x="213" y="636" on="0"/>
        <pt x="224" y="634" on="0"/>
        <pt x="249" y="630" on="0"/>
        <pt x="263" y="624" on="0"/>
        <pt x="284" y="616" on="0"/>
        <pt x="300" y="604" on="0"/>
        <pt x="308" y="597" on="1"/>
        <pt x="358" y="552" on="0"/>
        <pt x="358" y="463" on="1"/>
        <pt x="358" y="450" on="0"/>
        <pt x="355" y="404" on="0"/>
        <pt x="355" y="391" on="1"/>
        <pt x="355" y="334" on="0"/>
        <pt x="381" y="306" on="1"/>
        <pt x="403" y="284" on="0"/>
        <pt x="448" y="284" on="1"/>
        <pt x="468" y="284" on="1"/>
      </contour>
    </TTGlyph>
    <TTGlyph name="bracketleft" xMin="151" yMin="-89" xMax="438" yMax="670">
      <contour>
        <pt x="437" y="670" on="1"/>
        <pt x="437" y="610" on="1"/>
        <pt x="215" y="610" on="1"/>
        <pt x="215" y="-32" on="1"/>
        <pt x="438" y="-32" on="1"/>
        <pt x="438" y="-89" on="1"/>
        <pt x="151" y="-89" on="1"/>
        <pt x="151" y="670" on="1"/>
      </contour>
    </TTGlyph>
    <TTGlyph name="bracketright" xMin="103" yMin="-89" xMax="389" yMax="670">
      <contour>
        <pt x="389" y="-89" on="1"/>
        <pt x="103" y="-89" on="1"/>
        <pt x="103" y="-32" on="1"/>
        <pt x="326" y="-32" on="1"/>
        <pt x="326" y="610" on="1"/>
        <pt x="104" y="610" on="1"/>
        <pt x="104" y="670" on="1"/>
        <pt x="389" y="670" on="1"/>
      </contour>
    </TTGlyph>
    <TTGlyph name="breve" xMin="121" yMin="524" xMax="417" yMax="646">
      <contour>
        <pt x="157" y="646" on="1"/>
        <pt x="202" y="576" on="0"/>
        <pt x="270" y="576" on="1"/>
        <pt x="335" y="576" on="0"/>
        <pt x="389" y="646" on="1"/>
        <pt x="417" y="604" on="1"/>
        <pt x="358" y="524" on="0"/>
        <pt x="270" y="524" on="1"/>
        <pt x="185" y="524" on="0"/>
        <pt x="121" y="601" on="1"/>
      </contour>
    </TTGlyph>
    <TTGlyph name="brokenbar" xMin="242" yMin="-151" xMax="309" yMax="652">
      <contour>
        <pt x="309" y="652" on="1"/>
        <pt x="309" y="295" on="1"/>
        <pt x="242" y="295" on="1"/>
        <pt x="242" y="652" on="1"/>
      </contour>
      <contour>
        <pt x="242" y="-151" on="1"/>
        <pt x="242" y="196" on="1"/>
        <pt x="309" y="196" on="1"/>
        <pt x="309" y="-151" on="1"/>
      </contour>
    </TTGlyph>
    <TTGlyph name="bullet" xMin="191" yMin="213" xMax="361" yMax="380">
      <contour>
        <pt x="361" y="296" on="1"/>
        <pt x="361" y="262" on="0"/>
        <pt x="311" y="213" on="0"/>
        <pt x="241" y="213" on="0"/>
        <pt x="191" y="262" on="0"/>
        <pt x="191" y="296" on="1"/>
        <pt x="191" y="331" on="0"/>
        <pt x="241" y="380" on="0"/>
        <pt x="311" y="380" on="0"/>
        <pt x="361" y="331" on="0"/>
      </contour>
    </TTGlyph>
    <TTGlyph name="c" xMin="81" yMin="-11" xMax="482" yMax="466">
      <contour>
        <pt x="431" y="322" on="1"/>
        <pt x="426" y="326" on="0"/>
        <pt x="425" y="343" on="0"/>
        <pt x="424" y="345" on="1"/>
        <pt x="422" y="351" on="0"/>
        <pt x="399" y="375" on="0"/>
        <pt x="341" y="405" on="0"/>
        <pt x="306" y="405" on="1"/>
        <pt x="241" y="405" on="0"/>
        <pt x="155" y="312" on="0"/>
        <pt x="155" y="236" on="1"/>
        <pt x="155" y="156" on="0"/>
        <pt x="245" y="54" on="0"/>
        <pt x="312" y="54" on="1"/>
        <pt x="383" y="54" on="0"/>
        <pt x="433" y="110" on="1"/>
        <pt x="475" y="61" on="1"/>
        <pt x="408" y="-11" on="0"/>
        <pt x="306" y="-11" on="1"/>
        <pt x="209" y="-11" on="0"/>
        <pt x="81" y="125" on="0"/>
        <pt x="81" y="331" on="0"/>
        <pt x="210" y="466" on="0"/>
        <pt x="311" y="466" on="1"/>
        <pt x="424" y="466" on="0"/>
        <pt x="482" y="381" on="1"/>
      </contour>
    </TTGlyph>
    <TTGlyph name="cacute" xMin="81" yMin="-11" xMax="482" yMax="699">
      <contour>
        <pt x="380" y="657" on="1"/>
        <pt x="279" y="522" on="1"/>
        <pt x="229" y="552" on="1"/>
        <pt x="317" y="699" on="1"/>
      </contour>
      <contour>
        <pt x="431" y="322" on="1"/>
        <pt x="426" y="325" on="0"/>
        <pt x="425" y="342" on="0"/>
        <pt x="424" y="345" on="1"/>
        <pt x="422" y="351" on="0"/>
        <pt x="399" y="375" on="0"/>
        <pt x="341" y="405" on="0"/>
        <pt x="306" y="405" on="1"/>
        <pt x="241" y="405" on="0"/>
        <pt x="155" y="312" on="0"/>
        <pt x="155" y="236" on="1"/>
        <pt x="155" y="156" on="0"/>
        <pt x="245" y="54" on="0"/>
        <pt x="312" y="54" on="1"/>
        <pt x="383" y="54" on="0"/>
        <pt x="433" y="110" on="1"/>
        <pt x="475" y="61" on="1"/>
        <pt x="408" y="-11" on="0"/>
        <pt x="306" y="-11" on="1"/>
        <pt x="209" y="-11" on="0"/>
        <pt x="81" y="125" on="0"/>
        <pt x="81" y="331" on="0"/>
        <pt x="210" y="466" on="0"/>
        <pt x="311" y="466" on="1"/>
        <pt x="424" y="466" on="0"/>
        <pt x="482" y="381" on="1"/>
      </contour>
    </TTGlyph>
    <TTGlyph name="caron" xMin="154" yMin="518" xMax="397" yMax="694">
      <contour>
        <pt x="286" y="518" on="1"/>
        <pt x="264" y="518" on="1"/>
        <pt x="154" y="659" on="1"/>
        <pt x="200" y="694" on="1"/>
        <pt x="278" y="591" on="1"/>
        <pt x="359" y="693" on="1"/>
        <pt x="397" y="658" on="1"/>
      </contour>
    </TTGlyph>
    <TTGlyph name="caron.cap" xMin="134" yMin="532" xMax="410" yMax="668">
      <contour>
        <pt x="279" y="532" on="1"/>
        <pt x="257" y="532" on="1"/>
        <pt x="134" y="630" on="1"/>
        <pt x="167" y="668" on="1"/>
        <pt x="270" y="597" on="1"/>
        <pt x="382" y="665" on="1"/>
        <pt x="410" y="632" on="1"/>
      </contour>
    </TTGlyph>
    <TTGlyph name="ccaron" xMin="81" yMin="-11" xMax="482" yMax="694">
      <contour>
        <pt x="291" y="518" on="1"/>
        <pt x="269" y="518" on="1"/>
        <pt x="159" y="659" on="1"/>
        <pt x="205" y="694" on="1"/>
        <pt x="283" y="591" on="1"/>
        <pt x="364" y="693" on="1"/>
        <pt x="402" y="658" on="1"/>
      </contour>
      <contour>
        <pt x="431" y="322" on="1"/>
        <pt x="426" y="325" on="0"/>
        <pt x="425" y="342" on="0"/>
        <pt x="424" y="345" on="1"/>
        <pt x="422" y="351" on="0"/>
        <pt x="399" y="375" on="0"/>
        <pt x="341" y="405" on="0"/>
        <pt x="306" y="405" on="1"/>
        <pt x="241" y="405" on="0"/>
        <pt x="155" y="312" on="0"/>
        <pt x="155" y="236" on="1"/>
        <pt x="155" y="156" on="0"/>
        <pt x="245" y="54" on="0"/>
        <pt x="312" y="54" on="1"/>
        <pt x="383" y="54" on="0"/>
        <pt x="433" y="110" on="1"/>
        <pt x="475" y="61" on="1"/>
        <pt x="408" y="-11" on="0"/>
        <pt x="306" y="-11" on="1"/>
        <pt x="209" y="-11" on="0"/>
        <pt x="81" y="125" on="0"/>
        <pt x="81" y="331" on="0"/>
        <pt x="210" y="466" on="0"/>
        <pt x="311" y="466" on="1"/>
        <pt x="424" y="466" on="0"/>
        <pt x="482" y="381" on="1"/>
      </contour>
    </TTGlyph>
    <TTGlyph name="ccedilla" xMin="81" yMin="-177" xMax="482" yMax="466">
      <contour>
        <pt x="431" y="322" on="1"/>
        <pt x="426" y="325" on="0"/>
        <pt x="425" y="342" on="0"/>
        <pt x="424" y="345" on="1"/>
        <pt x="422" y="351" on="0"/>
        <pt x="399" y="375" on="0"/>
        <pt x="341" y="405" on="0"/>
        <pt x="306" y="405" on="1"/>
        <pt x="241" y="405" on="0"/>
        <pt x="155" y="312" on="0"/>
        <pt x="155" y="236" on="1"/>
        <pt x="155" y="156" on="0"/>
        <pt x="245" y="54" on="0"/>
        <pt x="312" y="54" on="1"/>
        <pt x="383" y="54" on="0"/>
        <pt x="433" y="110" on="1"/>
        <pt x="475" y="61" on="1"/>
        <pt x="415" y="-2" on="0"/>
        <pt x="329" y="-10" on="1"/>
        <pt x="324" y="-47" on="1"/>
        <pt x="341" y="-48" on="1"/>
        <pt x="367" y="-50" on="0"/>
        <pt x="380" y="-56" on="1"/>
        <pt x="409" y="-70" on="0"/>
        <pt x="409" y="-103" on="1"/>
        <pt x="409" y="-132" on="0"/>
        <pt x="352" y="-177" on="0"/>
        <pt x="301" y="-177" on="1"/>
        <pt x="235" y="-177" on="0"/>
        <pt x="182" y="-140" on="1"/>
        <pt x="207" y="-98" on="1"/>
        <pt x="250" y="-134" on="0"/>
        <pt x="306" y="-134" on="1"/>
        <pt x="352" y="-134" on="0"/>
        <pt x="352" y="-109" on="1"/>
        <pt x="352" y="-99" on="0"/>
        <pt x="330" y="-85" on="0"/>
        <pt x="305" y="-85" on="1"/>
        <pt x="275" y="-85" on="1"/>
        <pt x="285" y="-10" on="1"/>
        <pt x="196" y="-2" on="0"/>
        <pt x="81" y="131" on="0"/>
        <pt x="81" y="228" on="1"/>
        <pt x="81" y="331" on="0"/>
        <pt x="210" y="466" on="0"/>
        <pt x="311" y="466" on="1"/>
        <pt x="424" y="466" on="0"/>
        <pt x="482" y="381" on="1"/>
      </contour>
    </TTGlyph>
    <TTGlyph name="cedilla" xMin="177" yMin="-177" xMax="404" yMax="0">
      <contour>
        <pt x="325" y="0" on="1"/>
        <pt x="319" y="-47" on="1"/>
        <pt x="336" y="-48" on="1"/>
        <pt x="362" y="-50" on="0"/>
        <pt x="375" y="-56" on="1"/>
        <pt x="404" y="-70" on="0"/>
        <pt x="404" y="-103" on="1"/>
        <pt x="404" y="-132" on="0"/>
        <pt x="347" y="-177" on="0"/>
        <pt x="296" y="-177" on="1"/>
        <pt x="230" y="-177" on="0"/>
        <pt x="177" y="-140" on="1"/>
        <pt x="202" y="-98" on="1"/>
        <pt x="245" y="-134" on="0"/>
        <pt x="301" y="-134" on="1"/>
        <pt x="347" y="-134" on="0"/>
        <pt x="347" y="-109" on="1"/>
        <pt x="347" y="-99" on="0"/>
        <pt x="325" y="-85" on="0"/>
        <pt x="300" y="-85" on="1"/>
        <pt x="270" y="-85" on="1"/>
        <pt x="281" y="0" on="1"/>
      </contour>
    </TTGlyph>
    <TTGlyph name="cent" xMin="73" yMin="-79" xMax="476" yMax="624">
      <contour>
        <pt x="377" y="617" on="1"/>
        <pt x="378" y="611" on="0"/>
        <pt x="374" y="603" on="1"/>
        <pt x="369" y="596" on="0"/>
        <pt x="368" y="589" on="1"/>
        <pt x="358" y="507" on="1"/>
        <pt x="436" y="491" on="0"/>
        <pt x="476" y="430" on="1"/>
        <pt x="432" y="373" on="1"/>
        <pt x="428" y="376" on="0"/>
        <pt x="428" y="383" on="1"/>
        <pt x="428" y="394" on="0"/>
        <pt x="424" y="399" on="1"/>
        <pt x="394" y="434" on="0"/>
        <pt x="350" y="447" on="1"/>
        <pt x="304" y="97" on="1"/>
        <pt x="381" y="97" on="0"/>
        <pt x="435" y="153" on="1"/>
        <pt x="471" y="104" on="1"/>
        <pt x="406" y="33" on="0"/>
        <pt x="303" y="33" on="1"/>
        <pt x="295" y="33" on="1"/>
        <pt x="280" y="-79" on="1"/>
        <pt x="223" y="-72" on="1"/>
        <pt x="237" y="41" on="1"/>
        <pt x="162" y="62" on="0"/>
        <pt x="73" y="187" on="0"/>
        <pt x="73" y="273" on="1"/>
        <pt x="73" y="374" on="0"/>
        <pt x="196" y="507" on="0"/>
        <pt x="296" y="512" on="1"/>
        <pt x="310" y="624" on="1"/>
      </contour>
      <contour>
        <pt x="288" y="454" on="1"/>
        <pt x="225" y="450" on="0"/>
        <pt x="144" y="358" on="0"/>
        <pt x="144" y="282" on="1"/>
        <pt x="144" y="218" on="0"/>
        <pt x="199" y="126" on="0"/>
        <pt x="245" y="108" on="1"/>
      </contour>
    </TTGlyph>
    <TTGlyph name="circumflex" xMin="154" yMin="509" xMax="397" yMax="685">
      <contour>
        <pt x="265" y="685" on="1"/>
        <pt x="287" y="685" on="1"/>
        <pt x="397" y="544" on="1"/>
        <pt x="351" y="509" on="1"/>
        <pt x="273" y="612" on="1"/>
        <pt x="192" y="510" on="1"/>
        <pt x="154" y="545" on="1"/>
      </contour>
    </TTGlyph>
    <TTGlyph name="circumflex.cap" xMin="134" yMin="532" xMax="410" yMax="668">
      <contour>
        <pt x="265" y="668" on="1"/>
        <pt x="287" y="668" on="1"/>
        <pt x="410" y="570" on="1"/>
        <pt x="377" y="532" on="1"/>
        <pt x="274" y="603" on="1"/>
        <pt x="162" y="535" on="1"/>
        <pt x="134" y="569" on="1"/>
      </contour>
    </TTGlyph>
    <TTGlyph name="colon" xMin="194" yMin="-12" xMax="323" yMax="428">
      <contour>
        <pt x="323" y="365" on="1"/>
        <pt x="323" y="340" on="0"/>
        <pt x="285" y="303" on="0"/>
        <pt x="259" y="303" on="1"/>
        <pt x="232" y="303" on="0"/>
        <pt x="194" y="339" on="0"/>
        <pt x="194" y="391" on="0"/>
        <pt x="232" y="428" on="0"/>
        <pt x="259" y="428" on="1"/>
        <pt x="285" y="428" on="0"/>
        <pt x="323" y="391" on="0"/>
      </contour>
      <contour>
        <pt x="323" y="50" on="1"/>
        <pt x="323" y="25" on="0"/>
        <pt x="285" y="-12" on="0"/>
        <pt x="259" y="-12" on="1"/>
        <pt x="232" y="-12" on="0"/>
        <pt x="194" y="24" on="0"/>
        <pt x="194" y="76" on="0"/>
        <pt x="232" y="113" on="0"/>
        <pt x="259" y="113" on="1"/>
        <pt x="285" y="113" on="0"/>
        <pt x="323" y="76" on="0"/>
      </contour>
    </TTGlyph>
    <TTGlyph name="comma" xMin="185" yMin="-168" xMax="326" yMax="103">
      <contour>
        <pt x="326" y="20" on="1"/>
        <pt x="326" y="-61" on="0"/>
        <pt x="219" y="-168" on="1"/>
        <pt x="185" y="-138" on="1"/>
        <pt x="211" y="-114" on="0"/>
        <pt x="235" y="-76" on="1"/>
        <pt x="250" y="-52" on="0"/>
        <pt x="250" y="-34" on="1"/>
        <pt x="250" y="-12" on="0"/>
        <pt x="226" y="1" on="1"/>
        <pt x="199" y="21" on="0"/>
        <pt x="199" y="46" on="1"/>
        <pt x="199" y="69" on="0"/>
        <pt x="232" y="103" on="0"/>
        <pt x="256" y="103" on="1"/>
        <pt x="284" y="103" on="0"/>
        <pt x="326" y="57" on="0"/>
      </contour>
    </TTGlyph>
    <TTGlyph name="comp_fatha" xMin="125" yMin="693" xMax="368" yMax="798">
      <contour>
        <pt x="125" y="693" on="1"/>
        <pt x="125" y="748" on="1"/>
        <pt x="368" y="798" on="1"/>
        <pt x="368" y="743" on="1"/>
      </contour>
    </TTGlyph>
    <TTGlyph name="comp_seen" xMin="4" yMin="-231" xMax="304" yMax="350">
      <contour>
        <pt x="155" y="-231" on="1"/>
        <pt x="87" y="-231" on="0"/>
        <pt x="4" y="-110" on="0"/>
        <pt x="4" y="1" on="1"/>
        <pt x="4" y="102" on="0"/>
        <pt x="25" y="190" on="1"/>
        <pt x="91" y="190" on="1"/>
        <pt x="72" y="97" on="0"/>
        <pt x="72" y="-75" on="0"/>
        <pt x="122" y="-160" on="0"/>
        <pt x="198" y="-160" on="0"/>
        <pt x="236" y="-77" on="0"/>
        <pt x="236" y="15" on="1"/>
        <pt x="236" y="350" on="1"/>
        <pt x="304" y="350" on="1"/>
        <pt x="304" y="21" on="1"/>
        <pt x="304" y="-98" on="0"/>
        <pt x="228" y="-231" on="0"/>
      </contour>
    </TTGlyph>
    <TTGlyph name="copyright" xMin="39" yMin="19" xMax="523" yMax="530">
      <contour>
        <pt x="381" y="19" on="0"/>
        <pt x="181" y="19" on="0"/>
        <pt x="39" y="167" on="0"/>
        <pt x="39" y="381" on="0"/>
        <pt x="181" y="530" on="0"/>
        <pt x="381" y="530" on="0"/>
        <pt x="523" y="382" on="0"/>
        <pt x="523" y="168" on="0"/>
      </contour>
      <contour>
        <pt x="84" y="363" on="0"/>
        <pt x="84" y="185" on="0"/>
        <pt x="200" y="62" on="0"/>
        <pt x="282" y="62" on="1"/>
        <pt x="363" y="62" on="0"/>
        <pt x="480" y="186" on="0"/>
        <pt x="480" y="364" on="0"/>
        <pt x="364" y="488" on="0"/>
        <pt x="282" y="488" on="1"/>
        <pt x="201" y="488" on="0"/>
      </contour>
      <contour>
        <pt x="287" y="424" on="1"/>
        <pt x="333" y="424" on="0"/>
        <pt x="402" y="372" on="0"/>
        <pt x="412" y="331" on="1"/>
        <pt x="360" y="312" on="1"/>
        <pt x="356" y="316" on="0"/>
        <pt x="356" y="330" on="0"/>
        <pt x="356" y="332" on="1"/>
        <pt x="354" y="338" on="0"/>
        <pt x="344" y="354" on="0"/>
        <pt x="312" y="374" on="0"/>
        <pt x="289" y="374" on="1"/>
        <pt x="251" y="374" on="0"/>
        <pt x="196" y="326" on="0"/>
        <pt x="196" y="282" on="1"/>
        <pt x="196" y="237" on="0"/>
        <pt x="251" y="174" on="0"/>
        <pt x="290" y="174" on="1"/>
        <pt x="340" y="174" on="0"/>
        <pt x="365" y="219" on="1"/>
        <pt x="409" y="190" on="1"/>
        <pt x="364" y="122" on="0"/>
        <pt x="286" y="122" on="1"/>
        <pt x="225" y="122" on="0"/>
        <pt x="140" y="213" on="0"/>
        <pt x="140" y="339" on="0"/>
        <pt x="226" y="424" on="0"/>
      </contour>
    </TTGlyph>
    <TTGlyph name="currency" xMin="93" yMin="164" xMax="457" yMax="527">
      <contour>
        <pt x="129" y="527" on="1"/>
        <pt x="185" y="471" on="1"/>
        <pt x="227" y="500" on="0"/>
        <pt x="276" y="500" on="1"/>
        <pt x="326" y="500" on="0"/>
        <pt x="365" y="472" on="1"/>
        <pt x="421" y="527" on="1"/>
        <pt x="457" y="492" on="1"/>
        <pt x="401" y="437" on="1"/>
        <pt x="431" y="396" on="0"/>
        <pt x="431" y="345" on="1"/>
        <pt x="431" y="296" on="0"/>
        <pt x="402" y="254" on="1"/>
        <pt x="457" y="199" on="1"/>
        <pt x="421" y="164" on="1"/>
        <pt x="366" y="219" on="1"/>
        <pt x="326" y="190" on="0"/>
        <pt x="276" y="190" on="1"/>
        <pt x="225" y="190" on="0"/>
        <pt x="184" y="220" on="1"/>
        <pt x="129" y="164" on="1"/>
        <pt x="93" y="199" on="1"/>
        <pt x="149" y="256" on="1"/>
        <pt x="121" y="295" on="0"/>
        <pt x="121" y="345" on="1"/>
        <pt x="121" y="397" on="0"/>
        <pt x="150" y="435" on="1"/>
        <pt x="93" y="492" on="1"/>
      </contour>
      <contour>
        <pt x="317" y="446" on="0"/>
        <pt x="235" y="446" on="0"/>
        <pt x="175" y="386" on="0"/>
        <pt x="175" y="304" on="0"/>
        <pt x="235" y="245" on="0"/>
        <pt x="317" y="245" on="0"/>
        <pt x="376" y="304" on="0"/>
        <pt x="376" y="386" on="0"/>
      </contour>
    </TTGlyph>
    <TTGlyph name="d" xMin="57" yMin="-10" xMax="460" yMax="665">
      <contour>
        <pt x="383" y="665" on="1"/>
        <pt x="460" y="665" on="1"/>
        <pt x="460" y="662" on="0"/>
        <pt x="454" y="650" on="1"/>
        <pt x="450" y="643" on="0"/>
        <pt x="450" y="637" on="1"/>
        <pt x="451" y="42" on="1"/>
        <pt x="451" y="18" on="0"/>
        <pt x="456" y="0" on="1"/>
        <pt x="384" y="0" on="1"/>
        <pt x="380" y="11" on="0"/>
        <pt x="380" y="34" on="1"/>
        <pt x="380" y="73" on="1"/>
        <pt x="358" y="35" on="0"/>
        <pt x="282" y="-10" on="0"/>
        <pt x="239" y="-10" on="1"/>
        <pt x="165" y="-10" on="0"/>
        <pt x="57" y="114" on="0"/>
        <pt x="57" y="232" on="1"/>
        <pt x="57" y="352" on="0"/>
        <pt x="173" y="469" on="0"/>
        <pt x="249" y="469" on="1"/>
        <pt x="295" y="469" on="0"/>
        <pt x="366" y="426" on="0"/>
        <pt x="383" y="390" on="1"/>
      </contour>
      <contour>
        <pt x="252" y="410" on="1"/>
        <pt x="204" y="410" on="0"/>
        <pt x="127" y="332" on="0"/>
        <pt x="127" y="244" on="1"/>
        <pt x="127" y="143" on="0"/>
        <pt x="207" y="53" on="0"/>
        <pt x="255" y="53" on="1"/>
        <pt x="292" y="53" on="0"/>
        <pt x="356" y="100" on="0"/>
        <pt x="368" y="140" on="1"/>
        <pt x="377" y="170" on="0"/>
        <pt x="377" y="223" on="1"/>
        <pt x="377" y="296" on="0"/>
        <pt x="370" y="321" on="1"/>
        <pt x="357" y="367" on="0"/>
        <pt x="289" y="410" on="0"/>
      </contour>
    </TTGlyph>
    <TTGlyph name="dagger" xMin="74" yMin="-151" xMax="475" yMax="652">
      <contour>
        <pt x="309" y="652" on="1"/>
        <pt x="309" y="457" on="1"/>
        <pt x="475" y="457" on="1"/>
        <pt x="475" y="397" on="1"/>
        <pt x="309" y="397" on="1"/>
        <pt x="309" y="-151" on="1"/>
        <pt x="242" y="-151" on="1"/>
        <pt x="242" y="397" on="1"/>
        <pt x="74" y="397" on="1"/>
        <pt x="74" y="457" on="1"/>
        <pt x="242" y="457" on="1"/>
        <pt x="242" y="652" on="1"/>
      </contour>
    </TTGlyph>
    <TTGlyph name="daggerdbl" xMin="74" yMin="-151" xMax="475" yMax="652">
      <contour>
        <pt x="309" y="652" on="1"/>
        <pt x="309" y="457" on="1"/>
        <pt x="475" y="457" on="1"/>
        <pt x="475" y="397" on="1"/>
        <pt x="309" y="397" on="1"/>
        <pt x="309" y="121" on="1"/>
        <pt x="475" y="121" on="1"/>
        <pt x="475" y="61" on="1"/>
        <pt x="309" y="61" on="1"/>
        <pt x="309" y="-151" on="1"/>
        <pt x="242" y="-151" on="1"/>
        <pt x="242" y="61" on="1"/>
        <pt x="74" y="61" on="1"/>
        <pt x="74" y="121" on="1"/>
        <pt x="242" y="121" on="1"/>
        <pt x="242" y="397" on="1"/>
        <pt x="74" y="397" on="1"/>
        <pt x="74" y="457" on="1"/>
        <pt x="242" y="457" on="1"/>
        <pt x="242" y="652" on="1"/>
      </contour>
    </TTGlyph>
    <TTGlyph name="dcaron" xMin="60" yMin="-10" xMax="569" yMax="671">
      <contour>
        <pt x="569" y="605" on="1"/>
        <pt x="569" y="541" on="0"/>
        <pt x="484" y="454" on="1"/>
        <pt x="456" y="478" on="1"/>
        <pt x="481" y="501" on="0"/>
        <pt x="497" y="528" on="1"/>
        <pt x="508" y="547" on="0"/>
        <pt x="508" y="577" on="0"/>
        <pt x="490" y="590" on="1"/>
        <pt x="467" y="606" on="0"/>
        <pt x="467" y="644" on="0"/>
        <pt x="494" y="671" on="0"/>
        <pt x="513" y="671" on="1"/>
        <pt x="536" y="671" on="0"/>
        <pt x="569" y="635" on="0"/>
      </contour>
      <contour>
        <pt x="369" y="665" on="1"/>
        <pt x="437" y="665" on="1"/>
        <pt x="437" y="42" on="1"/>
        <pt x="437" y="19" on="0"/>
        <pt x="441" y="0" on="1"/>
        <pt x="370" y="0" on="1"/>
        <pt x="365" y="14" on="0"/>
        <pt x="365" y="34" on="1"/>
        <pt x="365" y="73" on="1"/>
        <pt x="344" y="36" on="0"/>
        <pt x="273" y="-10" on="0"/>
        <pt x="232" y="-10" on="1"/>
        <pt x="159" y="-10" on="0"/>
        <pt x="60" y="127" on="0"/>
        <pt x="60" y="232" on="1"/>
        <pt x="60" y="340" on="0"/>
        <pt x="168" y="469" on="0"/>
        <pt x="241" y="469" on="1"/>
        <pt x="282" y="469" on="0"/>
        <pt x="351" y="426" on="0"/>
        <pt x="369" y="390" on="1"/>
      </contour>
      <contour>
        <pt x="245" y="410" on="1"/>
        <pt x="196" y="410" on="0"/>
        <pt x="130" y="314" on="0"/>
        <pt x="130" y="241" on="1"/>
        <pt x="130" y="167" on="0"/>
        <pt x="195" y="53" on="0"/>
        <pt x="248" y="53" on="1"/>
        <pt x="276" y="53" on="0"/>
        <pt x="326" y="87" on="0"/>
        <pt x="341" y="112" on="1"/>
        <pt x="363" y="149" on="0"/>
        <pt x="363" y="220" on="1"/>
        <pt x="363" y="311" on="0"/>
        <pt x="348" y="343" on="1"/>
        <pt x="334" y="373" on="0"/>
        <pt x="274" y="410" on="0"/>
      </contour>
    </TTGlyph>
    <TTGlyph name="dcroat" xMin="58" yMin="-10" xMax="496" yMax="665">
      <contour>
        <pt x="452" y="42" on="1"/>
        <pt x="452" y="18" on="0"/>
        <pt x="457" y="0" on="1"/>
        <pt x="385" y="0" on="1"/>
        <pt x="381" y="11" on="0"/>
        <pt x="381" y="34" on="1"/>
        <pt x="381" y="73" on="1"/>
        <pt x="359" y="35" on="0"/>
        <pt x="283" y="-10" on="0"/>
        <pt x="240" y="-10" on="1"/>
        <pt x="166" y="-10" on="0"/>
        <pt x="58" y="114" on="0"/>
        <pt x="58" y="232" on="1"/>
        <pt x="58" y="352" on="0"/>
        <pt x="174" y="469" on="0"/>
        <pt x="250" y="469" on="1"/>
        <pt x="296" y="469" on="0"/>
        <pt x="367" y="426" on="0"/>
        <pt x="384" y="390" on="1"/>
        <pt x="384" y="544" on="1"/>
        <pt x="308" y="544" on="1"/>
        <pt x="308" y="597" on="1"/>
        <pt x="384" y="597" on="1"/>
        <pt x="384" y="665" on="1"/>
        <pt x="461" y="665" on="1"/>
        <pt x="461" y="655" on="0"/>
        <pt x="456" y="650" on="1"/>
        <pt x="452" y="646" on="0"/>
        <pt x="452" y="637" on="1"/>
        <pt x="452" y="597" on="1"/>
        <pt x="496" y="597" on="1"/>
        <pt x="496" y="544" on="1"/>
        <pt x="452" y="544" on="1"/>
      </contour>
      <contour>
        <pt x="254" y="410" on="1"/>
        <pt x="205" y="410" on="0"/>
        <pt x="128" y="332" on="0"/>
        <pt x="128" y="244" on="1"/>
        <pt x="128" y="143" on="0"/>
        <pt x="208" y="53" on="0"/>
        <pt x="256" y="53" on="1"/>
        <pt x="293" y="53" on="0"/>
        <pt x="357" y="100" on="0"/>
        <pt x="369" y="140" on="1"/>
        <pt x="378" y="170" on="0"/>
        <pt x="378" y="223" on="1"/>
        <pt x="378" y="296" on="0"/>
        <pt x="371" y="321" on="1"/>
        <pt x="358" y="367" on="0"/>
        <pt x="290" y="410" on="0"/>
      </contour>
    </TTGlyph>
    <TTGlyph name="degree" xMin="146" yMin="370" xMax="416" yMax="639">
      <contour>
        <pt x="416" y="504" on="1"/>
        <pt x="416" y="449" on="0"/>
        <pt x="337" y="370" on="0"/>
        <pt x="225" y="370" on="0"/>
        <pt x="146" y="448" on="0"/>
        <pt x="146" y="560" on="0"/>
        <pt x="225" y="639" on="0"/>
        <pt x="281" y="639" on="1"/>
        <pt x="336" y="639" on="0"/>
        <pt x="416" y="560" on="0"/>
      </contour>
      <contour>
        <pt x="282" y="586" on="1"/>
        <pt x="251" y="586" on="0"/>
        <pt x="207" y="540" on="0"/>
        <pt x="207" y="472" on="0"/>
        <pt x="251" y="425" on="0"/>
        <pt x="282" y="425" on="1"/>
        <pt x="312" y="425" on="0"/>
        <pt x="356" y="472" on="0"/>
        <pt x="356" y="506" on="1"/>
        <pt x="356" y="539" on="0"/>
        <pt x="312" y="586" on="0"/>
      </contour>
    </TTGlyph>
    <TTGlyph name="dieresis" xMin="132" yMin="564" xMax="411" yMax="665">
      <contour>
        <pt x="233" y="635" on="0"/>
        <pt x="233" y="593" on="0"/>
        <pt x="204" y="564" on="0"/>
        <pt x="162" y="564" on="0"/>
        <pt x="132" y="593" on="0"/>
        <pt x="132" y="635" on="0"/>
        <pt x="162" y="665" on="0"/>
        <pt x="204" y="665" on="0"/>
      </contour>
      <contour>
        <pt x="411" y="635" on="0"/>
        <pt x="411" y="593" on="0"/>
        <pt x="381" y="564" on="0"/>
        <pt x="361" y="564" on="1"/>
        <pt x="340" y="564" on="0"/>
        <pt x="311" y="593" on="0"/>
        <pt x="311" y="635" on="0"/>
        <pt x="340" y="665" on="0"/>
        <pt x="361" y="665" on="1"/>
        <pt x="381" y="665" on="0"/>
      </contour>
    </TTGlyph>
    <TTGlyph name="divide" xMin="96" yMin="114" xMax="456" yMax="512">
      <contour>
        <pt x="325" y="486" on="0"/>
        <pt x="325" y="448" on="0"/>
        <pt x="299" y="422" on="0"/>
        <pt x="280" y="422" on="1"/>
        <pt x="262" y="422" on="0"/>
        <pt x="236" y="448" on="0"/>
        <pt x="236" y="486" on="0"/>
        <pt x="262" y="512" on="0"/>
        <pt x="280" y="512" on="1"/>
        <pt x="299" y="512" on="0"/>
      </contour>
      <contour>
        <pt x="456" y="348" on="1"/>
        <pt x="456" y="281" on="1"/>
        <pt x="96" y="281" on="1"/>
        <pt x="96" y="348" on="1"/>
      </contour>
      <contour>
        <pt x="325" y="178" on="0"/>
        <pt x="325" y="140" on="0"/>
        <pt x="299" y="114" on="0"/>
        <pt x="280" y="114" on="1"/>
        <pt x="262" y="114" on="0"/>
        <pt x="236" y="140" on="0"/>
        <pt x="236" y="178" on="0"/>
        <pt x="262" y="204" on="0"/>
        <pt x="280" y="204" on="1"/>
        <pt x="299" y="204" on="0"/>
      </contour>
    </TTGlyph>
    <TTGlyph name="dollar" xMin="85" yMin="-47" xMax="485" yMax="651">
      <contour>
        <pt x="324" y="651" on="1"/>
        <pt x="325" y="650" on="0"/>
        <pt x="325" y="644" on="0"/>
        <pt x="318" y="635" on="0"/>
        <pt x="318" y="630" on="1"/>
        <pt x="318" y="592" on="1"/>
        <pt x="410" y="583" on="0"/>
        <pt x="467" y="515" on="1"/>
        <pt x="424" y="461" on="1"/>
        <pt x="419" y="461" on="0"/>
        <pt x="419" y="468" on="1"/>
        <pt x="418" y="470" on="0"/>
        <pt x="418" y="474" on="0"/>
        <pt x="418" y="476" on="1"/>
        <pt x="413" y="482" on="1"/>
        <pt x="380" y="523" on="0"/>
        <pt x="318" y="533" on="1"/>
        <pt x="318" y="340" on="1"/>
        <pt x="376" y="320" on="0"/>
        <pt x="385" y="316" on="1"/>
        <pt x="485" y="273" on="0"/>
        <pt x="485" y="182" on="1"/>
        <pt x="485" y="123" on="0"/>
        <pt x="398" y="27" on="0"/>
        <pt x="318" y="16" on="1"/>
        <pt x="318" y="-47" on="1"/>
        <pt x="260" y="-47" on="1"/>
        <pt x="260" y="14" on="1"/>
        <pt x="151" y="22" on="0"/>
        <pt x="85" y="94" on="1"/>
        <pt x="128" y="154" on="1"/>
        <pt x="132" y="152" on="0"/>
        <pt x="132" y="136" on="0"/>
        <pt x="135" y="133" on="1"/>
        <pt x="184" y="81" on="0"/>
        <pt x="260" y="72" on="1"/>
        <pt x="260" y="292" on="1"/>
        <pt x="233" y="300" on="0"/>
        <pt x="205" y="313" on="1"/>
        <pt x="104" y="361" on="0"/>
        <pt x="104" y="446" on="1"/>
        <pt x="104" y="500" on="0"/>
        <pt x="191" y="582" on="0"/>
        <pt x="260" y="591" on="1"/>
        <pt x="260" y="651" on="1"/>
      </contour>
      <contour>
        <pt x="260" y="534" on="1"/>
        <pt x="216" y="529" on="0"/>
        <pt x="170" y="483" on="0"/>
        <pt x="170" y="454" on="1"/>
        <pt x="170" y="410" on="0"/>
        <pt x="225" y="377" on="1"/>
        <pt x="237" y="370" on="0"/>
        <pt x="260" y="361" on="1"/>
      </contour>
      <contour>
        <pt x="318" y="74" on="1"/>
        <pt x="365" y="83" on="0"/>
        <pt x="420" y="142" on="0"/>
        <pt x="420" y="177" on="1"/>
        <pt x="420" y="227" on="0"/>
        <pt x="370" y="253" on="1"/>
        <pt x="354" y="262" on="0"/>
        <pt x="318" y="273" on="1"/>
      </contour>
    </TTGlyph>
    <TTGlyph name="dotaccent" xMin="223" yMin="553" xMax="326" yMax="656">
      <contour>
        <pt x="275" y="656" on="1"/>
        <pt x="296" y="656" on="0"/>
        <pt x="326" y="626" on="0"/>
        <pt x="326" y="605" on="1"/>
        <pt x="326" y="583" on="0"/>
        <pt x="296" y="553" on="0"/>
        <pt x="275" y="553" on="1"/>
        <pt x="253" y="553" on="0"/>
        <pt x="223" y="583" on="0"/>
        <pt x="223" y="605" on="1"/>
        <pt x="223" y="626" on="0"/>
        <pt x="253" y="656" on="0"/>
      </contour>
    </TTGlyph>
    <TTGlyph name="dotcenterar" xMin="68" yMin="-44" xMax="158" yMax="46">
      <contour>
        <pt x="132" y="-44" on="0"/>
        <pt x="94" y="-44" on="0"/>
        <pt x="68" y="-17" on="0"/>
        <pt x="68" y="2" on="1"/>
        <pt x="68" y="20" on="0"/>
        <pt x="94" y="46" on="0"/>
        <pt x="132" y="46" on="0"/>
        <pt x="158" y="20" on="0"/>
        <pt x="158" y="2" on="1"/>
        <pt x="158" y="-17" on="0"/>
      </contour>
    </TTGlyph>
    <TTGlyph name="dotlessi" xMin="120" yMin="0" xMax="416" yMax="457">
      <contour>
        <pt x="309" y="457" on="1"/>
        <pt x="309" y="58" on="1"/>
        <pt x="416" y="58" on="1"/>
        <pt x="416" y="0" on="1"/>
        <pt x="120" y="0" on="1"/>
        <pt x="120" y="58" on="1"/>
        <pt x="237" y="58" on="1"/>
        <pt x="237" y="399" on="1"/>
        <pt x="126" y="399" on="1"/>
        <pt x="126" y="457" on="1"/>
      </contour>
    </TTGlyph>
    <TTGlyph name="e" xMin="71" yMin="-10" xMax="468" yMax="468">
      <contour>
        <pt x="281" y="468" on="1"/>
        <pt x="346" y="468" on="0"/>
        <pt x="450" y="390" on="0"/>
        <pt x="462" y="306" on="1"/>
        <pt x="468" y="266" on="0"/>
        <pt x="465" y="218" on="1"/>
        <pt x="140" y="218" on="1"/>
        <pt x="142" y="170" on="0"/>
        <pt x="173" y="99" on="0"/>
        <pt x="222" y="64" on="0"/>
        <pt x="270" y="48" on="0"/>
        <pt x="296" y="48" on="1"/>
        <pt x="368" y="48" on="0"/>
        <pt x="414" y="99" on="1"/>
        <pt x="454" y="60" on="1"/>
        <pt x="394" y="-10" on="0"/>
        <pt x="290" y="-10" on="1"/>
        <pt x="194" y="-10" on="0"/>
        <pt x="71" y="112" on="0"/>
        <pt x="71" y="223" on="1"/>
        <pt x="71" y="342" on="0"/>
        <pt x="193" y="468" on="0"/>
      </contour>
      <contour>
        <pt x="394" y="274" on="1"/>
        <pt x="401" y="330" on="0"/>
        <pt x="331" y="413" on="0"/>
        <pt x="276" y="413" on="1"/>
        <pt x="231" y="413" on="0"/>
        <pt x="153" y="347" on="0"/>
        <pt x="143" y="274" on="1"/>
      </contour>
    </TTGlyph>
    <TTGlyph name="eacute" xMin="71" yMin="-10" xMax="468" yMax="699">
      <contour>
        <pt x="377" y="657" on="1"/>
        <pt x="276" y="522" on="1"/>
        <pt x="226" y="552" on="1"/>
        <pt x="314" y="699" on="1"/>
      </contour>
      <contour>
        <pt x="281" y="468" on="1"/>
        <pt x="345" y="468" on="0"/>
        <pt x="447" y="390" on="0"/>
        <pt x="462" y="306" on="1"/>
        <pt x="468" y="266" on="0"/>
        <pt x="465" y="218" on="1"/>
        <pt x="140" y="218" on="1"/>
        <pt x="142" y="170" on="0"/>
        <pt x="173" y="99" on="0"/>
        <pt x="222" y="64" on="0"/>
        <pt x="270" y="48" on="0"/>
        <pt x="296" y="48" on="1"/>
        <pt x="368" y="48" on="0"/>
        <pt x="414" y="99" on="1"/>
        <pt x="453" y="60" on="1"/>
        <pt x="395" y="-10" on="0"/>
        <pt x="290" y="-10" on="1"/>
        <pt x="194" y="-10" on="0"/>
        <pt x="71" y="112" on="0"/>
        <pt x="71" y="223" on="1"/>
        <pt x="71" y="342" on="0"/>
        <pt x="193" y="468" on="0"/>
      </contour>
      <contour>
        <pt x="394" y="274" on="1"/>
        <pt x="401" y="330" on="0"/>
        <pt x="331" y="413" on="0"/>
        <pt x="276" y="413" on="1"/>
        <pt x="231" y="413" on="0"/>
        <pt x="153" y="347" on="0"/>
        <pt x="143" y="274" on="1"/>
      </contour>
    </TTGlyph>
    <TTGlyph name="ecaron" xMin="71" yMin="-10" xMax="468" yMax="694">
      <contour>
        <pt x="288" y="518" on="1"/>
        <pt x="266" y="518" on="1"/>
        <pt x="156" y="659" on="1"/>
        <pt x="202" y="694" on="1"/>
        <pt x="280" y="591" on="1"/>
        <pt x="361" y="693" on="1"/>
        <pt x="399" y="658" on="1"/>
      </contour>
      <contour>
        <pt x="281" y="468" on="1"/>
        <pt x="345" y="468" on="0"/>
        <pt x="447" y="390" on="0"/>
        <pt x="462" y="306" on="1"/>
        <pt x="468" y="266" on="0"/>
        <pt x="465" y="218" on="1"/>
        <pt x="140" y="218" on="1"/>
        <pt x="142" y="170" on="0"/>
        <pt x="173" y="99" on="0"/>
        <pt x="222" y="64" on="0"/>
        <pt x="270" y="48" on="0"/>
        <pt x="296" y="48" on="1"/>
        <pt x="368" y="48" on="0"/>
        <pt x="414" y="99" on="1"/>
        <pt x="454" y="60" on="1"/>
        <pt x="394" y="-10" on="0"/>
        <pt x="290" y="-10" on="1"/>
        <pt x="194" y="-10" on="0"/>
        <pt x="71" y="112" on="0"/>
        <pt x="71" y="223" on="1"/>
        <pt x="71" y="342" on="0"/>
        <pt x="193" y="468" on="0"/>
      </contour>
      <contour>
        <pt x="394" y="274" on="1"/>
        <pt x="401" y="330" on="0"/>
        <pt x="331" y="413" on="0"/>
        <pt x="276" y="413" on="1"/>
        <pt x="231" y="413" on="0"/>
        <pt x="153" y="347" on="0"/>
        <pt x="143" y="274" on="1"/>
      </contour>
    </TTGlyph>
    <TTGlyph name="ecircumflex" xMin="71" yMin="-10" xMax="468" yMax="685">
      <contour>
        <pt x="267" y="685" on="1"/>
        <pt x="289" y="685" on="1"/>
        <pt x="399" y="544" on="1"/>
        <pt x="353" y="509" on="1"/>
        <pt x="275" y="612" on="1"/>
        <pt x="194" y="510" on="1"/>
        <pt x="156" y="545" on="1"/>
      </contour>
      <contour>
        <pt x="281" y="468" on="1"/>
        <pt x="345" y="468" on="0"/>
        <pt x="447" y="390" on="0"/>
        <pt x="462" y="306" on="1"/>
        <pt x="468" y="266" on="0"/>
        <pt x="465" y="218" on="1"/>
        <pt x="140" y="218" on="1"/>
        <pt x="142" y="170" on="0"/>
        <pt x="173" y="99" on="0"/>
        <pt x="222" y="64" on="0"/>
        <pt x="270" y="48" on="0"/>
        <pt x="296" y="48" on="1"/>
        <pt x="368" y="48" on="0"/>
        <pt x="414" y="99" on="1"/>
        <pt x="453" y="60" on="1"/>
        <pt x="395" y="-10" on="0"/>
        <pt x="290" y="-10" on="1"/>
        <pt x="194" y="-10" on="0"/>
        <pt x="71" y="112" on="0"/>
        <pt x="71" y="223" on="1"/>
        <pt x="71" y="342" on="0"/>
        <pt x="193" y="468" on="0"/>
      </contour>
      <contour>
        <pt x="394" y="274" on="1"/>
        <pt x="401" y="330" on="0"/>
        <pt x="331" y="413" on="0"/>
        <pt x="276" y="413" on="1"/>
        <pt x="231" y="413" on="0"/>
        <pt x="153" y="347" on="0"/>
        <pt x="143" y="274" on="1"/>
      </contour>
    </TTGlyph>
    <TTGlyph name="edieresis" xMin="71" yMin="-10" xMax="468" yMax="665">
      <contour>
        <pt x="237" y="635" on="0"/>
        <pt x="237" y="593" on="0"/>
        <pt x="207" y="564" on="0"/>
        <pt x="186" y="564" on="1"/>
        <pt x="166" y="564" on="0"/>
        <pt x="136" y="593" on="0"/>
        <pt x="136" y="635" on="0"/>
        <pt x="166" y="665" on="0"/>
        <pt x="186" y="665" on="1"/>
        <pt x="207" y="665" on="0"/>
      </contour>
      <contour>
        <pt x="415" y="635" on="0"/>
        <pt x="415" y="593" on="0"/>
        <pt x="385" y="564" on="0"/>
        <pt x="365" y="564" on="1"/>
        <pt x="344" y="564" on="0"/>
        <pt x="315" y="593" on="0"/>
        <pt x="315" y="635" on="0"/>
        <pt x="344" y="665" on="0"/>
        <pt x="365" y="665" on="1"/>
        <pt x="385" y="665" on="0"/>
      </contour>
      <contour>
        <pt x="281" y="468" on="1"/>
        <pt x="345" y="468" on="0"/>
        <pt x="447" y="390" on="0"/>
        <pt x="462" y="306" on="1"/>
        <pt x="468" y="266" on="0"/>
        <pt x="465" y="218" on="1"/>
        <pt x="140" y="218" on="1"/>
        <pt x="142" y="170" on="0"/>
        <pt x="173" y="99" on="0"/>
        <pt x="222" y="64" on="0"/>
        <pt x="270" y="48" on="0"/>
        <pt x="296" y="48" on="1"/>
        <pt x="368" y="48" on="0"/>
        <pt x="414" y="99" on="1"/>
        <pt x="453" y="60" on="1"/>
        <pt x="395" y="-10" on="0"/>
        <pt x="290" y="-10" on="1"/>
        <pt x="194" y="-10" on="0"/>
        <pt x="71" y="112" on="0"/>
        <pt x="71" y="223" on="1"/>
        <pt x="71" y="342" on="0"/>
        <pt x="193" y="468" on="0"/>
      </contour>
      <contour>
        <pt x="394" y="274" on="1"/>
        <pt x="401" y="330" on="0"/>
        <pt x="331" y="413" on="0"/>
        <pt x="276" y="413" on="1"/>
        <pt x="231" y="413" on="0"/>
        <pt x="153" y="347" on="0"/>
        <pt x="143" y="274" on="1"/>
      </contour>
    </TTGlyph>
    <TTGlyph name="egrave" xMin="71" yMin="-10" xMax="468" yMax="699">
      <contour>
        <pt x="353" y="552" on="1"/>
        <pt x="303" y="522" on="1"/>
        <pt x="202" y="657" on="1"/>
        <pt x="265" y="699" on="1"/>
      </contour>
      <contour>
        <pt x="281" y="468" on="1"/>
        <pt x="345" y="468" on="0"/>
        <pt x="447" y="390" on="0"/>
        <pt x="462" y="306" on="1"/>
        <pt x="468" y="266" on="0"/>
        <pt x="465" y="218" on="1"/>
        <pt x="140" y="218" on="1"/>
        <pt x="142" y="170" on="0"/>
        <pt x="173" y="99" on="0"/>
        <pt x="222" y="64" on="0"/>
        <pt x="270" y="48" on="0"/>
        <pt x="296" y="48" on="1"/>
        <pt x="368" y="48" on="0"/>
        <pt x="414" y="99" on="1"/>
        <pt x="454" y="60" on="1"/>
        <pt x="394" y="-10" on="0"/>
        <pt x="290" y="-10" on="1"/>
        <pt x="194" y="-10" on="0"/>
        <pt x="71" y="112" on="0"/>
        <pt x="71" y="223" on="1"/>
        <pt x="71" y="342" on="0"/>
        <pt x="193" y="468" on="0"/>
      </contour>
      <contour>
        <pt x="394" y="274" on="1"/>
        <pt x="401" y="330" on="0"/>
        <pt x="331" y="413" on="0"/>
        <pt x="276" y="413" on="1"/>
        <pt x="231" y="413" on="0"/>
        <pt x="153" y="347" on="0"/>
        <pt x="143" y="274" on="1"/>
      </contour>
    </TTGlyph>
    <TTGlyph name="eight" xMin="80" yMin="-10" xMax="461" yMax="631">
      <contour>
        <pt x="278" y="631" on="1"/>
        <pt x="347" y="631" on="0"/>
        <pt x="440" y="545" on="0"/>
        <pt x="440" y="483" on="1"/>
        <pt x="440" y="438" on="0"/>
        <pt x="386" y="357" on="0"/>
        <pt x="341" y="333" on="1"/>
        <pt x="394" y="309" on="0"/>
        <pt x="461" y="215" on="0"/>
        <pt x="461" y="161" on="1"/>
        <pt x="461" y="89" on="0"/>
        <pt x="351" y="-10" on="0"/>
        <pt x="189" y="-10" on="0"/>
        <pt x="80" y="87" on="0"/>
        <pt x="80" y="157" on="1"/>
        <pt x="80" y="210" on="0"/>
        <pt x="149" y="305" on="0"/>
        <pt x="205" y="331" on="1"/>
        <pt x="162" y="353" on="0"/>
        <pt x="110" y="432" on="0"/>
        <pt x="110" y="477" on="1"/>
        <pt x="110" y="541" on="0"/>
        <pt x="207" y="631" on="0"/>
      </contour>
      <contour>
        <pt x="273" y="572" on="1"/>
        <pt x="232" y="572" on="0"/>
        <pt x="177" y="520" on="0"/>
        <pt x="177" y="483" on="1"/>
        <pt x="177" y="447" on="0"/>
        <pt x="232" y="384" on="0"/>
        <pt x="260" y="371" on="1"/>
        <pt x="287" y="358" on="1"/>
        <pt x="324" y="378" on="0"/>
        <pt x="372" y="444" on="0"/>
        <pt x="372" y="479" on="1"/>
        <pt x="372" y="518" on="0"/>
        <pt x="315" y="572" on="0"/>
      </contour>
      <contour>
        <pt x="257" y="303" on="1"/>
        <pt x="211" y="284" on="0"/>
        <pt x="152" y="209" on="0"/>
        <pt x="152" y="166" on="1"/>
        <pt x="152" y="119" on="0"/>
        <pt x="222" y="53" on="0"/>
        <pt x="273" y="53" on="1"/>
        <pt x="322" y="53" on="0"/>
        <pt x="390" y="117" on="0"/>
        <pt x="390" y="207" on="0"/>
        <pt x="317" y="284" on="0"/>
      </contour>
    </TTGlyph>
    <TTGlyph name="ellipsis" xMin="7" yMin="-11" xMax="510" yMax="104">
      <contour>
        <pt x="125" y="46" on="1"/>
        <pt x="125" y="23" on="0"/>
        <pt x="91" y="-11" on="0"/>
        <pt x="41" y="-11" on="0"/>
        <pt x="7" y="23" on="0"/>
        <pt x="7" y="46" on="1"/>
        <pt x="7" y="70" on="0"/>
        <pt x="41" y="104" on="0"/>
        <pt x="91" y="104" on="0"/>
        <pt x="125" y="70" on="0"/>
      </contour>
      <contour>
        <pt x="318" y="46" on="1"/>
        <pt x="318" y="23" on="0"/>
        <pt x="283" y="-11" on="0"/>
        <pt x="259" y="-11" on="1"/>
        <pt x="234" y="-11" on="0"/>
        <pt x="199" y="23" on="0"/>
        <pt x="199" y="46" on="1"/>
        <pt x="199" y="70" on="0"/>
        <pt x="234" y="104" on="0"/>
        <pt x="259" y="104" on="1"/>
        <pt x="283" y="104" on="0"/>
        <pt x="318" y="70" on="0"/>
      </contour>
      <contour>
        <pt x="510" y="46" on="1"/>
        <pt x="510" y="23" on="0"/>
        <pt x="476" y="-11" on="0"/>
        <pt x="426" y="-11" on="0"/>
        <pt x="392" y="23" on="0"/>
        <pt x="392" y="46" on="1"/>
        <pt x="392" y="70" on="0"/>
        <pt x="426" y="104" on="0"/>
        <pt x="476" y="104" on="0"/>
        <pt x="510" y="70" on="0"/>
      </contour>
    </TTGlyph>
    <TTGlyph name="eng" xMin="90" yMin="-176" xMax="454" yMax="468">
      <contour>
        <pt x="90" y="457" on="1"/>
        <pt x="164" y="457" on="1"/>
        <pt x="164" y="376" on="1"/>
        <pt x="190" y="416" on="0"/>
        <pt x="270" y="468" on="0"/>
        <pt x="315" y="468" on="1"/>
        <pt x="355" y="468" on="0"/>
        <pt x="420" y="425" on="0"/>
        <pt x="437" y="387" on="1"/>
        <pt x="454" y="348" on="0"/>
        <pt x="454" y="277" on="1"/>
        <pt x="454" y="56" on="1"/>
        <pt x="454" y="-26" on="0"/>
        <pt x="436" y="-70" on="1"/>
        <pt x="416" y="-120" on="0"/>
        <pt x="333" y="-176" on="0"/>
        <pt x="284" y="-176" on="1"/>
        <pt x="230" y="-176" on="0"/>
        <pt x="187" y="-142" on="1"/>
        <pt x="221" y="-75" on="1"/>
        <pt x="225" y="-76" on="0"/>
        <pt x="228" y="-82" on="1"/>
        <pt x="230" y="-88" on="1"/>
        <pt x="232" y="-90" on="0"/>
        <pt x="245" y="-99" on="0"/>
        <pt x="272" y="-109" on="0"/>
        <pt x="286" y="-109" on="1"/>
        <pt x="333" y="-109" on="0"/>
        <pt x="361" y="-66" on="1"/>
        <pt x="383" y="-32" on="0"/>
        <pt x="383" y="45" on="1"/>
        <pt x="383" y="275" on="1"/>
        <pt x="383" y="347" on="0"/>
        <pt x="333" y="405" on="0"/>
        <pt x="296" y="405" on="1"/>
        <pt x="264" y="405" on="0"/>
        <pt x="204" y="365" on="0"/>
        <pt x="186" y="342" on="1"/>
        <pt x="164" y="312" on="0"/>
        <pt x="164" y="263" on="1"/>
        <pt x="164" y="0" on="1"/>
        <pt x="90" y="0" on="1"/>
      </contour>
    </TTGlyph>
    <TTGlyph name="eogonek" xMin="71" yMin="-175" xMax="468" yMax="468">
      <contour>
        <pt x="281" y="468" on="1"/>
        <pt x="345" y="468" on="0"/>
        <pt x="447" y="390" on="0"/>
        <pt x="462" y="305" on="1"/>
        <pt x="468" y="264" on="0"/>
        <pt x="465" y="218" on="1"/>
        <pt x="140" y="218" on="1"/>
        <pt x="142" y="170" on="0"/>
        <pt x="173" y="99" on="0"/>
        <pt x="222" y="64" on="0"/>
        <pt x="270" y="48" on="0"/>
        <pt x="296" y="48" on="1"/>
        <pt x="368" y="48" on="0"/>
        <pt x="414" y="99" on="1"/>
        <pt x="454" y="60" on="1"/>
        <pt x="418" y="16" on="1"/>
        <pt x="416" y="14" on="0"/>
        <pt x="413" y="10" on="1"/>
        <pt x="362" y="-53" on="0"/>
        <pt x="357" y="-78" on="1"/>
        <pt x="356" y="-83" on="0"/>
        <pt x="356" y="-88" on="1"/>
        <pt x="356" y="-105" on="0"/>
        <pt x="378" y="-127" on="0"/>
        <pt x="395" y="-127" on="1"/>
        <pt x="415" y="-127" on="0"/>
        <pt x="446" y="-108" on="1"/>
        <pt x="445" y="-157" on="1"/>
        <pt x="411" y="-175" on="0"/>
        <pt x="379" y="-175" on="1"/>
        <pt x="342" y="-175" on="0"/>
        <pt x="296" y="-132" on="0"/>
        <pt x="296" y="-101" on="1"/>
        <pt x="296" y="-54" on="0"/>
        <pt x="352" y="-1" on="1"/>
        <pt x="318" y="-10" on="0"/>
        <pt x="283" y="-10" on="1"/>
        <pt x="190" y="-10" on="0"/>
        <pt x="71" y="116" on="0"/>
        <pt x="71" y="226" on="1"/>
        <pt x="71" y="343" on="0"/>
        <pt x="193" y="468" on="0"/>
      </contour>
      <contour>
        <pt x="394" y="274" on="1"/>
        <pt x="401" y="330" on="0"/>
        <pt x="331" y="413" on="0"/>
        <pt x="276" y="413" on="1"/>
        <pt x="231" y="413" on="0"/>
        <pt x="153" y="347" on="0"/>
        <pt x="143" y="274" on="1"/>
      </contour>
    </TTGlyph>
    <TTGlyph name="equal" xMin="70" yMin="170" xMax="481" yMax="438">
      <contour>
        <pt x="481" y="438" on="1"/>
        <pt x="481" y="377" on="1"/>
        <pt x="70" y="377" on="1"/>
        <pt x="70" y="438" on="1"/>
      </contour>
      <contour>
        <pt x="481" y="231" on="1"/>
        <pt x="481" y="170" on="1"/>
        <pt x="70" y="170" on="1"/>
        <pt x="70" y="231" on="1"/>
      </contour>
    </TTGlyph>
    <TTGlyph name="eth" xMin="60" yMin="-12" xMax="480" yMax="672">
      <contour>
        <pt x="367" y="570" on="1"/>
        <pt x="480" y="442" on="0"/>
        <pt x="480" y="253" on="1"/>
        <pt x="480" y="145" on="0"/>
        <pt x="442" y="82" on="1"/>
        <pt x="415" y="37" on="0"/>
        <pt x="327" y="-12" on="0"/>
        <pt x="276" y="-12" on="1"/>
        <pt x="187" y="-12" on="0"/>
        <pt x="60" y="122" on="0"/>
        <pt x="60" y="324" on="0"/>
        <pt x="185" y="467" on="0"/>
        <pt x="269" y="467" on="1"/>
        <pt x="340" y="467" on="0"/>
        <pt x="389" y="415" on="1"/>
        <pt x="356" y="494" on="0"/>
        <pt x="303" y="552" on="1"/>
        <pt x="175" y="516" on="1"/>
        <pt x="157" y="564" on="1"/>
        <pt x="261" y="592" on="1"/>
        <pt x="216" y="630" on="0"/>
        <pt x="159" y="656" on="1"/>
        <pt x="240" y="672" on="1"/>
        <pt x="285" y="648" on="0"/>
        <pt x="327" y="610" on="1"/>
        <pt x="435" y="639" on="1"/>
        <pt x="452" y="595" on="1"/>
      </contour>
      <contour>
        <pt x="275" y="406" on="1"/>
        <pt x="219" y="406" on="0"/>
        <pt x="137" y="315" on="0"/>
        <pt x="137" y="149" on="0"/>
        <pt x="219" y="50" on="0"/>
        <pt x="276" y="50" on="1"/>
        <pt x="327" y="50" on="0"/>
        <pt x="407" y="137" on="0"/>
        <pt x="407" y="232" on="1"/>
        <pt x="407" y="325" on="0"/>
        <pt x="325" y="406" on="0"/>
      </contour>
    </TTGlyph>
    <TTGlyph name="exclam" xMin="199" yMin="-11" xMax="318" yMax="668">
      <contour>
        <pt x="260" y="668" on="1"/>
        <pt x="276" y="668" on="0"/>
        <pt x="305" y="646" on="0"/>
        <pt x="308" y="625" on="1"/>
        <pt x="311" y="607" on="0"/>
        <pt x="311" y="584" on="1"/>
        <pt x="311" y="563" on="0"/>
        <pt x="303" y="484" on="0"/>
        <pt x="302" y="470" on="1"/>
        <pt x="284" y="194" on="1"/>
        <pt x="234" y="194" on="1"/>
        <pt x="219" y="470" on="1"/>
        <pt x="217" y="502" on="0"/>
        <pt x="209" y="576" on="0"/>
        <pt x="209" y="593" on="1"/>
        <pt x="209" y="621" on="0"/>
        <pt x="216" y="636" on="1"/>
        <pt x="230" y="668" on="0"/>
      </contour>
      <contour>
        <pt x="318" y="73" on="0"/>
        <pt x="318" y="23" on="0"/>
        <pt x="283" y="-11" on="0"/>
        <pt x="258" y="-11" on="1"/>
        <pt x="234" y="-11" on="0"/>
        <pt x="199" y="23" on="0"/>
        <pt x="199" y="73" on="0"/>
        <pt x="234" y="107" on="0"/>
        <pt x="258" y="107" on="1"/>
        <pt x="283" y="107" on="0"/>
      </contour>
    </TTGlyph>
    <TTGlyph name="exclamdown" xMin="199" yMin="-11" xMax="318" yMax="668">
      <contour>
        <pt x="199" y="609" on="1"/>
        <pt x="199" y="633" on="0"/>
        <pt x="234" y="668" on="0"/>
        <pt x="258" y="668" on="1"/>
        <pt x="283" y="668" on="0"/>
        <pt x="318" y="633" on="0"/>
        <pt x="318" y="609" on="1"/>
        <pt x="318" y="584" on="0"/>
        <pt x="283" y="550" on="0"/>
        <pt x="258" y="550" on="1"/>
        <pt x="234" y="550" on="0"/>
        <pt x="199" y="584" on="0"/>
      </contour>
      <contour>
        <pt x="257" y="-11" on="1"/>
        <pt x="216" y="-11" on="0"/>
        <pt x="209" y="32" on="1"/>
        <pt x="206" y="50" on="0"/>
        <pt x="206" y="72" on="1"/>
        <pt x="206" y="93" on="0"/>
        <pt x="214" y="172" on="0"/>
        <pt x="215" y="186" on="1"/>
        <pt x="233" y="463" on="1"/>
        <pt x="283" y="463" on="1"/>
        <pt x="298" y="186" on="1"/>
        <pt x="300" y="155" on="0"/>
        <pt x="308" y="80" on="0"/>
        <pt x="308" y="64" on="1"/>
        <pt x="308" y="40" on="0"/>
        <pt x="301" y="21" on="1"/>
        <pt x="289" y="-11" on="0"/>
      </contour>
    </TTGlyph>
    <TTGlyph name="f" xMin="103" yMin="0" xMax="523" yMax="671">
      <contour>
        <pt x="383" y="671" on="1"/>
        <pt x="473" y="671" on="0"/>
        <pt x="523" y="608" on="1"/>
        <pt x="490" y="542" on="1"/>
        <pt x="482" y="542" on="0"/>
        <pt x="482" y="550" on="1"/>
        <pt x="482" y="559" on="0"/>
        <pt x="480" y="562" on="1"/>
        <pt x="466" y="585" on="0"/>
        <pt x="412" y="614" on="0"/>
        <pt x="380" y="614" on="1"/>
        <pt x="316" y="614" on="0"/>
        <pt x="288" y="564" on="1"/>
        <pt x="271" y="533" on="0"/>
        <pt x="271" y="465" on="1"/>
        <pt x="271" y="430" on="1"/>
        <pt x="421" y="430" on="1"/>
        <pt x="421" y="373" on="1"/>
        <pt x="271" y="373" on="1"/>
        <pt x="271" y="0" on="1"/>
        <pt x="202" y="0" on="1"/>
        <pt x="202" y="373" on="1"/>
        <pt x="103" y="373" on="1"/>
        <pt x="103" y="430" on="1"/>
        <pt x="202" y="430" on="1"/>
        <pt x="202" y="475" on="1"/>
        <pt x="202" y="550" on="0"/>
        <pt x="227" y="591" on="1"/>
        <pt x="251" y="629" on="0"/>
        <pt x="334" y="671" on="0"/>
      </contour>
    </TTGlyph>
</ttFont>
